<svg viewBox="151.462 115.205 107.016 34.502"  width= "200" height = "48"  xmlns="http://www.w3.org/2000/svg">
  <defs></defs>
  <text style="font-family: Arial, sans-serif; font-size: 31.5489px; font-weight: 700; line-height: 20.8969px; stroke-width: 7.58205px; white-space: pre;" transform="matrix(0.473483, 0, 0, 0.493756, 81.604172, 35.920166)" x="196.512" y="199.224">U’s Factory</text>
  <path d="M 154.651 118.813 L 161.663 118.813 L 161.663 125.998 L 154.651 118.813 Z M 154.525 120.43 L 161.056 127.124 L 154.525 127.124 L 154.525 120.43 Z" style="fill: rgb(0, 113, 206);"></path>
  <path d="M 168.569 118.813 C 168.291 118.95 168.013 119.102 167.737 119.264 C 165.594 120.531 163.918 122.409 162.869 124.613 L 162.869 118.813 L 168.569 118.813 Z M 169.994 119.563 L 169.994 127.124 L 163.244 127.124 C 164.188 123.533 166.797 120.801 169.994 119.563 Z" style="fill: rgb(0, 113, 206);"></path>
  <path d="M 161.663 135.626 C 157.901 135.299 154.885 132.217 154.556 128.358 L 161.663 128.358 L 161.663 135.626 Z" style="fill: rgb(0, 113, 206);"></path>
  <path d="M 162.869 135.626 L 162.869 128.349 L 169.994 128.349 C 169.72 132.252 166.686 135.359 162.869 135.626 Z" style="fill: rgb(224, 0, 0);"></path>
</svg>