<?xml version="1.0" encoding="iso-8859-1"?>
<!-- Generator: Adobe Illustrator 16.0.0, SVG Export Plug-In . SVG Version: 6.00 Build 0)  -->
<!DOCTYPE svg PUBLIC "-//W3C//DTD SVG 1.1//EN" "http://www.w3.org/Graphics/SVG/1.1/DTD/svg11.dtd">
<!-- License: CC0. Made by SVG Repo: https://www.svgrepo.com/svg/127454/building -->
<svg version="1.1" id="Capa_1" xmlns="http://www.w3.org/2000/svg" xmlns:xlink="http://www.w3.org/1999/xlink" x="0px" y="0px"
	 width="58.38px" height="58.381px" viewBox="0 0 58.38 58.381" style="enable-background:new 0 0 58.38 58.381;"
	 xml:space="preserve">
<g>
	<g>
		<polygon points="11.101,42.917 11.101,42.08 10.23,42.604 10.23,44.639 28.498,58.381 50.152,48.134 50.152,46.452 28.946,55.718 
					"/>
		<path d="M32.42,0L11.699,2.82v3.111v0.773v3.447l-3.225,1.26v1.968l3.225,1.519v2.452l-3.255,1.754v2.513l3.255,1.51v1.245
			l-3.255,1.645v2.511l3.255,1.705v2.588l-3.471,1.354v2.324l3.471,1.941v4.153L28.984,54.82l20.87-9.312V8.769l0.299-0.07V4.812
			L32.42,0z M15.547,39.279l-0.013-6.438l3.513,1.571l0.038,6.96L15.547,39.279z M19.046,17.285v5.828l-3.513-1.765v-5.63
			L19.046,17.285z M15.534,12.782v-5.63l3.513,1.568v5.83L15.534,12.782z M19.046,25.849v5.827l-3.513-1.765V24.28L19.046,25.849z
			 M24.861,45.356l-3.487-2.241l0.038-7.283l3.513,1.716L24.861,45.356z M24.924,34.801l-3.513-1.765v-5.632l3.513,1.57V34.801z
			 M24.924,25.821l-3.513-1.766v-5.63l3.513,1.569V25.821z M24.924,16.84l-3.513-1.766v-5.63l3.513,1.569V16.84z M28.336,9.097
			l-13.848-5.38L32.42,1.523l13.948,3.588L28.336,9.097z M30.666,46.721l0.025-35.286l4.285-1.095l0.174,34.344L30.666,46.721z
			 M37.314,43.976l-0.05-34.333l4.285-1.095l0.075,33.721L37.314,43.976z M48.123,39.778l-4.282,1.594V8.041l4.282-1.097V39.778z"/>
	</g>
</g>
</svg>
