<?xml version="1.0" encoding="UTF-8"?>
<svg id="_レイヤー_1" data-name="レイヤー 1" xmlns="http://www.w3.org/2000/svg" viewBox="0 0 500 500" width="100" height="100">
  <defs>
    <style>
      .cls-1 {
        fill: #000;
      }

      .cls-1, .cls-2 {
        stroke-width: 0px;
      }

      .cls-2 {
        fill: #0962a8;
      }
    </style>
  </defs>
  <g>
    <path class="cls-2" d="M298.96,64.3c11.29,15.69,16.94,34.46,16.94,56.33s-5.7,40.64-17.09,54.32c-6.37,7.68-15.75,14.69-28.14,21.03,18.83,6.85,33.04,17.69,42.62,32.54,9.58,14.86,14.38,32.88,14.38,54.07s-5.48,41.47-16.43,58.83c-6.97,11.52-15.68,21.2-26.13,29.04-11.78,9.01-25.68,15.19-41.69,18.53-16.02,3.34-33.39,5.01-52.14,5.01H25V25h178.32c44.99.67,76.87,13.77,95.63,39.3ZM98.6,89.09v81.36h89.68c16.02,0,29.03-3.04,39.02-9.14,9.99-6.09,14.99-16.9,14.99-32.42,0-17.19-6.61-28.54-19.82-34.05-11.4-3.84-25.94-5.76-43.61-5.76h-80.27ZM98.6,231.53v98.38h89.59c16,0,28.46-2.17,37.37-6.51,16.17-8.01,24.25-23.36,24.25-46.06,0-19.19-7.84-32.38-23.51-39.55-8.75-4.01-21.04-6.09-36.87-6.26h-90.82Z"/>
    <path class="cls-2" d="M475,394h-76.6V25h76.6v369Z"/>
  </g>
  <g>
    <path class="cls-1" d="M38.04,453.13c.42,2.99,1.25,5.22,2.49,6.7,2.26,2.69,6.14,4.04,11.64,4.04,3.29,0,5.96-.35,8.02-1.06,3.9-1.36,5.84-3.89,5.84-7.58,0-2.16-.95-3.83-2.86-5.01-1.91-1.15-4.93-2.17-9.08-3.06l-7.08-1.55c-6.96-1.54-11.74-3.21-14.34-5.01-4.41-3.02-6.61-7.73-6.61-14.15,0-5.85,2.15-10.72,6.47-14.59,4.31-3.87,10.64-5.81,18.99-5.81,6.97,0,12.92,1.83,17.85,5.48,4.92,3.65,7.51,8.95,7.75,15.9h-13.13c-.24-3.93-2-6.73-5.27-8.38-2.18-1.09-4.9-1.64-8.14-1.64-3.61,0-6.49.71-8.64,2.13-2.15,1.42-3.23,3.4-3.23,5.94,0,2.34,1.06,4.08,3.18,5.23,1.36.77,4.26,1.67,8.69,2.71l11.47,2.71c5.03,1.18,8.8,2.77,11.31,4.75,3.9,3.08,5.85,7.53,5.85,13.35s-2.31,10.93-6.93,14.88c-4.62,3.95-11.14,5.92-19.57,5.92s-15.38-1.94-20.31-5.83c-4.93-3.89-7.4-9.23-7.4-16.03h13.04Z"/>
    <path class="cls-1" d="M89.09,434.41v-9h6.74v-13.48h12.51v13.48h7.85v9h-7.85v25.55c0,1.98.25,3.22.75,3.7s2.04.73,4.61.73c.38,0,.79,0,1.22-.02.43-.01.85-.04,1.26-.07v9.45l-5.99.22c-5.97.21-10.05-.83-12.24-3.1-1.42-1.45-2.13-3.68-2.13-6.7v-29.76h-6.74Z"/>
    <path class="cls-1" d="M157.47,423.84c.16.02.53.04,1.09.07v12.95c-.8-.09-1.51-.15-2.13-.18s-1.12-.04-1.51-.04c-5.09,0-8.5,1.66-10.25,4.97-.98,1.86-1.46,4.73-1.46,8.61v23.11h-12.73v-48.35h12.06v8.43c1.95-3.22,3.65-5.43,5.1-6.61,2.37-1.98,5.44-2.97,9.23-2.97.24,0,.44,0,.6.02Z"/>
    <path class="cls-1" d="M184.86,424.97v29.14c0,2.75.32,4.82.97,6.21,1.15,2.45,3.4,3.68,6.75,3.68,4.3,0,7.24-1.74,8.83-5.23.82-1.89,1.24-4.39,1.24-7.5v-26.3h12.82v48.35h-12.29v-6.83c-.12.15-.41.59-.88,1.33s-1.03,1.39-1.68,1.95c-1.98,1.77-3.89,2.99-5.73,3.64-1.84.65-4,.98-6.48.98-7.14,0-11.94-2.57-14.42-7.72-1.39-2.84-2.08-7.02-2.08-12.55v-29.14h12.95Z"/>
    <path class="cls-1" d="M262.97,442.31c-.24-1.8-.84-3.43-1.82-4.88-1.42-1.95-3.63-2.93-6.63-2.93-4.27,0-7.19,2.11-8.76,6.34-.83,2.24-1.24,5.22-1.24,8.94s.41,6.39,1.24,8.54c1.51,4.02,4.36,6.03,8.54,6.03,2.96,0,5.07-.8,6.31-2.4s2-3.67,2.27-6.21h12.91c-.3,3.84-1.69,7.48-4.17,10.91-3.97,5.53-9.84,8.29-17.63,8.29s-13.51-2.31-17.18-6.92c-3.67-4.61-5.51-10.59-5.51-17.94,0-8.29,2.03-14.75,6.08-19.36,4.06-4.61,9.65-6.92,16.78-6.92,6.07,0,11.03,1.36,14.9,4.08,3.86,2.72,6.15,7.53,6.86,14.42h-12.95Z"/>
    <path class="cls-1" d="M285.9,434.41v-9h6.74v-13.48h12.51v13.48h7.85v9h-7.85v25.55c0,1.98.25,3.22.75,3.7s2.04.73,4.61.73c.38,0,.79,0,1.22-.02.43-.01.85-.04,1.26-.07v9.45l-5.99.22c-5.97.21-10.05-.83-12.24-3.1-1.42-1.45-2.13-3.68-2.13-6.7v-29.76h-6.74Z"/>
    <path class="cls-1" d="M340.02,424.97v29.14c0,2.75.32,4.82.97,6.21,1.15,2.45,3.4,3.68,6.75,3.68,4.3,0,7.24-1.74,8.83-5.23.82-1.89,1.24-4.39,1.24-7.5v-26.3h12.82v48.35h-12.29v-6.83c-.12.15-.41.59-.88,1.33s-1.03,1.39-1.68,1.95c-1.98,1.77-3.89,2.99-5.73,3.64-1.84.65-4,.98-6.48.98-7.14,0-11.94-2.57-14.42-7.72-1.39-2.84-2.08-7.02-2.08-12.55v-29.14h12.95Z"/>
    <path class="cls-1" d="M416.06,423.84c.16.02.53.04,1.09.07v12.95c-.8-.09-1.51-.15-2.13-.18s-1.12-.04-1.51-.04c-5.09,0-8.5,1.66-10.25,4.97-.98,1.86-1.46,4.73-1.46,8.61v23.11h-12.73v-48.35h12.06v8.43c1.95-3.22,3.65-5.43,5.1-6.61,2.37-1.98,5.44-2.97,9.23-2.97.24,0,.44,0,.6.02Z"/>
    <path class="cls-1" d="M462.36,425.95c3.37,1.51,6.16,3.9,8.35,7.15,1.98,2.87,3.26,6.2,3.85,9.99.34,2.22.48,5.42.42,9.6h-35.21c.2,4.85,1.88,8.25,5.06,10.2,1.93,1.21,4.25,1.82,6.97,1.82,2.88,0,5.22-.74,7.02-2.22.98-.8,1.85-1.91,2.6-3.33h12.91c-.34,2.87-1.9,5.78-4.69,8.74-4.33,4.7-10.39,7.05-18.19,7.05-6.44,0-12.11-1.98-17.03-5.95-4.92-3.97-7.38-10.42-7.38-19.36,0-8.37,2.22-14.8,6.66-19.27,4.44-4.47,10.2-6.7,17.29-6.7,4.21,0,8,.75,11.37,2.27ZM443.45,436.87c-1.79,1.84-2.91,4.34-3.37,7.48h21.78c-.23-3.36-1.35-5.9-3.37-7.64-2.02-1.74-4.51-2.61-7.5-2.61-3.25,0-5.76.92-7.55,2.76Z"/>
  </g>
</svg>