<svg width="56" height="56" viewBox="0 0 56 56" fill="none" xmlns="http://www.w3.org/2000/svg">
	<circle cx="28" cy="28" r="26" fill="#0e4e9a" stroke="#fff" stroke-width="1.3" stroke-linecap="round"/>
	<path d="M43.43 39.8C43.68 39.8 43.91 39.79 44.13 39.76C44.05 39.03 43.62 38.55 42.96 38.55C42.55 38.55 42.25 38.79 42.25 39.1C42.25 39.53 42.76 39.8 43.43 39.8ZM45.52 32.63L46.06 33.35C45.86 33.48 45.63 33.63 45.45 33.76C44.94 34.12 43.74 35.17 43.04 35.75C43.44 35.62 43.82 35.58 44.21 35.58C45.87 35.58 47.1 36.6 47.1 37.98C47.1 39.57 45.83 40.7 43.61 40.7C42.24 40.7 41.32 40.08 41.32 39.19C41.32 38.46 41.99 37.78 42.96 37.78C44.19 37.78 44.9 38.57 45.04 39.52C45.71 39.22 46.08 38.69 46.08 37.97C46.08 37.04 45.14 36.38 43.93 36.38C42.35 36.38 41.41 37.12 40.24 38.36L39.51 37.62C40.28 36.99 41.52 35.95 42.1 35.47C42.65 35.01 43.79 34.06 44.29 33.63C43.77 33.65 42.08 33.72 41.56 33.75C41.31 33.77 41.05 33.79 40.83 33.82L40.8 32.79C41.05 32.82 41.35 32.84 41.59 32.84C42.11 32.84 44.35 32.78 44.89 32.73C45.23 32.69 45.41 32.67 45.52 32.63Z" fill="#ffffff" />
	<path d="M37.7 32.39V33.23H29.31V32.39H37.7ZM30.83 37.33H33.42C33.47 37.01 33.5 36.66 33.52 36.28H30.89C30.88 36.61 30.86 36.97 30.83 37.33ZM36.28 34.57H30.9V35.55H36.28V34.57ZM37.74 38.13H34.65C35.21 39.32 36.31 39.97 38.11 40.2C37.91 40.4 37.66 40.78 37.55 41.04C35.77 40.73 34.68 40.02 34.01 38.75C33.56 39.86 32.65 40.61 30.75 41.06C30.67 40.83 30.42 40.47 30.25 40.3C32.13 39.89 32.9 39.21 33.24 38.13H30.71C30.54 39.12 30.2 40.11 29.59 40.9C29.42 40.74 29.01 40.48 28.78 40.39C29.85 39.05 29.97 37.15 29.97 35.81V33.85H37.19V36.28H34.47C34.44 36.65 34.41 37 34.37 37.33H37.74V38.13Z" fill="#ffffff" stroke-linecap="round" stroke-linejoin="round"/>
	<path d="M18.99 37.38C19.26 37.17 19.48 36.96 19.76 36.67C20.25 36.16 21.06 35.08 21.65 34.38C22.27 33.65 22.86 33.57 23.54 34.25C24.16 34.87 24.95 35.88 25.56 36.54C26.17 37.21 27.09 38.19 28 39L27.21 39.92C26.47 39.23 25.59 38.25 24.93 37.49C24.3 36.76 23.55 35.81 23.09 35.3C22.69 34.88 22.51 34.93 22.2 35.33C21.77 35.88 21 36.92 20.54 37.51C20.32 37.79 20.1 38.12 19.93 38.35L18.99 37.38Z" fill="#ffffff" stroke-linecap="round" stroke-linejoin="round"/>
	<path d="M13.65 39.62H17.95V40.56H9V39.62H12.65V32H13.65V34.97H17.26V35.9H13.65V39.62Z" fill="#ffffff" stroke-linecap="round" stroke-linejoin="round"/>
	<mask id="mask0_128_25" style="mask-type:alpha" maskUnits="userSpaceOnUse" x="20" y="12" width="16" height="16">
		<rect x="20" y="28" width="16" height="16" transform="rotate(-90 20 28)" fill="#D9D9D9" />
	</mask>
	<g mask="url(#mask0_128_25)">
		<path d="M34.6666 22.65L33.4833 23.8334L27.9999 18.35L22.5166 23.8334L21.3333 22.65L27.9999 15.9834L34.6666 22.65Z" fill="#ffffff" />
	</g>
</svg>
