<svg viewBox="0 0 500 500" xmlns="http://www.w3.org/2000/svg" xmlns:xlink="http://www.w3.org/1999/xlink">
  <defs>
    <linearGradient id="_名称未設定グラデーション_13" data-name="名称未設定グラデーション 13" x1="-498.78" y1="551.32" x2="-498.78" y2="570.69" gradientTransform="translate(939.44 16.97) rotate(-177.62) scale(1 -1)" gradientUnits="userSpaceOnUse">
      <stop offset="0" stop-color="#e08195"></stop>
      <stop offset="1" stop-color="#f1a49b"></stop>
    </linearGradient>
    <linearGradient id="_名称未設定グラデーション_31" data-name="名称未設定グラデーション 31" x1="1252.44" y1="612.28" x2="1252.44" y2="642.75" gradientTransform="translate(142.97 13.06) rotate(-1.82)" gradientUnits="userSpaceOnUse">
      <stop offset="0" stop-color="#e08c43"></stop>
      <stop offset="1" stop-color="#ffeb7e"></stop>
    </linearGradient>
    <linearGradient id="_名称未設定グラデーション_31-2" data-name="名称未設定グラデーション 31" x1="1428.44" y1="601.89" x2="1430.33" y2="653.48" gradientTransform="translate(2.17 -4.84) rotate(.28)" xlink:href="#_名称未設定グラデーション_31"></linearGradient>
    <clipPath id="clippath-3">
      <path class="cls-73" d="M1303.41,588.29c-1.88,6.23,5.36,15.87,12.12,17.69s18.52-.84,21.63-2.8,6.47-7.27,6.47-7.27l26.4,2.12,27.26-36.35-3.99-40.11-43.66-33.69-84.22,40.56-47.43,44.55,12.63,37.23,33.69-6.21,39.1-15.72Z" style="fill: none; stroke-width: 0px;"></path>
    </clipPath>
    <clipPath id="clippath-4">
      <path class="cls-73" d="M1346.51,537.78c-13.52-4.45-26.06.7-29.4,3.05-3.35,2.35-6.53,21.54-7.21,28.37-.69,6.84-9.63,32.87-9.63,32.87,0,0,9.48,4.91,16.6,6.47,7.13,1.56,17.94-2.65,17.94-2.65,0,0,13.12-21.84,17.28-31.99,4.16-10.16,8.78-21.15,7.67-26.67-1.11-5.52-7.64-7.61-13.26-9.46Z" style="fill: none; stroke-width: 0px;"></path>
    </clipPath>
    <clipPath id="clippath-5">
      <path class="cls-73" d="M1395.41,515.83l-4.17,8.27c-1.17,2.31,1.45,5.99,5.85,8.21,4.4,2.22,8.91,2.14,10.08-.17l4.17-8.27-15.93-8.04Z" style="fill: none; stroke-width: 0px;"></path>
    </clipPath>
    <clipPath id="clippath-6">
      <path class="cls-73" d="M1427.69,471.63c-17.16-8.65-26.81,7.7-27.11,17.37-.4,12.93-2.81,27.13-2.81,27.13-.87,1.73,1.09,4.48,4.38,6.14,3.29,1.66,6.67,1.6,7.54-.13,0,0,0,0,0-.01.17-.18,10.07-10.43,20.14-18.38,7.59-5.99,15.01-23.47-2.15-32.12Z" style="fill: none; stroke-width: 0px;"></path>
    </clipPath>
    <clipPath id="clippath-7">
      <path class="cls-73" d="M1153.33,202.16c-13.35.8-22.51,9.65-24.62,12.86-2.11,3.22,1.77,21.07,3.55,27.28,1.77,6.21,2.99,32.05,2.99,32.05,0,0,9.98,1,16.74-.11s14.75-8.54,14.75-8.54c0,0,3.88-23.62,3.99-33.93.11-10.31.33-21.51-2.55-25.95-2.88-4.44-9.31-3.99-14.86-3.66Z" style="fill: none; stroke-width: 0px;"></path>
    </clipPath>
    <linearGradient id="_名称未設定グラデーション_66" data-name="名称未設定グラデーション 66" x1="1259.14" y1="186.34" x2="1259.14" y2="120.04" gradientUnits="userSpaceOnUse">
      <stop offset="0" stop-color="#ffb77a"></stop>
      <stop offset="1" stop-color="#ffba61"></stop>
    </linearGradient>
    <clipPath id="clippath-8">
      <path class="cls-73" d="M1266.3,146.33c-6.07,1.48-13.15,7.86-14.48,9.99-1.32,2.13,8.97,18.25,10.66,21.78s-2.65,21.51-2.14,22.39,8.82,3.89,16.31,2.28c7.5-1.62,10.8-4.78,10.66-5.59s-5.66-16.12-5.66-18.55,1.57-12.43,1.2-16.11-5.24-14.21-8.25-15.54-5.59-1.32-8.3-.66Z" style="fill: none; stroke-width: 0px;"></path>
    </clipPath>
    <clipPath id="clippath-9">
      <path class="cls-73" d="M1266.33,144.58c1.2.91,2.58,1.47,4.01,1.47,1.35,0,2.52-.49,3.48-1.29l-.19,3.9s5.09,10.74,3.6,11.74c-.66.45-6.06-5.81-10.21-9.14-2.22-1.78-3.4-3.49-3.4-3.49l-.07-2.62-.11-4c.71,1.34,1.72,2.55,2.89,3.43Z" style="fill: none; stroke-width: 0px;"></path>
    </clipPath>
    <clipPath id="clippath-11">
      <path class="cls-73" d="M1247.03,390.28h0c-.74,5.01,3.6,9.87,8.56,10.86l34.37,6.12c5.34,1.07,10.49-2.56,11.28-7.95l.31-2.11c.79-5.39-3.1-10.34-8.52-10.85l-35.7-4.16c-5.04-.47-9.57,3.08-10.3,8.09Z" style="fill: none; stroke-width: 0px;"></path>
    </clipPath>
    <clipPath id="clippath-12">
      <rect class="cls-73" x="1290.15" y="297.71" width="12.61" height="22.88" transform="translate(2592.91 618.29) rotate(180)" style="fill: none; stroke-width: 0px;"></rect>
    </clipPath>
    <clipPath id="clippath-13">
      <path class="cls-73" d="M1275.29,361.91c.8-5.5.86-11.07.18-16.58l-.61-4.93c-2.25-17.2,10.14-22.46,16.44-23.61l15.39-2.44c.48-.08.96-.12,1.43-.14.47-.02.94-.01,1.4.02.46.03.91.1,1.36.18.89.17,1.75.44,2.56.8.81.36,1.58.81,2.29,1.33,1.06.78,2,1.74,2.75,2.83.51.72.93,1.51,1.27,2.34.68,1.66.99,3.51.84,5.45l-.32,16.11c-.09,4.45-.38,8.9-.91,13.32-.35,2.91-.65,6.02-.62,7.56l-3.21,18.26c-.45,8.66-5.57,8.44-10.92,9.61l-16.26,2.56c-2.53.4-5.13.37-7.62-.26-5.02-1.27-8.52-3.88-8.46-6.58l3.02-25.81Z" style="fill: none; stroke-width: 0px;"></path>
    </clipPath>
    <clipPath id="clippath-14">
      <path class="cls-73" d="M1357.16,254.78l-38.48,22.22-6.62-32.72c0-.83.5-1.78,1.12-2.14l36.24-20.92c.62-.36,1.12.02,1.12.85l6.62,32.72Z" style="fill: none; stroke-width: 0px;"></path>
    </clipPath>
    <clipPath id="clippath-16">
      <path class="cls-73" d="M1354.31,321.93h0c-.74,5.01,3.6,9.87,8.56,10.86l34.37,6.12c5.34,1.07,10.49-2.56,11.28-7.95l.31-2.11c.79-5.39-3.1-10.34-8.52-10.85l-35.7-4.16c-5.04-.47-9.57,3.08-10.3,8.09Z" style="fill: none; stroke-width: 0px;"></path>
    </clipPath>
    <clipPath id="clippath-17">
      <rect class="cls-73" x="1397.43" y="229.35" width="12.61" height="22.88" transform="translate(2807.47 481.58) rotate(180)" style="fill: none; stroke-width: 0px;"></rect>
    </clipPath>
    <clipPath id="clippath-18">
      <path class="cls-73" d="M1382.58,293.56c.8-5.5.86-11.07.18-16.58l-.61-4.93c-2.25-17.2,10.14-22.46,16.44-23.61l15.39-2.44c.48-.08.96-.12,1.43-.14.47-.02.94-.01,1.4.02.46.03.91.1,1.36.18.89.17,1.75.44,2.56.8.81.36,1.58.81,2.29,1.33,1.06.78,2,1.74,2.75,2.83.51.72.93,1.51,1.27,2.34.68,1.66.99,3.51.84,5.45l-.32,16.11c-.09,4.45-.38,8.9-.91,13.32-.35,2.91-.65,6.02-.62,7.56l-3.21,18.26c-.45,8.66-5.57,8.44-10.92,9.61l-16.26,2.56c-2.53.4-5.13.37-7.62-.26-5.02-1.27-8.52-3.88-8.46-6.58l3.02-25.81Z" style="fill: none; stroke-width: 0px;"></path>
    </clipPath>
    <clipPath id="clippath-19">
      <path class="cls-15" d="M1407.13,357.29l29.59-13.01c3.74-1.64,6.65-4.73,8.08-8.55l16.94-45.22c0-7.44-4.78-10.2-11.22-6.48l-30.97,17.88c-2.99,1.73-7.87,5.78-9.63,15.92l-7.6,35.54c-.59,2.78,2.21,5.06,4.81,3.92Z" style="fill: rgb(127, 160, 228); stroke-width: 0px;"></path>
    </clipPath>
    <clipPath id="clippath-21">
      <path class="cls-73" d="M204,855.21c-15.77.95-26.59,11.4-29.08,15.2-2.49,3.8,2.1,24.89,4.19,32.22,2.1,7.34,3.54,37.86,3.54,37.86,0,0,11.79,1.18,19.78-.13,7.99-1.31,17.42-10.09,17.42-10.09,0,0,4.58-27.9,4.72-40.08.13-12.18.39-25.41-3.01-30.65-3.41-5.24-11-4.72-17.55-4.32Z" style="fill: none; stroke-width: 0px;"></path>
    </clipPath>
    <clipPath id="clippath-22">
      <path class="cls-73" d="M129.97,757.75v23.26c0,6.51,10.03,11.79,22.41,11.79s22.41-5.28,22.41-11.79v-23.26h-44.82Z" style="fill: none; stroke-width: 0px;"></path>
    </clipPath>
    <clipPath id="clippath-23">
      <path class="cls-73" d="M152.38,622.12c-48.26,0-51.4,47.58-41.15,69.6,13.72,29.46,24.38,64.01,24.38,64.01,0,4.87,7.51,8.82,16.77,8.82s16.77-3.95,16.77-8.82c0,0,0-.02,0-.03.18-.59,10.78-34.78,24.38-63.98,10.25-22.01,7.11-69.6-41.15-69.6Z" style="fill: none; stroke-width: 0px;"></path>
    </clipPath>
    <clipPath id="clippath-24">
      <path class="cls-73" d="M335.32,305.47s6.77,3.27,8.41,16.2c1.63,12.93-3.82,26.45-3.3,32.28.51,5.84.77,26,2.92,38.2,2.15,12.2,4.42,35.07,4.42,35.07,0,0-6.59,4.78-13.57,1.41,0,0-9.39-56.96-12.8-68.91-3.41-11.95-1.08-49.73-1.08-49.73l15.01-4.52Z" style="fill: none; stroke-width: 0px;"></path>
    </clipPath>
    <clipPath id="clippath-25">
      <path class="cls-73" d="M325.78,309.76s3.36,7.97,2.89,21-5.24,25.79-5.67,31.63c-.43,5.84,1.17,29.54,1.33,41.93.16,12.39-1.28,35.33-1.28,35.33,0,0-7.28,3.66-13.62-.79,0,0-3.56-63.74-5-76.08-1.44-12.34.21-51.51.21-51.51l21.15-1.5Z" style="fill: none; stroke-width: 0px;"></path>
    </clipPath>
    <clipPath id="clippath-26">
      <path class="cls-73" d="M331.88,242.67c-8.93-.98-17.72,2.24-22.8,9.74-5.08,7.49,1.6,23.65,1.12,31.68-.48,8.03-2.15,15.16-3.62,19.81s9.29,9.59,18.16,10.56c8.87.97,18.51-2.95,20.08-6.3,1.57-3.35-1.89-8.12.18-17.53s6.8-27.64,7.52-33.03c.72-5.39-1.22-12.81-20.64-14.93Z" style="fill: none; stroke-width: 0px;"></path>
    </clipPath>
    <clipPath id="clippath-28">
      <path class="cls-73" d="M668.18,220.58s-5.4,3.5-5.4,14.65,6.07,27.29,6.26,32.3c.19,5.01.41,8.46-.11,19.05s0,30.24,0,30.24c0,0,6.11,3.35,11.66-.26,0,0,3.59-35.66,5.2-46.17,1.62-10.5-4.41-47.58-4.41-47.58l-13.22-2.23Z" style="fill: none; stroke-width: 0px;"></path>
    </clipPath>
    <clipPath id="clippath-29">
      <path class="cls-73" d="M652.39,225.71s-3.12,6.71-3.12,17.86,3.69,27.46,3.87,32.47-1.42,11.43-1.94,22.02,0,30.24,0,30.24c0,0,6.11,3.35,11.66-.26,0,0,4.51-40.59,6.13-51.1,1.62-10.5,1.41-49.29,1.41-49.29l-18.03-1.93Z" style="fill: none; stroke-width: 0px;"></path>
    </clipPath>
    <clipPath id="clippath-30">
      <path class="cls-73" d="M652.39,225.71s-3.12,6.71-3.12,17.86,3.69,27.46,3.87,32.47-1.42,11.43-1.94,22.02,0,30.24,0,30.24c0,0,6.11,3.35,11.66-.26,0,0,4.51-40.59,6.13-51.1,1.62-10.5,1.41-49.29,1.41-49.29l-18.03-1.93Z" style="fill: none; stroke-width: 0px;"></path>
    </clipPath>
    <clipPath id="clippath-31">
      <path class="cls-73" d="M666.92,173.06c-7.69,0-14.86,3.56-18.48,10.4-3.62,6.84,3.56,19.96,3.9,26.84.34,6.87-.42,13.09-1.24,17.18-.82,4.09,8.79,7.29,16.42,7.29,7.63,0,15.47-4.22,16.49-7.22s-2.36-6.73-1.47-14.92c.89-8.19,3.21-24.13,3.32-28.78.11-4.65-2.23-10.78-18.94-10.78Z" style="fill: none; stroke-width: 0px;"></path>
    </clipPath>
    <clipPath id="clippath-32">
      <path class="cls-73" d="M874.58,239.91s-3.29,5.22-4.26,32.58c-.98,27.35-4.85,39.47-4.85,39.47,0,0,26.73,11.75,39.56-1.6,0,0-6.85-21.47-4.05-36.09,2.81-14.62,2.63-24.57-.47-30.84l-3.1-6.27-22.83,2.76Z" style="fill: none; stroke-width: 0px;"></path>
    </clipPath>
    <linearGradient id="_名称未設定グラデーション_4" data-name="名称未設定グラデーション 4" x1="2197.25" y1="353.03" x2="2197.25" y2="370.13" gradientTransform="translate(-1317.18 39.37) rotate(-1.4)" gradientUnits="userSpaceOnUse">
      <stop offset="0" stop-color="#e18296"></stop>
      <stop offset="1" stop-color="#f2a59c"></stop>
    </linearGradient>
    <linearGradient id="_名称未設定グラデーション_37" data-name="名称未設定グラデーション 37" x1="2217.64" y1="178.89" x2="2217.64" y2="267.93" gradientTransform="translate(-1317.18 39.37) rotate(-1.4)" gradientUnits="userSpaceOnUse">
      <stop offset="0" stop-color="#e16d96"></stop>
      <stop offset="1" stop-color="#f2a59c"></stop>
    </linearGradient>
    <clipPath id="clippath-33">
      <path class="cls-73" d="M893.65,166.6s-2.66-3-7.09-2.12-8.73,5.22-9.77,8.72-.52,10.08,3.22,11.29c3.74,1.2,8.62,5.79,8.14,10.71-.49,4.91-1.19,30.83,5.37,36.6,6.56,5.77,7.63,11.38,15.17,18.28,7.54,6.9,23.62-.5,25.05-13.64,1.43-13.14-3.11-17.01-11.16-21.14-8.06-4.13-2.49-15.53-6.2-19.22s-8.47-2.06-12.45-6.87c-3.98-4.82-3.21-8.47-2.92-13.41.29-4.94-1.75-9.77-7.36-9.17Z" style="fill: none; stroke-width: 0px;"></path>
    </clipPath>
    <linearGradient id="_名称未設定グラデーション_4-2" data-name="名称未設定グラデーション 4" x1="2220.48" y1="193.29" x2="2220.48" y2="277.66" xlink:href="#_名称未設定グラデーション_4"></linearGradient>
    <clipPath id="clippath-34">
      <path class="cls-73" d="M888.16,195.51c7.58.39,14.74,4.81,15,8.43s-6.59,15.36-7.6,19.46,6.01,16.33,5.54,17.65-6.68,5.67-15.75,5.9-13.03-4.98-12.51-6.35,3.29-13.32,3.65-17.11c.36-3.79-4.12-4.35-4.29-9.14-.17-4.79,2-12.75,5.66-16.25,2.73-2.6,5.19-2.86,10.3-2.6Z" style="fill: none; stroke-width: 0px;"></path>
    </clipPath>
    <linearGradient id="_名称未設定グラデーション_37-2" data-name="名称未設定グラデーション 37" x1="2200.72" y1="181.77" x2="2200.72" y2="197.72" xlink:href="#_名称未設定グラデーション_37"></linearGradient>
    <clipPath id="clippath-35">
      <path class="cls-73" d="M622.37,342.88s-5.68,3.1-6.53,14.28c-.85,11.18,4.41,22.56,4.21,27.6s-.24,8.52-1.57,19.09c-1.33,10.57-2.3,30.33-2.3,30.33,0,0,5.87,3.83,11.72.63,0,0,6.32-35.5,8.75-45.91,2.42-10.41-1.19-42.78-1.19-42.78l-13.09-3.24Z" style="fill: none; stroke-width: 0px;"></path>
    </clipPath>
    <clipPath id="clippath-36">
      <path class="cls-73" d="M631.86,346.37s-2.89,6.86-2.49,18.07c.4,11.21,4.51,22.19,4.88,27.22.37,5.03-1.01,11.54-1.15,22.2-.14,10.66,1.1,30.4,1.1,30.4,0,0,6.26,3.15,11.72-.68,0,0,3.06-40.97,4.31-51.59,1.24-10.62-.18-44.32-.18-44.32l-18.2-1.29Z" style="fill: none; stroke-width: 0px;"></path>
    </clipPath>
    <clipPath id="clippath-38">
      <path class="cls-73" d="M629.38,290.21c7.72-.35,15.09,2.9,19.04,9.61,3.95,6.71-2.68,20.22-2.71,27.14-.03,6.92,1.01,13.14,2.02,17.21s-8.5,7.72-16.17,8.07-15.73-3.55-16.9-6.51c-1.16-2.97,2.07-6.87.81-15.06-1.26-8.19-4.32-24.11-4.64-28.77-.32-4.67,1.75-10.93,18.54-11.69Z" style="fill: none; stroke-width: 0px;"></path>
    </clipPath>
    <clipPath id="clippath-39">
      <path class="cls-73" d="M847.05,261.38l-147.01,84.87c-3.41,1.97-7.67-.49-7.67-4.43v-105.7s157.21-90.76,157.21-90.76v111.64c0,1.81-.97,3.48-2.53,4.39Z" style="fill: none; stroke-width: 0px;"></path>
    </clipPath>
    <linearGradient id="_名称未設定グラデーション_18" data-name="名称未設定グラデーション 18" x1="710.77" y1="267.65" x2="754.06" y2="288.99" gradientUnits="userSpaceOnUse">
      <stop offset="0" stop-color="#95a6d4"></stop>
      <stop offset="0.51" stop-color="#afcdeb"></stop>
      <stop offset="1" stop-color="#ffcdeb"></stop>
    </linearGradient>
    <clipPath id="clippath-40">
      <path class="cls-73" d="M858.56,133.68l-84.79,48.96c-1.97,1.14-4.42-.28-4.42-2.55v-60.97s90.68-52.35,90.68-52.35v64.39c0,1.04-.56,2.01-1.46,2.53Z" style="fill: none; stroke-width: 0px;"></path>
    </clipPath>
    <clipPath id="clippath-41">
      <path class="cls-4" d="M806.62,121.01c0,3.85-2.34,8.33-5.23,9.99s-5.23-.1-5.23-3.95c0-3.85,2.34-8.33,5.23-9.99s5.23.1,5.23,3.95Z" style="fill: rgb(225, 229, 243); mix-blend-mode: multiply; stroke-width: 0px;"></path>
    </clipPath>
    <linearGradient id="_名称未設定グラデーション_27" data-name="名称未設定グラデーション 27" x1="603.08" y1="-367.41" x2="637.57" y2="-367.41" gradientTransform="translate(254.06 892.45) rotate(-30) skewX(-30)" gradientUnits="userSpaceOnUse">
      <stop offset="0" stop-color="#95a6d4"></stop>
      <stop offset="1" stop-color="#afcdeb"></stop>
    </linearGradient>
    <linearGradient id="_名称未設定グラデーション_4-3" data-name="名称未設定グラデーション 4" x1="-27.51" y1="423.64" x2="-27.51" y2="436.84" gradientTransform="translate(781.95 17.21) rotate(-2.1)" xlink:href="#_名称未設定グラデーション_4"></linearGradient>
    <clipPath id="clippath-42">
      <path class="cls-73" d="M756.2,347.2s-3.36,5.49-4.03,34.02c-.67,28.53-4.56,41.21-4.56,41.21,0,0,28.02,11.9,41.23-2.17,0,0-7.42-22.3-4.68-37.57,2.74-15.28,2.43-25.65-.88-32.15l-3.31-6.5-23.77,3.16Z" style="fill: none; stroke-width: 0px;"></path>
    </clipPath>
    <linearGradient id="_名称未設定グラデーション_4-4" data-name="名称未設定グラデーション 4" x1="625.72" y1="277.19" x2="625.72" y2="293.83" gradientTransform="translate(1405.21 17.21) rotate(-177.9) scale(1 -1)" xlink:href="#_名称未設定グラデーション_4"></linearGradient>
    <linearGradient id="_名称未設定グラデーション_4-5" data-name="名称未設定グラデーション 4" x1="160.44" y1="348.29" x2="160.44" y2="348.29" gradientTransform="translate(608.73 17.21) rotate(-2.1)" xlink:href="#_名称未設定グラデーション_4"></linearGradient>
    <linearGradient id="_名称未設定グラデーション_3" data-name="名称未設定グラデーション 3" x1="158.86" y1="256.86" x2="158.86" y2="315.02" gradientTransform="translate(608.73 17.21) rotate(-2.1)" gradientUnits="userSpaceOnUse">
      <stop offset="0" stop-color="#e18d43"></stop>
      <stop offset="1" stop-color="#ffec7e"></stop>
    </linearGradient>
    <clipPath id="clippath-44">
      <path class="cls-73" d="M315.73,879.34s4.13,6.55,5.35,40.88c1.22,34.32,6.09,49.52,6.09,49.52,0,0-33.54,14.74-49.64-2.01,0,0,8.6-26.94,5.08-45.28-3.52-18.34-3.31-30.83.58-38.7l3.89-7.87,28.65,3.46Z" style="fill: none; stroke-width: 0px;"></path>
    </clipPath>
    <linearGradient id="_名称未設定グラデーション_4-6" data-name="名称未設定グラデーション 4" x1="1566.02" y1="1002.33" x2="1566.02" y2="1023.78" gradientTransform="translate(1888.9 39.37) rotate(-178.6) scale(1 -1)" xlink:href="#_名称未設定グラデーション_4"></linearGradient>
    <linearGradient id="_名称未設定グラデーション_37-3" data-name="名称未設定グラデーション 37" x1="1591.6" y1="783.83" x2="1591.6" y2="896.64" gradientTransform="translate(1888.9 39.37) rotate(-178.6) scale(1 -1)" xlink:href="#_名称未設定グラデーション_37"></linearGradient>
    <clipPath id="clippath-45">
      <path class="cls-73" d="M291.8,787.37s3.34-3.76,8.89-2.66c5.55,1.1,10.96,6.55,12.25,10.94s.65,12.65-4.04,14.16c-4.69,1.51-10.82,7.27-10.21,13.43s1.49,38.68-6.74,45.92c-8.23,7.24,1.54,15.86-7.92,24.52-9.46,8.66-40.74-2.22-42.54-18.71-1.8-16.49,3.9-21.34,14.01-26.52,10.11-5.18,0-16.15,7.78-24.12,4.59-4.7,8.27-4.31,13.26-10.35,4.99-6.04,6.39-8.9,6.03-15.1-.36-6.2,2.2-12.26,9.23-11.51Z" style="fill: none; stroke-width: 0px;"></path>
    </clipPath>
    <linearGradient id="_名称未設定グラデーション_4-7" data-name="名称未設定グラデーション 4" x1="1595.16" y1="801.9" x2="1595.16" y2="907.76" gradientTransform="translate(1888.9 39.37) rotate(-178.6) scale(1 -1)" xlink:href="#_名称未設定グラデーション_4"></linearGradient>
    <clipPath id="clippath-46">
      <path class="cls-73" d="M298.69,823.63c-9.51.49-18.5,6.04-18.82,10.58-.32,4.54,8.27,19.27,9.54,24.42s-7.54,20.49-6.95,22.15c.59,1.66,8.39,7.12,19.76,7.4,11.38.28,16.35-6.25,15.69-7.97s-4.13-16.71-4.58-21.46c-.45-4.76,5.17-5.46,5.38-11.46.21-6-2.51-16-7.11-20.39-3.42-3.27-6.52-3.59-12.92-3.26Z" style="fill: none; stroke-width: 0px;"></path>
    </clipPath>
    <linearGradient id="_名称未設定グラデーション_37-4" data-name="名称未設定グラデーション 37" x1="1570.37" y1="787.44" x2="1570.37" y2="807.45" gradientTransform="translate(1888.9 39.37) rotate(-178.6) scale(1 -1)" xlink:href="#_名称未設定グラデーション_37"></linearGradient>
    <clipPath id="clippath-47">
      <path class="cls-73" d="M319.41,714.64v23.26c0,6.51,10.03,11.79,22.41,11.79s22.41-5.28,22.41-11.79v-23.26h-44.82Z" style="fill: none; stroke-width: 0px;"></path>
    </clipPath>
    <clipPath id="clippath-48">
      <path class="cls-73" d="M341.81,579.01c-48.26,0-51.4,47.58-41.15,69.6,13.72,29.46,24.38,64.01,24.38,64.01,0,4.87,7.51,8.82,16.77,8.82s16.77-3.95,16.77-8.82c0,0,0-.02,0-.03.18-.59,10.78-34.78,24.38-63.98,10.25-22.01,7.11-69.6-41.15-69.6Z" style="fill: none; stroke-width: 0px;"></path>
    </clipPath>
    <linearGradient id="_名称未設定グラデーション_5" data-name="名称未設定グラデーション 5" x1="1097.38" y1="1093.65" x2="1097.38" y2="1080.09" gradientUnits="userSpaceOnUse">
      <stop offset="0" stop-color="#fff" stop-opacity="0"></stop>
      <stop offset="1" stop-color="#e2e6f4"></stop>
    </linearGradient>
    <linearGradient id="_名称未設定グラデーション_5-2" data-name="名称未設定グラデーション 5" x1="1128.21" y1="1089.44" x2="1128.21" y2="1062.33" xlink:href="#_名称未設定グラデーション_5"></linearGradient>
    <linearGradient id="_名称未設定グラデーション_5-3" data-name="名称未設定グラデーション 5" x1="1189.87" y1="1090.36" x2="1189.87" y2="1026.81" xlink:href="#_名称未設定グラデーション_5"></linearGradient>
    <linearGradient id="_名称未設定グラデーション_5-4" data-name="名称未設定グラデーション 5" x1="1220.7" y1="1080.09" x2="1220.7" y2="1009.05" xlink:href="#_名称未設定グラデーション_5"></linearGradient>
    <linearGradient id="_名称未設定グラデーション_5-5" data-name="名称未設定グラデーション 5" x1="1251.53" y1="1062.33" x2="1251.53" y2="991.29" xlink:href="#_名称未設定グラデーション_5"></linearGradient>
    <linearGradient id="_名称未設定グラデーション_5-6" data-name="名称未設定グラデーション 5" x1="1159.04" y1="1088.03" x2="1159.04" y2="1044.57" xlink:href="#_名称未設定グラデーション_5"></linearGradient>
    <linearGradient id="_名称未設定グラデーション_4-8" data-name="名称未設定グラデーション 4" x1="832.16" y1="2751.95" x2="832.16" y2="2760.62" gradientTransform="translate(-1490.13 1570.7) rotate(-83.86)" xlink:href="#_名称未設定グラデーション_4"></linearGradient>
    <linearGradient id="_名称未設定グラデーション_4-9" data-name="名称未設定グラデーション 4" x1="832.16" y1="2751.95" x2="832.16" y2="2760.62" gradientTransform="translate(-1490.13 1570.7) rotate(-83.86)" xlink:href="#_名称未設定グラデーション_4"></linearGradient>
    <linearGradient id="_名称未設定グラデーション_4-10" data-name="名称未設定グラデーション 4" x1="2507.57" y1="1136.77" x2="2507.57" y2="1145.44" gradientTransform="translate(-1260.3 17.21) rotate(-2.1)" xlink:href="#_名称未設定グラデーション_4"></linearGradient>
    <clipPath id="clippath-58">
      <path class="cls-73" d="M1286.26,994.16s-2.21,3.61-2.65,22.36c-.44,18.76,2.63,29.87,2.63,29.87,0,0,30.56-10.4,39.24-19.66,0,0-22.64.79-20.84-9.25,1.8-10.04,1.6-16.86-.58-21.13l-2.18-4.27-15.63,2.08Z" style="fill: none; stroke-width: 0px;"></path>
    </clipPath>
    <linearGradient id="_名称未設定グラデーション_4-11" data-name="名称未設定グラデーション 4" x1="-1964.94" y1="855.47" x2="-1964.94" y2="866.4" gradientTransform="translate(-637.05 17.21) rotate(-177.9) scale(1 -1)" xlink:href="#_名称未設定グラデーション_4"></linearGradient>
    <linearGradient id="_名称未設定グラデーション_4-12" data-name="名称未設定グラデーション 4" x1="2703.03" y1="1024.65" x2="2703.03" y2="1086.42" gradientTransform="translate(-1433.52 17.21) rotate(-2.1)" xlink:href="#_名称未設定グラデーション_4"></linearGradient>
    <clipPath id="clippath-60">
      <path class="cls-73" d="M1298.61,943.27s-1.68-1.03-4.77-.91c-5.36.22-8,4.97-7.44,7.41.8,3.51,2.14,3.71,3.7,3.99,2.65.46,2.56,4.63.63,7.41-2.87,4.13,1.07,11.98,7.74,16.37,5,3.29-6.67,18.39,4.66,24.63,6.14,3.38,22.27.71,23.14-8.31.87-9.02-4.03-12.43-9.59-15.2-5.56-2.76-.77-11.59-4.86-15.39-2.63-2.44-4.78-1.45-7.54-4.72-2.77-3.27-.59-5.18-.44-8.57s-2.44-7.04-5.23-6.71Z" style="fill: none; stroke-width: 0px;"></path>
    </clipPath>
    <linearGradient id="_名称未設定グラデーション_4-13" data-name="名称未設定グラデーション 4" x1="2878.57" y1="956.23" x2="2876.52" y2="1012.19" gradientTransform="translate(-1574.41)" xlink:href="#_名称未設定グラデーション_4"></linearGradient>
    <clipPath id="clippath-61">
      <path class="cls-73" d="M1242.7,1013.91s1.89,5.09,1.23,13.25c-.66,8.16-15.19,19.4-15.63,23.05s3.81,8.76,4.04,17.92c.19,7.78,2.56,20.8,2.56,20.8,0,0-4.67,2.09-8.52-.88,0,0-9.18-30.34-9.74-38.12-.56-7.78,12.75-35.67,12.75-35.67l13.31-.35Z" style="fill: none; stroke-width: 0px;"></path>
    </clipPath>
    <linearGradient id="_名称未設定グラデーション_6" data-name="名称未設定グラデーション 6" x1="785.2" y1="674.64" x2="848.71" y2="674.64" gradientTransform="translate(1666.31) rotate(-180) scale(1 -1)" gradientUnits="userSpaceOnUse">
      <stop offset="0" stop-color="#6167aa"></stop>
      <stop offset="1" stop-color="#778acd"></stop>
    </linearGradient>
    <linearGradient id="_名称未設定グラデーション_16" data-name="名称未設定グラデーション 16" x1="812.77" y1="555.96" x2="812.77" y2="643.94" gradientTransform="translate(1666.31) rotate(-180) scale(1 -1)" gradientUnits="userSpaceOnUse">
      <stop offset="0" stop-color="#e86380"></stop>
      <stop offset="1" stop-color="#f0a39a"></stop>
    </linearGradient>
    <clipPath id="clippath-62">
      <path class="cls-73" d="M863.04,590.85c-8.05,1.96-17.46,10.43-19.21,13.26-1.76,2.83,11.91,24.22,14.15,28.9,2.24,4.68-3.52,28.54-2.84,29.71s11.7,5.17,21.65,3.02c9.95-2.15,14.33-6.34,14.14-7.41s-7.51-21.4-7.51-24.61,2.08-16.5,1.59-21.37-6.95-18.86-10.95-20.62-7.41-1.76-11.02-.88Z" style="fill: none; stroke-width: 0px;"></path>
    </clipPath>
    <clipPath id="clippath-64">
      <path class="cls-73" d="M978.23,573.65c0-8.56-29.36-33.68-26-45.03,9.09-30.73,60.29-50.56,83.47-50.56,31.74,0,57.46,63.85,57.46,95.59s-25.73,57.46-57.46,57.46-57.46-25.73-57.46-57.46Z" style="fill: none; stroke-width: 0px;"></path>
    </clipPath>
    <clipPath id="clippath-65">
      <path class="cls-73" d="M1033.09,585.04s6.3,4.08,6.3,17.1-7.09,25.71-7.31,31.56c-.22,5.84-.48,9.88.13,22.23s0,35.29,0,35.29c0,0-7.13,3.91-13.61-.3,0,0-4.19-41.62-6.07-53.88-1.89-12.26,5.15-49.39,5.15-49.39l15.43-2.6Z" style="fill: none; stroke-width: 0px;"></path>
    </clipPath>
    <clipPath id="clippath-66">
      <path class="cls-73" d="M1051.51,591.04s3.64,7.83,3.64,20.84c0,13.01-4.3,25.92-4.52,31.76-.22,5.84,1.65,13.34,2.26,25.7.61,12.35,0,35.29,0,35.29,0,0-7.13,3.91-13.61-.3,0,0-5.27-47.38-7.15-59.64s-1.65-51.39-1.65-51.39l21.04-2.26Z" style="fill: none; stroke-width: 0px;"></path>
    </clipPath>
    <clipPath id="clippath-67">
      <path class="cls-73" d="M1034.62,528.08c8.97,0,17.35,4.15,21.57,12.14s-4.15,23.3-4.55,31.32c-.4,8.02.49,15.28,1.44,20.05.95,4.77-10.26,8.51-19.17,8.51-8.91,0-18.05-4.93-19.25-8.43-1.19-3.5,2.75-7.85,1.72-17.42-1.03-9.56-3.75-28.17-3.88-33.59-.13-5.43,2.6-12.58,22.1-12.58Z" style="fill: none; stroke-width: 0px;"></path>
    </clipPath>
    <clipPath id="clippath-69">
      <path class="cls-73" d="M579.56,613.73c13.71.82,23.11,9.91,25.28,13.21,2.16,3.3-1.82,21.63-3.64,28.01s-3.07,32.91-3.07,32.91c0,0-10.25,1.02-17.19-.11-6.95-1.14-15.14-8.77-15.14-8.77,0,0-3.99-24.25-4.1-34.84s-.34-22.09,2.62-26.64c2.96-4.55,9.56-4.1,15.26-3.76Z" style="fill: none; stroke-width: 0px;"></path>
    </clipPath>
    <clipPath id="clippath-70">
      <path class="cls-73" d="M538.82,979.31s-6.68,3.2-8.32,15.94c-1.64,12.73,8.42,28.94,7.9,34.69-.52,5.75-5.54,22.71-7.69,34.72-2.15,12.01-3.34,17.47-3.34,17.47,0,0,6.48,4.73,13.36,1.42,0,0,13.01-36.13,16.4-47.89,3.39-11.76-3.54-51.87-3.54-51.87l-14.77-4.48Z" style="fill: none; stroke-width: 0px;"></path>
    </clipPath>
    <clipPath id="clippath-71">
      <path class="cls-73" d="M548.21,983.56s-3.33,7.84-2.9,20.67c.43,12.83,9.83,28.3,10.24,34.06.41,5.76-2.14,16.37-2.33,28.56-.19,12.2,1.18,34.8,1.18,34.8,0,0,7.16,3.62,13.41-.75,0,0,4.57-50.04,6.03-62.19,1.45-12.15-4.81-53.62-4.81-53.62l-20.82-1.53Z" style="fill: none; stroke-width: 0px;"></path>
    </clipPath>
    <clipPath id="clippath-72">
      <path class="cls-73" d="M572.03,923.38c8.39,2.81,14.93,9.32,16.38,18.11,1.45,8.8-11.19,20.49-14.07,27.87s-4.33,14.45-4.93,19.21-12.26,4.75-20.6,1.96c-8.33-2.79-15.34-10.27-15.36-13.92-.02-3.65,5.04-6.49,7.06-15.75,2.03-9.27,5.32-27.52,6.9-32.64,1.58-5.12,6.37-10.95,24.62-4.84Z" style="fill: none; stroke-width: 0px;"></path>
    </clipPath>
    <clipPath id="clippath-74">
      <path class="cls-73" d="M732.94,972.01l123.72,71.82c2.87,1.67,6.47-.4,6.47-3.72l.21-89.08-132.31-76.81-.22,94.08c0,1.52.81,2.94,2.13,3.7Z" style="fill: none; stroke-width: 0px;"></path>
    </clipPath>
    <linearGradient id="_名称未設定グラデーション_27-2" data-name="名称未設定グラデーション 27" x1="671.65" y1="401.35" x2="722.03" y2="401.35" gradientTransform="translate(1434.91 894.27) rotate(-149.86) scale(1 -1) skewX(-30)" xlink:href="#_名称未設定グラデーション_27"></linearGradient>
    <clipPath id="clippath-75">
      <path class="cls-73" d="M812.38,947.46l97.96,56.87c2.27,1.32,5.12-.32,5.13-2.94l.17-70.53-104.76-60.82-.18,74.49c0,1.21.64,2.32,1.68,2.93Z" style="fill: none; stroke-width: 0px;"></path>
    </clipPath>
    <linearGradient id="_名称未設定グラデーション_18-2" data-name="名称未設定グラデーション 18" x1="766.14" y1="956.32" x2="807.71" y2="976.81" gradientTransform="translate(1691.11 2.42) rotate(-179.86) scale(1 -1)" xlink:href="#_名称未設定グラデーション_18"></linearGradient>
    <clipPath id="clippath-76">
      <path class="cls-4" d="M823.65,908.77c-.01,5.63,3.39,12.17,7.61,14.62,4.21,2.45,7.64-.13,7.66-5.76.01-5.63-3.39-12.17-7.61-14.62-4.21-2.45-7.64.13-7.66,5.76Z" style="fill: rgb(225, 229, 243); mix-blend-mode: multiply; stroke-width: 0px;"></path>
    </clipPath>
  </defs>
  <g class="cls-221" style="isolation: isolate;" transform="matrix(1, 0, 0, 1, -363.263092, -354.664185)">
    <g id="_レイヤー_1" data-name="レイヤー 1">
      <g transform="matrix(1, 0, 0, 1, -600.796997, -395.883911)">
        <ellipse class="cls-67" cx="1212.8" cy="1063.27" rx="177.65" ry="74.43" style="fill: rgb(226, 230, 244); stroke-width: 0px;"></ellipse>
        <g>
          <g>
            <g>
              <rect class="cls-177" x="1079.6" y="1080.09" width="35.56" height="13.56" style="fill: url(#_名称未設定グラデーション_5); mix-blend-mode: multiply; stroke-width: 0px;"></rect>
              <rect class="cls-25" x="1110.43" y="1062.33" width="35.56" height="27.11" style="fill: url(#_名称未設定グラデーション_5-2); mix-blend-mode: multiply; stroke-width: 0px;"></rect>
              <rect class="cls-97" x="1172.09" y="1026.81" width="35.56" height="63.55" style="fill: url(#_名称未設定グラデーション_5-3); mix-blend-mode: multiply; stroke-width: 0px;"></rect>
              <rect class="cls-16" x="1202.92" y="1009.05" width="35.56" height="71.04" style="fill: url(#_名称未設定グラデーション_5-4); mix-blend-mode: multiply; stroke-width: 0px;"></rect>
              <rect class="cls-52" x="1233.75" y="991.29" width="35.56" height="71.04" style="fill: url(#_名称未設定グラデーション_5-5); mix-blend-mode: multiply; stroke-width: 0px;"></rect>
              <g>
                <polygon class="cls-149" points="1269.31 840.09 1269.31 991.29 1251.53 1001.55 1251.53 829.83 1269.31 840.09" style="fill: rgb(242, 179, 117); stroke-width: 0px;"></polygon>
                <polygon class="cls-68" points="1233.75 840.09 1233.75 991.29 1251.53 1001.55 1251.53 829.83 1233.75 840.09" style="fill: rgb(244, 159, 81); stroke-width: 0px;"></polygon>
                <polygon class="cls-39" points="1251.53 829.83 1233.75 840.09 1251.53 850.36 1269.31 840.09 1251.53 829.83" style="fill: rgb(247, 212, 161); stroke-width: 0px;"></polygon>
              </g>
              <rect class="cls-114" x="1141.26" y="1044.57" width="35.56" height="43.46" style="fill: url(#_名称未設定グラデーション_5-6); mix-blend-mode: multiply; stroke-width: 0px;"></rect>
              <g>
                <polygon class="cls-149" points="1238.48 880.73 1238.48 1009.05 1220.7 1019.31 1220.7 870.46 1238.48 880.73" style="fill: rgb(242, 179, 117); stroke-width: 0px;"></polygon>
                <polygon class="cls-68" points="1202.92 880.73 1202.92 1009.05 1220.7 1019.31 1220.7 870.46 1202.92 880.73" style="fill: rgb(244, 159, 81); stroke-width: 0px;"></polygon>
                <polygon class="cls-39" points="1220.7 870.46 1202.92 880.73 1220.7 890.99 1238.48 880.73 1220.7 870.46" style="fill: rgb(247, 212, 161); stroke-width: 0px;"></polygon>
              </g>
              <g>
                <line class="cls-126" x1="1207.65" y1="1026.81" x2="1189.87" y2="1037.07" style="fill: rgb(208, 215, 234); stroke-width: 0px;"></line>
                <line class="cls-180" x1="1172.09" y1="1026.81" x2="1189.87" y2="1037.07" style="fill: rgb(163, 177, 216); stroke-width: 0px;"></line>
              </g>
              <polyline class="cls-149" points="1189.87 1037.07 1189.87 917.73 1207.65 927.99 1207.65 1026.81" style="fill: rgb(242, 179, 117); stroke-width: 0px;"></polyline>
              <polyline class="cls-73" points="1189.87 1037.07 1189.87 917.73 1207.65 927.99 1207.65 1026.81" style="fill: none; stroke-width: 0px;"></polyline>
              <polyline class="cls-68" points="1189.87 1037.07 1189.87 917.73 1172.09 927.99 1172.09 1026.81" style="fill: rgb(244, 159, 81); stroke-width: 0px;"></polyline>
              <polyline class="cls-73" points="1189.87 1037.07 1189.87 917.73 1172.09 927.99 1172.09 1026.81" style="fill: none; stroke-width: 0px;"></polyline>
              <polygon class="cls-219" points="1189.87 917.73 1172.09 927.99 1189.87 938.26 1207.65 927.99 1189.87 917.73" style="fill: rgb(247, 212, 161);"></polygon>
              <g>
                <polyline class="cls-149" points="1159.04 1054.83 1159.04 958.83 1176.82 969.1 1176.82 1044.57" style="fill: rgb(242, 179, 117); stroke-width: 0px;"></polyline>
                <polyline class="cls-68" points="1159.04 1054.83 1159.04 958.83 1141.26 969.1 1141.26 1044.57" style="fill: rgb(244, 159, 81); stroke-width: 0px;"></polyline>
                <polygon class="cls-39" points="1159.04 958.83 1141.26 969.1 1159.04 979.37 1176.82 969.1 1159.04 958.83" style="fill: rgb(247, 212, 161); stroke-width: 0px;"></polygon>
              </g>
              <g>
                <polyline class="cls-149" points="1128.21 1072.59 1128.21 992.61 1145.99 1002.87 1145.99 1062.33" style="fill: rgb(242, 179, 117); stroke-width: 0px;"></polyline>
                <polyline class="cls-68" points="1128.21 1072.59 1128.21 992.61 1110.43 1002.87 1110.43 1062.33" style="fill: rgb(244, 159, 81); stroke-width: 0px;"></polyline>
                <polygon class="cls-39" points="1128.21 992.61 1110.43 1002.87 1128.21 1013.14 1145.99 1002.87 1128.21 992.61" style="fill: rgb(247, 212, 161); stroke-width: 0px;"></polygon>
              </g>
              <polyline class="cls-149" points="1097.38 1090.36 1097.38 1030.63 1115.16 1040.89 1115.16 1080.09" style="fill: rgb(242, 179, 117); stroke-width: 0px;"></polyline>
              <polyline class="cls-68" points="1097.38 1090.36 1097.38 1030.63 1079.6 1040.89 1079.6 1080.09" style="fill: rgb(244, 159, 81); stroke-width: 0px;"></polyline>
              <polygon class="cls-39" points="1097.38 1030.63 1079.6 1040.89 1097.38 1051.16 1115.16 1040.89 1097.38 1030.63" style="fill: rgb(247, 212, 161); stroke-width: 0px;"></polygon>
            </g>
            <path class="cls-193" d="M1209.99,781.41l-49.54,61.73,24.51-4.4c-5.53,15.39-11.53,30.56-18.47,45.26-4.08,8.63-8.49,17.08-13.34,25.27-4.85,8.18-10.16,16.09-15.99,23.63-5.81,7.54-12.17,14.68-18.99,21.39-6.81,6.72-14.11,12.98-21.74,18.86-15.27,11.75-31.84,21.91-48.82,31.28,17.59-8.17,34.88-17.17,51.17-27.99,8.14-5.41,16.02-11.27,23.49-17.67,7.47-6.39,14.55-13.3,21.11-20.69,6.57-7.38,12.66-15.21,18.28-23.34,5.62-8.13,10.79-16.56,15.62-25.16,8.3-14.82,15.6-30.11,22.39-45.56l16.06,19.22-5.73-81.84Z" style="fill: rgb(244, 94, 81); stroke-width: 0px;"></path>
          </g>
          <g>
            <g>
              <path class="cls-155" d="M1269.26,942.45c-.23-.68-1.95-4.12-3.3-2.42-1.08,1.37-2.99.47-2.2,2.75.5,1.42,1.81,3.4,2.81,4s2.04,2.62,2.04,2.62l2.54-1.99s-.23-.09-.31-.9-.71-1.33-.68-2.34c.03-1.42-.92-1.72-.92-1.72Z" style="fill: rgb(248, 203, 188); stroke-width: 0px;"></path>
              <path class="cls-155" d="M1265.15,944.28s-3.8-3.98-3.48-4.35,3.94,3.18,3.94,3.18l-.47,1.17Z" style="fill: rgb(248, 203, 188); stroke-width: 0px;"></path>
              <path class="cls-155" d="M1264.87,942.39s-3.32-4.32-2.97-4.66,3.68,3.48,3.68,3.48l-.71,1.18Z" style="fill: rgb(248, 203, 188); stroke-width: 0px;"></path>
              <path class="cls-155" d="M1265.7,941.46s-2.73-4.77-2.33-5.06,3.06,4.04,3.06,4.04l-.73,1.02Z" style="fill: rgb(248, 203, 188); stroke-width: 0px;"></path>
              <path class="cls-155" d="M1266.99,941.45s-1.95-5.14-1.51-5.36,2.65,4.38,2.65,4.38l-1.14.98Z" style="fill: rgb(248, 203, 188); stroke-width: 0px;"></path>
              <path class="cls-155" d="M1268.64,944.98c1.3-1.4,1.32-1.07,1.64-2.03s.26-2.92.23-3.87-.63-.48-.87.1-1.01,2.56-1.01,2.56v3.24Z" style="fill: rgb(248, 203, 188); stroke-width: 0px;"></path>
            </g>
            <path class="cls-77" d="M1294.52,971.11s.84-3,3.81-6.44c2.97-3.44,4.94-7.57,6.65-8.37,2.81-1.3,4.74,2.01,4.63,3.45s-5.01,9.52-6.47,10.6c-1.46,1.08-7.08,4.03-8.62.75Z" style="fill: rgb(97, 103, 173); stroke-width: 0px;"></path>
            <g>
              <path class="cls-155" d="M1307.76,938.55c0-.72.51-4.53,2.33-3.36,1.47.94,2.98-.53,2.97,1.88,0,1.5-.61,3.81-1.36,4.7s-1.08,3.14-1.08,3.14l-3.05-1.06s.19-.16,0-.95.23-1.49-.12-2.43c-.49-1.33.31-1.93.31-1.93Z" style="fill: rgb(248, 203, 188); stroke-width: 0px;"></path>
              <path class="cls-155" d="M1312.24,938.94s2.3-4.99,1.87-5.24-2.69,4.29-2.69,4.29l.82.95Z" style="fill: rgb(248, 203, 188); stroke-width: 0px;"></path>
              <path class="cls-155" d="M1311.89,937.07s1.73-5.16,1.29-5.37-2.35,4.49-2.35,4.49l1.06.89Z" style="fill: rgb(248, 203, 188); stroke-width: 0px;"></path>
              <path class="cls-155" d="M1310.8,936.46s1.03-5.4.56-5.54-1.58,4.81-1.58,4.81l1.03.73Z" style="fill: rgb(248, 203, 188); stroke-width: 0px;"></path>
              <path class="cls-155" d="M1309.58,936.87s.17-5.5-.32-5.56-1.08,5-1.08,5l1.4.56Z" style="fill: rgb(248, 203, 188); stroke-width: 0px;"></path>
              <path class="cls-155" d="M1309.17,940.74c-1.68-.9-1.6-.59-2.21-1.39s-1.2-2.67-1.48-3.58.44-.66.86-.19,1.79,2.09,1.79,2.09l1.04,3.07Z" style="fill: rgb(248, 203, 188); stroke-width: 0px;"></path>
            </g>
            <path class="cls-77" d="M1311.4,943.58c.21,3.36-.58,11.69-1.11,14.48-.52,2.79-2.02,3.96-3.03,4.2s-4.21,0-3.89-5.06c.33-5.06,4.21-14.58,4.21-14.58,0,0,.52-.26,1.79-.11s2.02,1.07,2.02,1.07Z" style="fill: rgb(97, 103, 173); stroke-width: 0px;"></path>
            <g>
              <path class="cls-155" d="M1334.89,1030.66s-12.65-1.4-19.26-2.91c-6.61-1.51-17.77-1.07-17.77-1.07l-.16,5.45s29.57,1.5,36,2.76c6.43,1.25,1.19-4.23,1.19-4.23Z" style="fill: rgb(248, 203, 188); stroke-width: 0px;"></path>
              <path class="cls-155" d="M1333.44,1030.5s2.32.48,3.69.09c.91-.26,1.41.74,1.85,1.28.97,1.19.92,1.33,2.24,2.32s1.42,4,.66,6.23c-.76,2.22-1.6,3.78-2.58,2.73s-.64-3.96-2.3-5.66c-1.44-1.48-3.28-2.59-3.28-2.59l-.26-4.4Z" style="fill: rgb(248, 203, 188); stroke-width: 0px;"></path>
              <path class="cls-69" d="M1338.21,1040.24s.36,2.71.73,3.93,1.71,1.71,2.36,1.22,1.95-3.13,2.29-6.75c.17-1.8-.5-3.81-1.57-4.48s-1.91-1.83-1.33-2.1,2.15.04,2.15.04c0,0,.39-.95.06-1.32,0,0-2.34-.06-3.47-.37s-3.66.17-3.66.17c0,0-.62,1.68,1.24,2.82,1.04.64,1.59.84,2.3,2.12.71,1.28.88,2.61.59,3.62-.11.38-.7,1.26-1.7,1.1Z" style="fill: url(#_名称未設定グラデーション_4-8); stroke-width: 0px;"></path>
              <path class="cls-90" d="M1338.21,1040.24s.36,2.71.73,3.93,1.71,1.71,2.36,1.22,1.95-3.13,2.29-6.75c.17-1.8-.5-3.81-1.57-4.48s-1.91-1.83-1.33-2.1,2.15.04,2.15.04c0,0,.39-.95.06-1.32,0,0-2.34-.06-3.47-.37s-3.66.17-3.66.17c0,0-.62,1.68,1.24,2.82,1.04.64,1.59.84,2.3,2.12.71,1.28.88,2.61.59,3.62-.11.38-.7,1.26-1.7,1.1Z" style="fill: url(#_名称未設定グラデーション_4-9); mix-blend-mode: multiply; opacity: 0.42; stroke-width: 0px;"></path>
            </g>
            <g>
              <path class="cls-155" d="M1293.99,1060.09s-.43-12.72.12-19.48-1.49-17.74-1.49-17.74l-5.42.62s2.75,29.48,2.43,36.02c-.32,6.54,4.36.57,4.36.57Z" style="fill: rgb(248, 203, 188); stroke-width: 0px;"></path>
              <path class="cls-155" d="M1293.95,1058.63s-.14,2.36.44,3.66c.38.86-.53,1.5-1,2.01-1.04,1.13-1.18,1.1-1.98,2.55-.8,1.45-3.76,1.98-6.07,1.54-2.31-.44-3.97-1.04-3.07-2.16.9-1.12,3.83-1.21,5.28-3.09,1.26-1.64,2.09-3.62,2.09-3.62l4.31-.89Z" style="fill: rgb(248, 203, 188); stroke-width: 0px;"></path>
              <path class="cls-130" d="M1284.99,1064.75s-2.63.75-3.79,1.29-1.44,1.93-.87,2.51,3.38,1.48,7.01,1.3c1.81-.09,3.69-1.04,4.21-2.2.51-1.15,1.54-2.16,1.89-1.61s.26,2.14.26,2.14c0,0,1,.25,1.32-.13,0,0-.27-2.32-.13-3.48s-.69-3.6-.69-3.6c0,0-1.75-.37-2.61,1.63-.48,1.12-.61,1.7-1.77,2.59s-2.46,1.24-3.5,1.1c-.39-.05-1.35-.51-1.33-1.52Z" style="fill: url(#_名称未設定グラデーション_4-10); stroke-width: 0px;"></path>
            </g>
            <path class="cls-14" d="M1286.26,994.16s-2.21,3.61-2.65,22.36c-.44,18.76,2.63,29.87,2.63,29.87,0,0,30.56-10.4,39.24-19.66,0,0-22.64.79-20.84-9.25,1.8-10.04,1.6-16.86-.58-21.13l-2.18-4.27-15.63,2.08Z" style="fill: rgb(223, 224, 224); stroke-width: 0px;"></path>
            <g class="cls-256" style="clip-path: url(#clippath-58);">
              <path class="cls-199" d="M1281.99,998.55s.65,24.87,14.26,32.9c13.61,8.03,38.19-10.6,38.19-10.6l-25.12,33.51-31.55,1.61,4.21-57.42Z" style="fill: rgb(210, 210, 211); stroke-width: 0px;"></path>
            </g>
            <path class="cls-155" d="M1297.15,959.07l-.21,5.77s-.56.86-2.29.79c-1.73-.06-2.73-.72-2.94-1.09l.22-5.99,5.22.52Z" style="fill: rgb(248, 203, 188); stroke-width: 0px;"></path>
            <path class="cls-77" d="M1301.39,965.48s3.04,2.22.09,7.03c-1.87,3.04-5.81,11.45-7.63,12.33-1.81.88-3.41-.31-3.73-1.75-.32-1.43,6.19-14.17,6.19-14.17,0,0,2.23-5.62,5.08-3.44Z" style="fill: rgb(97, 103, 173); stroke-width: 0px;"></path>
            <path class="cls-83" d="M1297.15,959.07l-.12,3.25s-.62,1.01-2.39.94-2.85-1.13-2.85-1.13l.09-2.53,5.26-.53Z" style="fill: rgb(248, 203, 188); mix-blend-mode: multiply; stroke-width: 0px;"></path>
            <rect class="cls-155" x="1288.54" y="946.58" width="10.49" height="13.83" rx="5.24" ry="5.24" transform="translate(2551.68 1953.83) rotate(-177.9)" style="fill: rgb(248, 203, 188); stroke-width: 0px;"></rect>
            <path class="cls-104" d="M1292.34,948.62s.47.86,3.25,1.95c2.78,1.09,4.59,1.44,4.59,1.44l-.12,3.34s1.37-.95,1.34-3.57c-.02-2.63-1.61-6.8-5.54-7.43-3.93-.63-4.84.95-4.84.95,0,0-2.99,1.18-2.49,3.99s1.13,3.48,1.13,3.48c0,0,2.67-.95,2.68-4.14Z" style="fill: url(#_名称未設定グラデーション_4-11); stroke-width: 0px;"></path>
            <path class="cls-77" d="M1305.84,995.93s-.01-.09-.02-.14c-.32-1.71-3.49-10.42-3.7-12.9-.22-2.6,2.86-2.95,3.02-6.23.15-3.28-1.26-8.76-3.74-11.19-.94-1.24-2.09-1.58-3.27-1.74-.35-.06-.73-.11-1.14-.13,0,0,0,0,0,0,0,0,0,0,0,0-.76-.05-1.61-.03-2.62,0-.89.04-1.77.15-2.63.33,0,0,0,0,0,0-1.41.3-2.74.77-3.88,1.35-.01,0-.02.01-.04.02-.09.05-.18.09-.27.14-.02,0-.03.02-.05.03-.09.05-.18.1-.26.15,0,0-.02,0-.02.01-.27.15-.52.31-.76.48-.02.02-.05.03-.07.05-.06.04-.12.09-.18.13-.03.02-.07.05-.1.07-.06.04-.11.08-.16.12-.04.03-.07.06-.11.08-.05.04-.1.08-.15.12-.04.03-.07.06-.11.1-.06.05-.12.1-.18.16-.06.05-.11.1-.16.15-.03.03-.06.07-.1.1-.04.04-.08.08-.12.12-.03.03-.06.07-.09.1-.04.04-.07.08-.11.12-.03.03-.05.06-.08.1-.04.04-.07.09-.1.13-.02.03-.04.06-.06.09-.04.06-.08.12-.12.17,0,.02-.02.03-.03.05-.04.07-.09.15-.12.22-.01.02-.02.05-.04.07-.02.05-.05.1-.07.15-.01.03-.02.06-.03.08-.02.05-.04.09-.05.14,0,.03-.02.05-.03.08-.01.05-.03.1-.04.15,0,.02-.01.05-.02.07-.01.07-.02.14-.03.22,0,0,0,0,0,0-.03.31.02.71.13,1.17.05.23.12.48.2.74.2.66.48,1.4.8,2.19.19.47.4.96.62,1.46.29.66.6,1.34.9,2.01.23.5.45,1,.67,1.48.15.32.29.64.42.95.61,1.39,1.11,2.6,1.29,3.39.66,2.82-6.86,14.53-6.55,15.44.1.3,1.21,1.02,2.72,1.81,1.12.66,2.42,1.32,3.62,1.65,0,0,.02,0,.06.02.08.03.15.05.23.07.83.22,3.53.78,8.49.36,6.1-.51,8.25-4.02,8.22-6.02,0-.02,0-.04,0-.06Z" style="fill: rgb(97, 103, 173); stroke-width: 0px;"></path>
            <path class="cls-77" d="M1293.66,970.88s-1.28-2.84-4.74-5.78c-3.46-2.94-6.03-6.73-7.85-7.25-2.98-.86-4.38,2.71-4.05,4.12.33,1.41,6.4,8.65,8.01,9.49s7.61,2.9,8.63-.57Z" style="fill: rgb(97, 103, 173); stroke-width: 0px;"></path>
            <path class="cls-77" d="M1293.66,970.88s-1.28-2.84-4.74-5.78c-3.46-2.94-6.03-6.73-7.85-7.25-2.98-.86-4.38,2.71-4.05,4.12.33,1.41,6.4,8.65,8.01,9.49s7.61,2.9,8.63-.57Z" style="fill: rgb(97, 103, 173); stroke-width: 0px;"></path>
            <path class="cls-197" d="M1298.61,943.27s-1.68-1.03-4.77-.91c-5.36.22-8,4.97-7.44,7.41.8,3.51,2.14,3.71,3.7,3.99,2.65.46,2.56,4.63.63,7.41-2.87,4.13,1.07,11.98,7.74,16.37,5,3.29-6.67,18.39,4.66,24.63,6.14,3.38,22.27.71,23.14-8.31.87-9.02-4.03-12.43-9.59-15.2-5.56-2.76-.77-11.59-4.86-15.39-2.63-2.44-4.78-1.45-7.54-4.72-2.77-3.27-.59-5.18-.44-8.57s-2.44-7.04-5.23-6.71Z" style="fill: url(#_名称未設定グラデーション_4-12); stroke-width: 0px;"></path>
            <path class="cls-155" d="M1290.09,953.76s1.02-2.04,2.6-1.22c1.58.81-.09,4.61-2.49,4.27l-.11-3.05Z" style="fill: rgb(248, 203, 188); stroke-width: 0px;"></path>
            <g class="cls-235" style="clip-path: url(#clippath-60);">
              <path class="cls-8" d="M1291.15,955.75s1.35-.19,1.35,5.73c0,5.93,4.9,10.09,9.53,13.68,4.64,3.59-.45,15.82,3.99,19.5,4.44,3.67,12.82,4.77,17.84,2.06,5.02-2.71,5.15-4.63,5.15-4.63l-3.46,14.9-30.63,4.94-17.31-46.04,13.52-10.13Z" style="fill: url(#_名称未設定グラデーション_4-13); mix-blend-mode: multiply; opacity: 0.24; stroke-width: 0px;"></path>
            </g>
            <path class="cls-77" d="M1268.23,948.79c1.38,3.07,5.96,10.07,7.72,12.3,1.76,2.22,3.63,2.56,4.64,2.31s4.54-.36,1.9-4.68c-2.64-4.32-11.34-12.55-11.34-12.55,0,0-.58.02-1.64.74s-1.29,1.89-1.29,1.89Z" style="fill: rgb(97, 103, 173); stroke-width: 0px;"></path>
          </g>
          <g>
            <g>
              <path class="cls-135" d="M1235.23,972.43s-.3-.18-.21-1.32c.09-1.14,1.39-1.65,1.83-3s-1.03-4.55-2.01-4.88c-.98-.33-.43.94-.45,1.88,0,0-.45-1.01-.61-2.01s-2.04-.56-4.34.29-2.83.46-2.27,3.8c.35,2.08.71,3.01,1.95,4.08,1.24,1.07,2.11,3.3,2.11,3.3l3.99-2.15Z" style="fill: rgb(243, 177, 159); stroke-width: 0px;"></path>
              <path class="cls-135" d="M1230.44,963.99s-.95-1.69-.09-2.18,1.65.46,1.93,1.22,1.4,2.97.57,3.18-1.87-1.22-2.41-2.22Z" style="fill: rgb(243, 177, 159); stroke-width: 0px;"></path>
              <path class="cls-135" d="M1228.79,964.86s-.95-1.69-.09-2.18c.86-.49,1.65.46,1.93,1.22s1.4,2.97.57,3.18-1.87-1.22-2.41-2.22Z" style="fill: rgb(243, 177, 159); stroke-width: 0px;"></path>
              <path class="cls-135" d="M1227.33,965.48s-.86-1.52-.08-1.95,1.48.41,1.73,1.1,1.26,2.66.51,2.85-1.68-1.09-2.16-1.99Z" style="fill: rgb(243, 177, 159); stroke-width: 0px;"></path>
              <path class="cls-135" d="M1231.81,963.38s.15-1.94,1.14-1.86,1.76,3.25,1.57,4.03-1.13,1.3-1.94,1.01-.88-2.05-.77-3.18Z" style="fill: rgb(243, 177, 159); stroke-width: 0px;"></path>
            </g>
            <path class="cls-77" d="M1258.33,981.61s6.81-1.59,7.97,5.51-15.62,10.93-17.93,10.88c-11.12-.27-14.69-5.63-6.76-9.04,3.64-1.57,11.77-5.42,16.72-7.35Z" style="fill: rgb(97, 103, 173); stroke-width: 0px;"></path>
            <path class="cls-198" d="M1230.49,973.75c.65,4.24,3.93,14.46,5.36,17.83s3.67,4.48,5.03,4.56c1.36.08,5.4-.96,3.61-7.2-1.79-6.24-9.37-17.25-9.37-17.25,0,0-.73-.2-2.33.27s-2.3,1.79-2.3,1.79Z" style="fill: rgb(80, 85, 143); stroke-width: 0px;"></path>
            <path class="cls-198" d="M1233.73,1085.38s.67,2.26.7,3.3c.03,1.04.29,4.38.18,5.06s-2.28,1.07-3.32,1.12c-1.04.05-1.58-.98-2.52-1.09-.55-.06-1.63-.02-2.3.32-1.67.83-6.53-1.29-8.1-2.59s-.16-3,1.59-3.11c1.52-.1,6.7.12,8.13-.8,1.43-.93,1.13-3.24,1.13-3.24l4.5,1.03Z" style="fill: rgb(80, 85, 143); stroke-width: 0px;"></path>
            <path class="cls-105" d="M1252.71,1076.81s1,2.14,1.19,3.16.94,4.29.93,4.98-2.09,1.4-3.11,1.61c-1.02.2-1.71-.74-2.66-.7-.56.02-1.61.22-2.22.65-1.52,1.07-6.65-.3-8.39-1.35-1.74-1.05-.61-2.94,1.11-3.31,1.49-.32,6.64-.88,7.92-2.01,1.27-1.13.64-3.38.64-3.38l4.61.35Z" style="fill: rgb(65, 68, 116); stroke-width: 0px;"></path>
            <path class="cls-176" d="M1245.93,1010.34s4.36,1.81,5.84,9.86c1.48,8.05-12.62,21.32-12.09,24.96.53,3.64,4.33,5.71,9.75,21.01,2.6,7.33,5.09,13.69,5.09,13.69,0,0-3.97,3.23-8.46,1.36,0,0-15.55-24.41-18.11-31.78s8.73-35.75,8.73-35.75l9.25-3.36Z" style="fill: rgb(102, 108, 127); stroke-width: 0px;"></path>
            <path class="cls-145" d="M1242.7,1013.91s1.89,5.09,1.23,13.25c-.66,8.16-15.19,19.4-15.63,23.05s3.81,8.76,4.04,17.92c.19,7.78,2.56,20.8,2.56,20.8,0,0-4.67,2.09-8.52-.88,0,0-9.18-30.34-9.74-38.12-.56-7.78,12.75-35.67,12.75-35.67l13.31-.35Z" style="fill: rgb(136, 144, 170); stroke-width: 0px;"></path>
            <g class="cls-243" style="clip-path: url(#clippath-61);">
              <path class="cls-41" d="M1254.32,1012.8s-11.97,21.21-20.86,25.17c-8.88,3.97-9.93,25.2-9.93,25.2l-5.74,22.75,17.94,9.74,18.58-82.86Z" style="fill: rgb(190, 160, 144); mix-blend-mode: multiply; opacity: 0.22; stroke-width: 0px;"></path>
            </g>
            <path class="cls-155" d="M1251.82,969.58l-2.11,6.8s2.03,1.78,4.5,2.55c1.36.42,2.98-.34,2.98-.34l2.2-6.66-7.56-2.35Z" style="fill: rgb(248, 203, 188); stroke-width: 0px;"></path>
            <path class="cls-83" d="M1250.86,972.67s.73,2.25,3.36,2.99,4.15-.65,4.15-.65l1.02-3.07-7.56-2.35-.96,3.09Z" style="fill: rgb(248, 203, 188); mix-blend-mode: multiply; stroke-width: 0px;"></path>
            <path class="cls-27" d="M1246.82,975.77s2.81-2.72,7.24-1.9c4.43.81,6.23,2.24,6.04,3.31s-1.81,2.94-1.81,2.94l-11.46-4.34Z" style="fill: rgb(242, 242, 242); stroke-width: 0px;"></path>
            <path class="cls-77" d="M1249.02,963.95s-.24,6.03,2.03,6.79l1.9-5.06-3.93-1.73Z" style="fill: rgb(97, 103, 173); stroke-width: 0px;"></path>
            <path class="cls-113" d="M1245.99,976.29s4.36-3.03,8.84-1.79,5.74,2.6,5.68,3.12c-.06.51-.81,2.61-.81,2.61l-13.7-3.94Z" style="fill: rgb(78, 83, 140); stroke-width: 0px;"></path>
            <path class="cls-77" d="M1224.23,1018.51c2.08-3.17,7.58-10.31,9.17-16.39,1.59-6.08-1.12-18.23,3.63-23.3,2.59-2.77,5.39-3.25,8.62-3.49.47-.06,1-.09,1.57-.11.1,0,.19-.01.29-.02.12,0,.24,0,.36.02.03,0,.05,0,.08,0,7.17.1,11.54,3.03,11.54,3.03,7.45,3.88,7.39,8.52,6.27,11.87-1.37,4.09-7.64,17.62-10.61,24.66-2.48,5.87-1.7,9.73-2.33,12.24l.04.09s.18,1.74-2.61,2.17c-.8.12-1.61.09-2.41-.07-2.72-.55-9.72-.96-15.44-3.12-5.26-1.99-9.43-5.66-8.18-7.57Z" style="fill: rgb(97, 103, 173); stroke-width: 0px;"></path>
            <rect class="cls-155" x="1248.91" y="956.58" width="13.32" height="17.38" rx="6.66" ry="6.66" transform="translate(312.98 -307.42) rotate(15.92)" style="fill: rgb(248, 203, 188); stroke-width: 0px;"></rect>
            <path class="cls-77" d="M1260.11,973.37c-.95,1.22-1.42,2.15-2.92,1.77-.73-.18-2.81-.88-3.23-.92-1.11-.13-.47-6.04-.48-6.79-.03-2.72-2.52-5.04-3.64-5.37-1.12-.33-2.17-2.78-2.03-4.06.35-3.35,4.13-4.1,6.19-4.12s3.77-.58,6.83.35c6.41,1.95,5,5.66,5,5.66,0,0,.75-.32,1.2,1.67.17.75-.25,2.8-1.18,5.04-.63,1.51-2.43,3.79-3.57,4.98l-2.17,1.8Z" style="fill: rgb(97, 103, 173); stroke-width: 0px;"></path>
            <path class="cls-77" d="M1253.73,962.08s-1.3,1.36-1.73,1.82-.69,1.06-.69,1.06l.24-3.18,2.19.3Z" style="fill: rgb(97, 103, 173); stroke-width: 0px;"></path>
            <path class="cls-155" d="M1252.03,963.87s1.43-1.76,2.7-.44-.71,5.76-3.82,4.37l1.12-3.93Z" style="fill: rgb(248, 203, 188); stroke-width: 0px;"></path>
            <g>
              <path class="cls-155" d="M1215.51,967.86s-.3-.18-.21-1.32,1.39-1.65,1.83-3-1.03-4.55-2.01-4.88-.43.94-.45,1.88c0,0-.45-1.01-.61-2.01s-2.04-.56-4.34.29-2.83.46-2.27,3.8c.35,2.08.71,3.01,1.95,4.08,1.24,1.07,2.11,3.3,2.11,3.3l3.99-2.15Z" style="fill: rgb(248, 203, 188); stroke-width: 0px;"></path>
              <path class="cls-155" d="M1210.72,959.42s-.95-1.69-.09-2.18,1.65.46,1.93,1.22,1.4,2.97.57,3.18-1.87-1.22-2.41-2.22Z" style="fill: rgb(248, 203, 188); stroke-width: 0px;"></path>
              <path class="cls-155" d="M1209.07,960.29s-.95-1.69-.09-2.18,1.65.46,1.93,1.22,1.4,2.97.57,3.18-1.87-1.22-2.41-2.22Z" style="fill: rgb(248, 203, 188); stroke-width: 0px;"></path>
              <path class="cls-155" d="M1207.62,960.92s-.86-1.52-.08-1.95c.77-.44,1.48.41,1.73,1.1s1.26,2.66.51,2.85-1.68-1.09-2.16-1.99Z" style="fill: rgb(248, 203, 188); stroke-width: 0px;"></path>
              <path class="cls-155" d="M1212.09,958.81s.15-1.94,1.14-1.86,1.76,3.25,1.57,4.03-1.13,1.3-1.94,1.01-.88-2.05-.77-3.18Z" style="fill: rgb(248, 203, 188); stroke-width: 0px;"></path>
            </g>
            <path class="cls-77" d="M1238.62,977.05s6.81-1.59,7.97,5.51c1.17,7.1-15.62,10.93-17.93,10.88-11.12-.27-14.69-5.63-6.76-9.04,3.64-1.57,11.77-5.42,16.72-7.35Z" style="fill: rgb(97, 103, 173); stroke-width: 0px;"></path>
            <path class="cls-77" d="M1210.77,969.18c.65,4.24,3.93,14.46,5.36,17.83s3.67,4.48,5.03,4.56c1.36.08,5.4-.96,3.61-7.2-1.79-6.24-9.37-17.25-9.37-17.25,0,0-.73-.2-2.33.27-1.6.48-2.3,1.79-2.3,1.79Z" style="fill: rgb(97, 103, 173); stroke-width: 0px;"></path>
          </g>
          <path class="cls-10" d="M1295.56,907.04c-3.84,0-7.26,5.98-7.26,12.71,0-6.73-3.42-12.71-7.26-12.71,3.84,0,7.26-5.98,7.26-12.71,0,6.73,3.42,12.71,7.26,12.71Z" style="fill: rgb(255, 228, 124); stroke-width: 0px;"></path>
          <path class="cls-10" d="M1319.03,888.58c-7.59,0-14.33,11.81-14.33,25.11,0-13.29-6.74-25.11-14.33-25.11,7.59,0,14.33-11.81,14.33-25.11,0,13.29,6.74,25.11,14.33,25.11Z" style="fill: rgb(255, 228, 124); stroke-width: 0px;"></path>
          <path class="cls-10" d="M1127.72,918.49c-4.03,0-7.61,6.27-7.61,13.33,0-7.06-3.58-13.33-7.61-13.33,4.03,0,7.61-6.27,7.61-13.33,0,7.06,3.58,13.33,7.61,13.33Z" style="fill: rgb(255, 228, 124); stroke-width: 0px;"></path>
          <path class="cls-10" d="M1109.12,907.6c-7.95,0-15.02,12.38-15.02,26.32,0-13.93-7.07-26.32-15.02-26.32,7.95,0,15.02-12.38,15.02-26.32,0,13.93,7.07,26.32,15.02,26.32Z" style="fill: rgb(255, 228, 124); stroke-width: 0px;"></path>
        </g>
      </g>
    </g>
  </g>
</svg>