<?xml version="1.0" encoding="UTF-8"?>
<svg id="_レイヤー_1" data-name="レイヤー 1" xmlns="http://www.w3.org/2000/svg" viewBox="0 0 500 500" width="100" height="100">
  <defs>
    <style>
      .cls-1 {
        fill: #cc3a26;
      }

      .cls-1, .cls-2 {
        stroke-width: 0px;
      }

      .cls-2 {
        fill: #0962a8;
      }
    </style>
  </defs>
  <g>
    <path class="cls-2" d="M64.05,215H25V26.91h39.05v188.09Z"/>
    <path class="cls-2" d="M205.02,83.89c9.11,7.53,13.66,20.01,13.66,37.45v93.66h-37.26v-84.6c0-7.32-.97-12.93-2.91-16.84-3.55-7.15-10.3-10.72-20.27-10.72-12.25,0-20.65,5.23-25.21,15.7-2.37,5.53-3.55,12.59-3.55,21.18v75.29h-36.37V76.17h35.22v20.29c4.66-7.15,9.06-12.29,13.21-15.44,7.45-5.61,16.9-8.42,28.34-8.42,14.31,0,26.03,3.76,35.13,11.29Z"/>
    <path class="cls-2" d="M310.04,25.19c1.87.13,4.42.32,7.66.57v29.6c-2.04-.25-5.47-.45-10.27-.57-4.81-.13-8.12.94-9.95,3.19-1.83,2.26-2.74,4.74-2.74,7.46v11.74h23.86v25.65h-28.86v112.16h-31.11v-112.16h-20.42v-25.65h19.91v-8.93c0-14.89,2.51-25.14,7.53-30.75,5.27-8.34,17.99-12.51,38.15-12.51,2.3,0,4.38.06,6.25.19Z"/>
  </g>
  <g>
    <path class="cls-2" d="M67.87,401.04c0,8.88,1.43,16.23,4.28,22.05,5.29,10.72,14.92,16.08,28.87,16.08,8.56,0,16.02-2.94,22.38-8.8,6.36-5.87,9.55-14.32,9.55-25.34,0-14.6-5.9-24.35-17.71-29.25-6.72-2.76-17.3-4.14-31.75-4.14v-31.24c14.14-.2,24.01-1.58,29.61-4.14,9.66-4.29,14.5-12.96,14.5-26.03,0-8.48-2.47-15.36-7.41-20.68-4.94-5.31-11.89-7.96-20.85-7.96-10.28,0-17.85,3.27-22.68,9.8-4.84,6.54-7.15,15.26-6.95,26.19H28.98c.41-11.03,2.29-21.49,5.66-31.39,3.57-8.67,9.18-16.69,16.83-24.04,5.71-5.21,12.49-9.19,20.34-11.94,7.85-2.76,17.49-4.13,28.91-4.13,21.21,0,38.32,5.49,51.32,16.46,13,10.97,19.5,25.7,19.5,44.18,0,13.07-3.88,24.09-11.64,33.08-4.9,5.61-10.01,9.44-15.31,11.48,3.98,0,9.7,3.42,17.15,10.26,11.13,10.31,16.69,24.4,16.69,42.27,0,18.78-6.5,35.29-19.51,49.53-13,14.24-32.25,21.36-57.75,21.36-31.41,0-53.24-10.26-65.47-30.78-6.43-10.92-9.99-25.21-10.71-42.88h42.87Z"/>
    <path class="cls-2" d="M279.4,303.04c0-3.58-1.38-7.5-4.13-11.79-4.7-6.94-11.79-10.41-21.28-10.41-14.19,0-24.3,7.96-30.32,23.89-3.27,8.78-5.51,21.75-6.74,38.9,5.41-6.43,11.69-11.13,18.83-14.09,7.14-2.96,15.31-4.44,24.5-4.44,19.7,0,35.86,6.69,48.46,20.06,12.61,13.38,18.91,30.47,18.91,51.3s-6.18,39-18.53,54.82c-12.35,15.82-31.54,23.73-57.58,23.73-27.97,0-48.59-11.69-61.87-35.07-10.31-18.27-15.46-41.86-15.46-70.75,0-16.94.71-30.73,2.14-41.34,2.55-18.89,7.5-34.61,14.85-47.16,6.33-10.72,14.62-19.35,24.88-25.88,10.26-6.53,22.53-9.8,36.83-9.8,20.62,0,37.06,5.28,49.31,15.85,12.25,10.56,19.14,24.63,20.67,42.19h-43.49ZM227.64,428.14c6.43,7.56,14.6,11.33,24.5,11.33s17.33-3.65,22.89-10.95c5.56-7.3,8.34-16.77,8.34-28.41,0-12.96-3.17-22.89-9.49-29.79-6.33-6.89-14.09-10.33-23.28-10.33-7.45,0-14.04,2.25-19.75,6.74-8.58,6.64-12.86,17.35-12.86,32.16,0,11.94,3.22,21.69,9.65,29.24Z"/>
    <path class="cls-2" d="M457.93,275.48c11.38,19.91,17.07,48.18,17.07,84.83s-5.69,64.87-17.07,84.68c-11.38,19.81-31.21,29.71-59.49,29.71s-48.11-9.9-59.49-29.71c-11.38-19.8-17.07-48.03-17.07-84.68s5.69-64.93,17.07-84.83c11.38-19.91,31.21-29.86,59.49-29.86s48.11,9.95,59.49,29.86ZM372.71,418.88c4.18,13.53,12.76,20.29,25.73,20.29s21.46-6.76,25.5-20.29c4.03-13.52,6.05-33.05,6.05-58.57s-2.02-46.55-6.05-59.41c-4.03-12.86-12.53-19.3-25.5-19.3s-21.54,6.43-25.73,19.3c-4.19,12.86-6.28,32.67-6.28,59.41s2.09,45.05,6.28,58.57Z"/>
  </g>
  <path class="cls-1" d="M400,132.34c-17.92,0-32.25-14.31-32.25-32.2s14.33-32.2,32.25-32.2,32.25,14.31,32.25,32.2-14.33,32.2-32.25,32.2h0ZM400,25c-24.72,0-48.01,12.17-61.99,32.92-13.97,20.39-16.84,46.51-7.88,69.77l34.04,75.14,29.38,61.54c1.07,2.5,3.58,3.94,6.45,3.94s5.37-1.43,6.45-3.94l29.38-61.54,34.04-75.14c8.96-23.26,6.09-49.38-7.88-69.77-13.97-20.75-37.26-32.92-61.99-32.92h0Z"/>
</svg>