<?xml version="1.0"?>
<svg width="501" height="232" viewBox="0 0 501 232" fill="none" xmlns="http://www.w3.org/2000/svg">
	<g clip-path="url(#clip0_115_65)">
		<path fill-rule="evenodd" clip-rule="evenodd" d="M98.34 100.39V73.62L115.89 84.93V86.8H115.93V103.83C109.8 103.58 103.94 102.44 98.34 100.39ZM83.81 78.03L98.34 69.18V61.94L115.89 73.22V75.09H115.93V79.64L119.48 82.18V84.61L98.34 71.28L83.81 80.13V78.04M125.08 103.61V92.93L133.11 98.09V98.5L134.75 97.53L125.08 91.4V85.31L133.11 90.5V90.91L134.75 89.9L125.08 83.81V77.72L133.11 82.87V83.32L134.75 82.31L125.08 76.22V70.13L133.11 75.29V75.74L134.75 74.73L125.08 68.64V62.52L115.97 67.9L119.48 70.4V72.87L115.93 70.63L98.34 59.58V59.54L83.81 68.39V66.3L98.34 57.45V49.98L115.89 61.26V63.17L119.51 61L98.34 47.63L83.81 56.48V54.39L98.34 45.54V38.18L115.89 49.46V51.37L119.51 49.2L98.34 35.83L83.81 44.64V42.59L98.34 33.7V26.49L78.77 39.19V87.18C70.58 77.62 66.92 66.59 67.79 54.09C68.66 41.59 74.1 29.89 84.11 18.99C89.11 13.81 94.65 9.54002 100.73 6.18002C91.02 9.81002 82.39 15.53 74.85 23.32C67.33 31.36 62.39 40.01 60.02 49.27C57.65 58.51 57.84 67.41 60.58 75.97C63.29 84.53 68.55 91.81 76.34 97.82C85.75 104.59 96.42 108.06 108.34 108.24C120.27 108.39 131.77 105.45 142.84 99.43C137.02 101.62 131.09 103.02 125.07 103.61" fill="#1159C7" />
		<path fill-rule="evenodd" clip-rule="evenodd" d="M78.77 104.95C69.83 99.92 63.21 93.3 58.9 85.08C54.59 76.86 52.8 68 53.52 58.49C54.22 48.95 57.6 39.72 63.67 30.78C67.98 24.71 73.06 19.57 78.91 15.36C70.69 20.09 63.75 26.45 58.07 34.44C51.97 43.38 48.57 52.6 47.88 62.11C47.18 71.64 48.99 80.52 53.29 88.74C57.6 96.96 64.21 103.57 73.12 108.6C83.65 114.15 94.85 116.34 106.73 115.17C118.58 113.97 129.5 109.84 139.48 102.77C129.92 108.25 119.79 111.24 109.08 111.73C98.38 112.26 88.27 109.99 78.76 104.94" fill="#DE1414" />
		<path d="M0.589966 150.51V119.13H12C15.5 119.13 18.19 119.77 20.07 121.06C21.95 122.34 22.89 124.15 22.89 126.49C22.89 128.19 22.32 129.67 21.17 130.94C20.03 132.21 18.56 133.09 16.78 133.59V133.67C19.01 133.95 20.79 134.78 22.13 136.14C23.47 137.51 24.14 139.18 24.14 141.15C24.14 144.03 23.11 146.31 21.05 148C19 149.68 16.19 150.52 12.64 150.52H0.589966V150.51ZM7.64997 124.33V131.78H10.75C12.21 131.78 13.36 131.43 14.2 130.72C15.04 130.01 15.46 129.04 15.46 127.8C15.46 125.49 13.74 124.33 10.29 124.33H7.63997H7.64997ZM7.64997 137.03V145.3H11.48C13.11 145.3 14.39 144.92 15.32 144.17C16.24 143.41 16.71 142.37 16.71 141.05C16.71 139.73 16.26 138.81 15.34 138.1C14.43 137.39 13.16 137.03 11.52 137.03H7.64997ZM38.98 119.13V124.6H36.35V145.03H38.98V150.5H26.67V145.03H29.3V124.6H26.67V119.13H38.98ZM74.03 124.88H62.96V132.58H73.14V138.32H62.96V150.5H55.9V119.12H74.03V124.87V124.88ZM89.26 151.06C85.53 151.06 82.59 150.02 80.45 147.92C78.32 145.83 77.25 142.98 77.25 139.39C77.25 135.8 78.36 132.79 80.58 130.7C82.8 128.61 85.8 127.56 89.58 127.56C93.36 127.56 96.21 128.61 98.33 130.7C100.45 132.79 101.5 135.56 101.5 139.01C101.5 142.73 100.41 145.67 98.22 147.83C96.04 149.99 93.05 151.06 89.26 151.06ZM89.43 132.85C87.8 132.85 86.53 133.42 85.63 134.54C84.73 135.66 84.28 137.25 84.28 139.3C84.28 143.6 86.01 145.75 89.48 145.75C92.95 145.75 94.45 143.54 94.45 139.12C94.45 134.94 92.78 132.84 89.43 132.84V132.85ZM120.6 134.34C119.77 133.89 118.8 133.66 117.69 133.66C116.18 133.66 115 134.21 114.15 135.32C113.31 136.42 112.89 137.92 112.89 139.81V150.51H105.97V128.1H112.89V132.25H112.97C114.07 129.22 116.04 127.7 118.89 127.7C119.61 127.7 120.18 127.79 120.59 127.97V134.33L120.6 134.34ZM164.44 150.51H156.74L154.51 143.53H143.34L141.13 150.51H133.47L144.89 119.13H153.27L164.43 150.51H164.44ZM152.89 138.1L149.52 127.55C149.27 126.77 149.09 125.82 148.99 124.73H148.82C148.75 125.65 148.57 126.56 148.27 127.47L144.86 138.1H152.89ZM190.24 149.39C187.95 150.5 184.96 151.06 181.27 151.06C176.46 151.06 172.68 149.65 169.92 146.81C167.17 143.98 165.79 140.21 165.79 135.5C165.79 130.48 167.34 126.42 170.43 123.29C173.53 120.16 177.55 118.6 182.5 118.6C185.56 118.6 188.15 118.99 190.25 119.77V126.57C188.15 125.31 185.76 124.68 183.07 124.68C180.12 124.68 177.74 125.61 175.93 127.47C174.12 129.32 173.22 131.83 173.22 135C173.22 138.17 174.07 140.46 175.78 142.26C177.49 144.06 179.79 144.96 182.68 144.96C185.57 144.96 187.97 144.29 190.25 142.94V149.39H190.24Z" fill="#145AC8" />
		<path d="M8.62 176.85V173.24C9.88 174.16 11.35 174.62 13.03 174.62C14.1 174.62 14.92 174.4 15.5 173.94C16.09 173.48 16.39 172.84 16.39 172.03C16.39 171.22 16.02 170.55 15.29 170.09C14.57 169.63 13.56 169.4 12.28 169.4H10.59V166.23H12.15C14.6 166.23 15.83 165.42 15.83 163.79C15.83 162.26 14.89 161.49 13.01 161.49C11.75 161.49 10.52 161.9 9.33 162.7V159.32C10.65 158.66 12.19 158.33 13.95 158.33C15.88 158.33 17.38 158.76 18.44 159.63C19.51 160.49 20.05 161.62 20.05 163C20.05 165.46 18.8 167 16.32 167.62V167.69C17.65 167.85 18.7 168.34 19.47 169.14C20.24 169.94 20.63 170.93 20.63 172.09C20.63 173.85 19.98 175.24 18.69 176.27C17.41 177.29 15.63 177.8 13.37 177.8C11.42 177.8 9.84 177.48 8.62 176.85ZM24.3 177.47V158.65H30.96C37.65 158.65 41 161.71 41 167.82C41 170.75 40.08 173.09 38.26 174.84C36.43 176.59 34 177.47 30.97 177.47H24.31H24.3ZM28.53 162.1V174.03H30.63C32.47 174.03 33.9 173.48 34.95 172.38C36 171.28 36.53 169.77 36.53 167.88C36.53 166.08 36.01 164.67 34.97 163.64C33.93 162.61 32.48 162.1 30.62 162.1H28.54H28.53ZM62.84 177.47H51.56V158.65H62.41V162.1H55.79V166.28H61.95V169.72H55.79V174.03H62.84V177.47ZM64.59 177.12V173.76C65.27 174.17 65.96 174.47 66.63 174.67C67.31 174.87 67.95 174.97 68.56 174.97C69.3 174.97 69.88 174.87 70.3 174.67C70.73 174.47 70.94 174.17 70.94 173.76C70.94 173.5 70.84 173.28 70.65 173.11C70.45 172.93 70.21 172.78 69.9 172.64C69.6 172.51 69.27 172.39 68.91 172.29C68.55 172.18 68.21 172.06 67.88 171.93C67.34 171.73 66.87 171.52 66.46 171.29C66.05 171.06 65.71 170.79 65.43 170.48C65.16 170.17 64.95 169.81 64.8 169.41C64.66 169.01 64.59 168.53 64.59 167.99C64.59 167.24 64.75 166.59 65.08 166.04C65.41 165.5 65.85 165.05 66.4 164.71C66.94 164.36 67.57 164.11 68.27 163.95C68.98 163.79 69.71 163.71 70.48 163.71C71.08 163.71 71.68 163.76 72.29 163.85C72.9 163.94 73.51 164.07 74.11 164.25V167.45C73.58 167.15 73.02 166.92 72.42 166.77C71.82 166.62 71.23 166.54 70.66 166.54C70.39 166.54 70.13 166.56 69.89 166.61C69.65 166.66 69.44 166.73 69.25 166.82C69.07 166.91 68.93 167.04 68.82 167.18C68.72 167.32 68.67 167.48 68.67 167.66C68.67 167.91 68.75 168.12 68.9 168.3C69.05 168.47 69.26 168.62 69.52 168.75C69.78 168.88 70.06 168.99 70.37 169.09C70.68 169.18 70.99 169.29 71.29 169.39C71.84 169.59 72.34 169.8 72.78 170.02C73.23 170.25 73.61 170.52 73.94 170.83C74.26 171.13 74.5 171.49 74.68 171.9C74.85 172.31 74.94 172.8 74.94 173.37C74.94 174.16 74.77 174.85 74.41 175.41C74.07 175.97 73.61 176.43 73.03 176.79C72.45 177.14 71.79 177.4 71.05 177.56C70.3 177.72 69.52 177.8 68.72 177.8C67.24 177.8 65.87 177.57 64.61 177.12H64.59ZM85.42 177.31C84.8 177.64 83.88 177.8 82.65 177.8C79.72 177.8 78.26 176.28 78.26 173.25V167.09H76.08V164.03H78.26V161.12L82.39 159.94V164.02H85.41V167.08H82.39V172.52C82.39 173.92 82.94 174.62 84.06 174.62C84.49 174.62 84.95 174.49 85.41 174.23V177.3L85.42 177.31ZM89.84 161.9C89.14 161.9 88.56 161.7 88.11 161.28C87.67 160.86 87.45 160.35 87.45 159.74C87.45 159.13 87.67 158.61 88.11 158.22C88.56 157.82 89.14 157.62 89.84 157.62C90.54 157.62 91.12 157.82 91.56 158.22C92 158.61 92.22 159.12 92.22 159.74C92.22 160.36 92 160.89 91.56 161.29C91.12 161.7 90.55 161.9 89.84 161.9ZM91.89 177.47H87.75V164.03H91.89V177.47ZM116.75 177.47H112.62V169.8C112.62 167.85 111.9 166.87 110.46 166.87C109.77 166.87 109.22 167.17 108.79 167.76C108.36 168.34 108.15 169.07 108.15 169.94V177.47H104.01V169.72C104.01 167.82 103.3 166.87 101.89 166.87C101.18 166.87 100.61 167.15 100.19 167.71C99.77 168.27 99.56 169.03 99.56 170V177.47H95.42V164.03H99.56V166.13H99.62C100.05 165.42 100.65 164.83 101.42 164.38C102.2 163.93 103.05 163.7 103.96 163.7C105.86 163.7 107.16 164.54 107.86 166.21C108.89 164.54 110.39 163.7 112.38 163.7C115.3 163.7 116.77 165.5 116.77 169.1V177.47H116.75ZM131.22 177.47H127.3V175.54H127.24C126.34 177.04 125 177.79 123.24 177.79C121.94 177.79 120.91 177.42 120.16 176.68C119.41 175.94 119.04 174.95 119.04 173.72C119.04 171.11 120.58 169.61 123.67 169.2L127.32 168.72C127.32 167.25 126.52 166.51 124.93 166.51C123.34 166.51 121.81 166.99 120.37 167.93V164.81C120.94 164.51 121.74 164.24 122.74 164.02C123.74 163.8 124.65 163.68 125.47 163.68C129.3 163.68 131.22 165.59 131.22 169.41V177.45V177.47ZM127.32 172.01V171.1L124.88 171.42C123.53 171.6 122.86 172.21 122.86 173.25C122.86 173.72 123.02 174.1 123.35 174.41C123.68 174.71 124.12 174.86 124.68 174.86C125.46 174.86 126.09 174.59 126.58 174.05C127.07 173.51 127.31 172.83 127.31 172.01H127.32ZM142.6 177.31C141.98 177.64 141.06 177.8 139.83 177.8C136.9 177.8 135.44 176.28 135.44 173.25V167.09H133.26V164.03H135.44V161.12L139.57 159.94V164.02H142.59V167.08H139.57V172.52C139.57 173.92 140.12 174.62 141.24 174.62C141.67 174.62 142.13 174.49 142.59 174.23V177.3L142.6 177.31ZM147.03 161.9C146.33 161.9 145.75 161.7 145.3 161.28C144.86 160.86 144.63 160.35 144.63 159.74C144.63 159.13 144.85 158.61 145.3 158.22C145.75 157.82 146.33 157.62 147.03 157.62C147.73 157.62 148.31 157.82 148.75 158.22C149.19 158.61 149.42 159.12 149.42 159.74C149.42 160.36 149.2 160.89 148.75 161.29C148.31 161.7 147.74 161.9 147.03 161.9ZM149.07 177.47H144.93V164.03H149.07V177.47ZM159 177.8C156.76 177.8 155 177.18 153.71 175.92C152.43 174.66 151.78 172.95 151.78 170.8C151.78 168.65 152.45 166.85 153.78 165.6C155.11 164.34 156.91 163.71 159.17 163.71C161.43 163.71 163.15 164.34 164.42 165.6C165.69 166.85 166.33 168.51 166.33 170.57C166.33 172.81 165.67 174.57 164.36 175.87C163.05 177.16 161.26 177.81 158.99 177.81L159 177.8ZM159.11 166.87C158.13 166.87 157.37 167.21 156.82 167.88C156.27 168.55 156 169.5 156 170.74C156 173.32 157.04 174.61 159.13 174.61C161.22 174.61 162.11 173.29 162.11 170.63C162.11 168.12 161.11 166.86 159.11 166.86V166.87ZM182.01 177.47H177.88V170C177.88 167.92 177.14 166.87 175.65 166.87C174.93 166.87 174.33 167.15 173.87 167.7C173.41 168.25 173.18 168.95 173.18 169.8V177.47H169.04V164.03H173.18V166.15H173.24C174.23 164.52 175.67 163.7 177.56 163.7C180.53 163.7 182.02 165.55 182.02 169.24V177.47H182.01Z" fill="#DE1616" />
		<path d="M272.1 68.63L270.49 67.02L247.13 90.38L223.77 67.02L222.16 68.63L245.52 91.99L222.16 115.35L223.77 116.96L247.13 93.6L270.49 116.96L272.1 115.35L248.74 91.99L272.1 68.63Z" fill="#404040" />
		<g opacity="0.96">
			<path d="M348.92 58.39V56.43C348.92 47.25 348.77 41.65 348.48 39.63C352 40.05 354.24 40.42 355.2 40.74C355.96 40.96 356.34 41.29 356.34 41.74C356.34 42.4 355.45 43.09 353.68 43.81V58.39H374.83C377.07 55.61 378.41 54.22 378.85 54.22C379.22 54.22 380.68 55.3 383.24 57.47C384.4 58.38 384.97 59.09 384.97 59.61C384.97 60.05 384.64 60.27 383.97 60.27H354.33C357.21 67.53 361.7 74.29 367.8 80.54C372.99 85.86 379.51 90.06 387.36 93.16C387.53 93.21 387.62 93.31 387.62 93.46C387.62 93.76 387.46 93.93 387.14 93.98C386.18 94.23 385.47 94.6 385 95.09C384.56 95.53 384.11 96.3 383.67 97.38C383.45 98.04 383.04 98.38 382.45 98.38C382.08 98.38 381.1 97.9 379.5 96.94C373.94 93.57 368.7 88.59 363.77 81.99C359.22 75.81 355.7 69.16 353.21 62.02C353.7 85.15 353.95 99.86 353.95 106.13C353.95 107.63 352.89 108.38 350.78 108.38C349.33 108.38 348.6 107.78 348.6 106.57C348.6 106.2 348.64 104.63 348.71 101.84C348.91 92.17 349.09 80.43 349.26 66.62C342.34 80.2 331.92 90.9 317.99 98.7C317.97 98.72 317.92 98.74 317.84 98.74C317.42 98.74 317.21 98.51 317.21 98.04C317.21 97.94 317.25 97.86 317.32 97.78C330.98 87.57 340.82 75.07 346.85 60.27H326.29C324.4 60.27 322.57 60.42 320.83 60.71L320.09 57.94C322.08 58.24 324.15 58.38 326.29 58.38H348.88L348.92 58.39Z" fill="#404040" />
			<path d="M468.95 99.74C469.2 99.69 469.32 99.81 469.32 100.11C469.32 100.36 469.22 100.54 469.02 100.66C467.64 101.4 466.87 102.35 466.69 103.5C466.62 104.24 466.44 104.71 466.17 104.9C465.95 105.1 465.52 105.21 464.88 105.23C458.31 105.75 451.8 106.01 445.35 106.01C433.05 106.01 424.78 104.62 420.54 101.84C417.39 99.8 414.99 96.6 413.34 92.24C411.17 95.46 408.3 98.82 404.7 102.32V102.91C404.7 104.78 404.34 105.72 403.63 105.72C403.24 105.72 402.73 105.23 402.12 104.24C401.55 103.33 400.58 101.47 399.2 98.67C400.55 98.35 402.02 97.8 403.59 97.01C405.83 95.9 408.04 94.39 410.23 92.47V72.91H405.03C402.84 72.91 401.02 73.11 399.57 73.5L398.83 70.55C400.75 70.85 402.82 70.99 405.03 70.99H409.72C411.37 69.29 412.34 68.44 412.64 68.44C412.91 68.44 413.94 69.17 415.74 70.62C416.55 71.38 416.96 71.96 416.96 72.35C416.96 72.77 416.26 73.46 414.86 74.42V92.25C416.53 95.45 418.86 97.69 421.84 98.97C425.83 100.74 432.83 101.63 442.84 101.63C451.08 101.63 459.78 101 468.94 99.75L468.95 99.74ZM403.76 42.81C403.76 42.81 403.69 42.7 403.69 42.63C403.69 42.36 403.85 42.22 404.17 42.22C404.22 42.22 404.27 42.23 404.32 42.26C408.09 43.66 410.98 45.41 412.99 47.5C414.66 49.22 415.5 50.93 415.5 52.63C415.5 54.8 414.56 55.88 412.69 55.88C412.05 55.88 411.55 55.63 411.18 55.14C410.88 54.7 410.55 53.88 410.18 52.7C409.07 49.11 406.93 45.81 403.76 42.81ZM440.42 66.03V54.29H428.46C426.54 57.05 423.85 59.85 420.38 62.71C420.33 62.76 420.26 62.78 420.16 62.78C419.72 62.78 419.5 62.57 419.5 62.15C419.5 62.08 419.52 62 419.57 61.93C422.79 58.09 425.34 53.71 427.21 48.79C428.15 46.33 428.77 43.88 429.09 41.44C433.62 42.67 435.88 43.65 435.88 44.39C435.88 45.01 434.94 45.46 433.07 45.76C431.99 48.29 430.86 50.51 429.67 52.4H440.41V49.45C440.41 45.32 440.26 42.07 439.97 39.7C443.27 40.12 445.42 40.49 446.43 40.81C447.17 41.06 447.54 41.36 447.54 41.73C447.54 42.3 446.7 42.95 445.03 43.69V52.4H455.14C457.13 50.04 458.33 48.86 458.72 48.86C459.24 48.86 460.59 49.77 462.78 51.59C463.84 52.4 464.37 53.08 464.37 53.62C464.37 54.06 464.03 54.28 463.34 54.28H445.03V66.02H458.65C460.79 63.49 462.05 62.22 462.42 62.22C462.91 62.22 464.33 63.18 466.67 65.1C467.78 65.99 468.33 66.66 468.33 67.13C468.33 67.65 468 67.91 467.33 67.91H424.62C422.92 67.91 421.29 68.06 419.71 68.35L419.01 65.51C421.08 65.85 422.95 66.03 424.62 66.03H440.42ZM454.41 92.5H430.67V94.38C430.67 95.54 429.73 96.11 427.86 96.11C426.56 96.11 425.9 95.61 425.9 94.6L426.12 83.41C426.12 78.61 426.02 75.08 425.82 72.82C426.8 73.24 428.59 74.12 431.17 75.48H453.95C455.53 74.03 456.48 73.3 456.83 73.3C457.13 73.3 458.05 73.9 459.6 75.11C460.46 75.85 460.89 76.43 460.89 76.84C460.89 77.18 460.26 77.81 459.01 78.72V82.82L459.31 93.93C459.31 95.23 458.33 95.89 456.36 95.89C455.06 95.89 454.4 95.41 454.4 94.45V92.49L454.41 92.5ZM454.41 90.62V77.37H430.67V90.62H454.41Z" fill="#404040" />
			<path d="M328.91 138.39C331.05 138.73 332.42 139.03 333.01 139.28C333.5 139.5 333.75 139.81 333.75 140.2C333.75 140.82 332.97 141.44 331.42 142.08V155.07L331.49 181.72C331.49 183.22 330.53 183.97 328.61 183.97C327.21 183.97 326.51 183.34 326.51 182.09C326.51 181.18 326.63 172.26 326.88 155.33L327.03 141.34C324.22 145.4 320.84 149.33 316.88 153.12C316.83 153.17 316.76 153.19 316.66 153.19C316.22 153.19 316 152.98 316 152.56C316 152.49 316.02 152.42 316.07 152.38C319.37 148.37 322.49 143.37 325.45 137.39C327.91 132.47 329.83 127.71 331.21 123.1C332.19 119.8 332.77 117.21 332.94 115.31C337.89 116.79 340.36 117.92 340.36 118.71C340.36 119.4 339.38 119.88 337.41 120.15C334.65 127.58 331.82 133.66 328.92 138.39H328.91ZM356.23 178.29V155.85H345.12C343.52 155.85 341.81 156.02 339.99 156.37L339.21 153.45C341.03 153.79 343 153.97 345.12 153.97H356.23V135.73H343.24C341.39 135.73 339.65 135.88 338 136.17L337.26 133.4C339.13 133.7 341.12 133.84 343.24 133.84H374.36C376.57 131.23 377.89 129.93 378.31 129.93C378.73 129.93 380.17 130.94 382.63 132.96C383.84 133.92 384.44 134.62 384.44 135.06C384.44 135.5 384.11 135.72 383.44 135.72H361.07V153.96H372.33C374.52 151.23 375.8 149.86 376.17 149.86C376.61 149.86 377.98 150.87 380.27 152.89C381.43 153.9 382 154.66 382 155.18C382 155.62 381.68 155.84 381.04 155.84H361.07V178.28H376.06C378.37 175.3 379.73 173.81 380.12 173.81C380.54 173.81 382.03 174.92 384.59 177.13C385.85 178.24 386.47 179 386.47 179.42C386.47 179.91 386.15 180.16 385.51 180.16H340.58C338.98 180.16 337.17 180.31 335.15 180.6L334.37 177.76C336.71 178.1 338.78 178.28 340.57 178.28H356.22L356.23 178.29ZM350.92 117.42C350.82 117.37 350.77 117.3 350.77 117.2C350.77 116.83 350.95 116.68 351.32 116.76C355.31 117.74 358.46 119.22 360.77 121.19C362.71 122.81 363.69 124.49 363.69 126.21C363.69 127.17 363.43 127.93 362.91 128.5C362.44 128.99 361.85 129.24 361.14 129.24C360.43 129.24 359.84 129.04 359.44 128.65C359.1 128.28 358.73 127.62 358.33 126.66C356.73 123.12 354.26 120.04 350.91 117.43L350.92 117.42Z" fill="#404040" />
			<path d="M410.11 126.06H430.6V121.26C430.6 119.19 430.48 117.29 430.23 115.54C433.72 115.91 435.98 116.27 436.99 116.61C437.73 116.86 438.1 117.2 438.1 117.64C438.1 118.26 437.19 118.93 435.37 119.67V126.06H457.22C458.97 124.14 460.03 123.18 460.39 123.18C460.81 123.18 462.19 124.24 464.52 126.35C465.68 127.46 466.25 128.23 466.25 128.68C466.25 129.52 465.29 129.97 463.37 130.05C462.46 130.05 461.6 130.46 460.79 131.27C458.92 133.04 457.11 134.59 455.36 135.92C455.29 135.99 455.19 136.03 455.06 136.03C454.72 136.03 454.54 135.88 454.54 135.59C454.54 135.52 454.55 135.45 454.58 135.41C455.79 132.97 456.81 130.49 457.64 127.95H410.17C410.12 131.08 409.38 133.56 407.96 135.41C406.78 136.94 405.38 137.7 403.75 137.7C402.91 137.7 402.24 137.42 401.72 136.85C401.25 136.31 401.02 135.63 401.02 134.82C401.02 133.66 401.75 132.7 403.2 131.94C406.69 130.12 408.52 126.98 408.66 122.53C408.66 122.31 408.8 122.2 409.07 122.2C409.37 122.2 409.53 122.31 409.55 122.53C409.82 123.64 410.01 124.82 410.1 126.07L410.11 126.06ZM426.35 143.81C419.73 145.41 412.53 146.47 404.75 146.98C404.48 146.98 404.34 146.76 404.34 146.32C404.34 146.02 404.43 145.86 404.6 145.84C416.12 144.04 426.54 140.98 435.87 136.65C439.61 134.9 442.66 132.98 445.02 130.89C448.79 133.47 450.67 135.14 450.67 135.87C450.67 136.34 450.18 136.57 449.19 136.57C448.55 136.57 447.76 136.46 446.83 136.24C441.76 138.77 436.49 140.87 431.03 142.52V155.55L454.32 152.26C456.49 148.79 457.74 147.06 458.09 147.06C458.61 147.06 460.45 148.02 463.63 149.94C465.03 150.78 465.73 151.45 465.73 151.97C465.73 152.36 465.37 152.6 464.66 152.67L431.03 157.36V171.87C431.03 173.42 431.23 174.49 431.62 175.08C432.14 175.84 433.21 176.37 434.83 176.67C436.41 176.94 439.06 177.08 442.8 177.08C450.23 177.08 454.67 176.5 456.13 175.35C457.8 174.05 459.3 170.75 460.63 165.46C460.7 165.26 460.88 165.16 461.15 165.16C461.47 165.16 461.63 165.28 461.63 165.53C461.48 170.13 461.41 172.58 461.41 172.88C461.41 173.72 461.79 174.27 462.55 174.54C463.41 174.81 463.84 175.44 463.84 176.42C463.84 178 462.42 179.23 459.59 180.11C456.46 181.02 450.95 181.48 443.05 181.48C435.57 181.48 430.81 180.79 428.76 179.41C426.99 178.23 426.1 175.84 426.1 172.25L426.32 160.14V158.04L407.57 160.7C406.12 160.87 404.48 161.25 402.66 161.84L401.44 159.11H402.66C404.26 159.11 405.8 159.01 407.27 158.81L426.32 156.15V143.82L426.35 143.81Z" fill="#404040" />
		</g>
		<path d="M298.05 61.83C297.84 61.83 297.63 61.72 297.51 61.52C297.33 61.22 297.43 60.83 297.73 60.65L398.53 0.0900105C398.83 -0.0899895 399.22 0.0100105 399.4 0.31001C399.58 0.61001 399.48 1.00001 399.18 1.18001L298.38 61.75C298.28 61.81 298.17 61.84 298.06 61.84L298.05 61.83Z" fill="#404040" />
		<path d="M499.65 61.83C499.54 61.83 499.43 61.8 499.33 61.74L398.53 1.17001C398.23 0.990012 398.14 0.600012 398.31 0.300012C398.49 1.24276e-05 398.88 -0.0899876 399.18 0.0800124L499.98 60.65C500.28 60.83 500.37 61.22 500.2 61.52C500.08 61.72 499.87 61.83 499.66 61.83H499.65Z" fill="#404040" />
		<path d="M12.18 209.31C15.01 213.39 18.79 216.3 23.52 218.04C23.24 218.3 23.04 218.56 22.92 218.82C22.84 219.01 22.76 219.11 22.69 219.11C22.63 219.11 22.52 219.07 22.35 219C17.82 217.08 14.23 214.15 11.58 210.2C10.17 212.31 8.53 214.13 6.65 215.66C5.11 216.92 3.3 218.09 1.21 219.16C1.07 219.23 0.97 219.27 0.92 219.27C0.83 219.27 0.73 219.18 0.62 218.99C0.48 218.76 0.27 218.56 0 218.39C2.47 217.28 4.68 215.87 6.62 214.16C8.22 212.75 9.5 211.27 10.46 209.7C10.76 209.21 10.96 208.77 11.06 208.36C11.59 208.46 11.99 208.55 12.26 208.63C12.46 208.7 12.56 208.79 12.56 208.91C12.56 209 12.51 209.07 12.41 209.13C12.34 209.16 12.27 209.22 12.18 209.31ZM10.89 223.04V219.02H8.6L5.27 219.07C5.16 219.07 5.1 219.01 5.1 218.9V218.1C5.1 217.99 5.16 217.93 5.27 217.93L8.6 217.98H14.54L17.88 217.93C17.99 217.93 18.04 217.99 18.04 218.1V218.9C18.04 219.01 17.99 219.07 17.88 219.07L14.54 219.02H12.04V223.04H15.16L18.59 222.99C18.7 222.99 18.76 223.05 18.76 223.16V223.97C18.76 224.08 18.7 224.14 18.59 224.14L15.16 224.09H12.04V228.61H18.59L21.95 228.56C22.06 228.56 22.12 228.62 22.12 228.73V229.56C22.12 229.67 22.06 229.73 21.95 229.73L18.59 229.68H4.79L1.4 229.73C1.28 229.73 1.22 229.67 1.22 229.56V228.73C1.22 228.62 1.28 228.56 1.4 228.56L4.79 228.61H10.89V224.09H8.2L4.77 224.14C4.66 224.14 4.6 224.08 4.6 223.97V223.16C4.6 223.05 4.66 222.99 4.77 222.99L8.2 223.04H10.89Z" fill="black" />
		<path d="M41.55 229.16V230.66C41.55 230.76 41.49 230.81 41.38 230.81H40.5C40.39 230.81 40.33 230.76 40.33 230.66L40.38 222.82V218.2L40.33 212.3C40.33 212.19 40.39 212.13 40.5 212.13L44.02 212.18H45.42C45.78 211.42 46.12 210.51 46.44 209.44C46.54 209.11 46.59 208.75 46.59 208.37C47.08 208.44 47.49 208.53 47.83 208.64C48.02 208.71 48.11 208.81 48.11 208.92C48.11 209 48.07 209.08 47.99 209.16C47.82 209.33 47.69 209.54 47.61 209.78C47.24 210.76 46.91 211.56 46.64 212.18H51.74L55.26 212.13C55.37 212.13 55.43 212.19 55.43 212.3L55.38 217.65V222.8L55.43 230.64C55.43 230.74 55.37 230.79 55.26 230.79H54.38C54.27 230.79 54.21 230.74 54.21 230.64V229.17H41.54L41.55 229.16ZM41.55 217.29H54.22V213.24H41.55V217.29ZM41.55 218.34V222.44H54.22V218.34H41.55ZM41.55 223.49V228.09H54.22V223.49H41.55Z" fill="black" />
		<path d="M79.8 222.89V224.68H81.25L84.3 224.63C84.41 224.63 84.47 224.69 84.47 224.8V225.51C84.47 225.62 84.41 225.68 84.3 225.68L81.25 225.63H79.8V227.65C81.52 227.41 83.08 227.14 84.49 226.85C84.42 227 84.38 227.2 84.34 227.42C84.32 227.64 84.28 227.77 84.25 227.81C84.21 227.85 84.09 227.89 83.89 227.92C81.52 228.41 78.53 228.87 74.93 229.3C74.34 229.38 74.01 229.45 73.93 229.51C73.82 229.59 73.72 229.63 73.65 229.63C73.53 229.63 73.44 229.54 73.38 229.35C73.27 229.04 73.16 228.67 73.05 228.23C73.28 228.23 73.48 228.24 73.66 228.24C74.25 228.24 74.92 228.2 75.67 228.13C76.46 228.06 77.48 227.95 78.74 227.78V225.63H76.89L73.85 225.68C73.73 225.68 73.67 225.62 73.67 225.51V224.8C73.67 224.69 73.73 224.63 73.85 224.63L76.89 224.68H78.74V222.89H77.41L74.47 222.94C74.36 222.94 74.3 222.88 74.3 222.77L74.34 220.72V218.39L74.3 216.32C74.3 216.21 74.36 216.15 74.47 216.15L77.41 216.2H78.74V214.42H76.52L73.35 214.47C73.23 214.47 73.17 214.41 73.17 214.3V213.61C73.17 213.49 73.23 213.43 73.35 213.43L76.52 213.49H78.74V211.59C77.38 211.81 76.04 211.98 74.72 212.11C74.61 212.13 74.53 212.13 74.48 212.13C74.37 212.13 74.26 212.03 74.15 211.83C74.04 211.59 73.89 211.39 73.67 211.21C76.94 210.97 79.78 210.49 82.19 209.78C82.68 209.63 83.04 209.47 83.26 209.32C83.61 209.54 83.88 209.74 84.08 209.92C84.22 210.03 84.29 210.13 84.29 210.24C84.29 210.38 84.16 210.45 83.89 210.45C83.77 210.45 83.46 210.52 82.96 210.64C81.75 210.97 80.69 211.21 79.79 211.38V213.49H81.64L84.81 213.43C84.91 213.43 84.96 213.49 84.96 213.61V214.3C84.96 214.41 84.92 214.47 84.84 214.47L81.65 214.42H79.8V216.2H81.23L84.19 216.15C84.31 216.15 84.37 216.21 84.37 216.32L84.32 218.37V220.72L84.37 222.77C84.37 222.88 84.31 222.94 84.19 222.94L81.23 222.89H79.8ZM78.76 217.04H75.38V219.04H78.76V217.04ZM75.38 219.89V222.04H78.76V219.89H75.38ZM83.3 219.04V217.04H79.8V219.04H83.3ZM79.8 222.04H83.3V219.89H79.8V222.04ZM89.84 214.72H91.34L94.08 214.67C94.22 214.67 94.29 214.74 94.29 214.86C94.26 215.36 94.24 216.09 94.24 217.04C94.17 221.75 93.93 225.42 93.51 228.04C93.23 229.66 92.38 230.47 90.96 230.47C90.26 230.47 89.63 230.45 89.06 230.4C88.87 230.38 88.76 230.35 88.72 230.3C88.7 230.27 88.68 230.17 88.67 230.02C88.65 229.67 88.55 229.37 88.39 229.11C89.21 229.26 90.06 229.33 90.94 229.33C91.39 229.33 91.74 229.18 91.96 228.87C92.16 228.6 92.31 228.17 92.41 227.56C92.86 224.93 93.08 221 93.08 215.77H89.79C89.67 218.57 89.36 220.89 88.86 222.71C88.33 224.6 87.67 226.16 86.87 227.37C86.07 228.6 85.03 229.69 83.74 230.64C83.58 230.76 83.47 230.82 83.42 230.82C83.36 230.82 83.27 230.75 83.14 230.61C82.97 230.41 82.7 230.24 82.34 230.1C83.91 229.21 85.15 228.01 86.07 226.52C86.77 225.4 87.35 223.98 87.81 222.26C88.23 220.74 88.52 218.58 88.66 215.77H88.14L85.43 215.82C85.32 215.82 85.26 215.76 85.26 215.65V214.84C85.26 214.73 85.32 214.67 85.43 214.67L88.14 214.72H88.69C88.72 214 88.74 212.97 88.74 211.62C88.74 210.43 88.68 209.46 88.56 208.69C89.1 208.72 89.54 208.78 89.89 208.87C90.06 208.89 90.15 208.97 90.15 209.09C90.15 209.16 90.11 209.31 90.02 209.57C89.92 209.82 89.87 210.57 89.87 211.81C89.87 213.05 89.87 214.05 89.85 214.71L89.84 214.72Z" fill="black" />
		<path d="M114.46 210.57H120.28C122.51 210.57 124.1 211 125.07 211.86C125.87 212.58 126.28 213.63 126.28 214.99C126.28 216.15 125.86 217.1 125.01 217.84C124.3 218.47 123.34 218.88 122.16 219.05V219.18C123.75 219.38 124.96 219.92 125.78 220.8C126.49 221.57 126.85 222.54 126.85 223.69C126.85 225.41 126.22 226.71 124.97 227.6C123.89 228.37 122.44 228.76 120.63 228.76H114.46V210.56V210.57ZM116.08 211.95V218.46H119.63C121.33 218.46 122.61 218.11 123.48 217.42C124.21 216.83 124.58 216.06 124.58 215.09C124.58 213.92 124.21 213.1 123.46 212.62C122.75 212.17 121.62 211.95 120.06 211.95H116.09H116.08ZM116.08 219.84V227.4H120.4C123.55 227.4 125.13 226.15 125.13 223.66C125.13 222.42 124.61 221.45 123.57 220.77C122.62 220.15 121.34 219.84 119.73 219.84H116.08Z" fill="black" />
		<path d="M157.3 210.57V228.77H155.65V210.57H157.3Z" fill="black" />
		<path d="M201.33 210.57V228.77H199.76V217.31L199.78 211.92H199.5C199.26 212.75 198.68 214.51 197.78 217.21L193.68 228.77H191.56L187.52 217.21C186.93 215.52 186.34 213.76 185.76 211.92H185.49C185.49 212.27 185.48 212.64 185.48 213.02L185.52 217.34V228.78H184.02V210.58H186.79L190.74 221.99C191.39 223.84 191.99 225.62 192.53 227.33H192.79C193.72 224.54 194.32 222.79 194.58 222.06L198.58 210.57H201.32H201.33Z" fill="black" />
		<path d="M222.56 217.49C222.56 220.42 222.6 223.61 222.66 227.07C222.68 227.87 222.7 228.85 222.72 229.98C222.72 230.52 222.73 230.82 222.73 230.87C222.73 230.97 222.67 231.02 222.56 231.02H221.63C221.52 231.02 221.46 230.97 221.46 230.87C221.46 230.87 221.48 230.14 221.51 228.71C221.62 224.54 221.67 220.8 221.68 217.48C220.81 220.67 219.69 223.31 218.31 225.38C218.2 225.53 218.12 225.61 218.05 225.61C217.99 225.61 217.93 225.53 217.86 225.38C217.74 225.1 217.57 224.88 217.36 224.72C218.91 222.6 220.2 219.9 221.22 216.61H220.45L218.1 216.66C217.99 216.66 217.93 216.6 217.93 216.48V215.76C217.93 215.65 217.99 215.59 218.1 215.59L220.45 215.64H221.55V211.31C220.69 211.57 219.89 211.79 219.15 211.96C219 212 218.91 212.02 218.86 212.02C218.78 212.02 218.68 211.91 218.56 211.69C218.45 211.48 218.29 211.27 218.06 211.07C220.29 210.73 222.1 210.2 223.51 209.47C223.8 209.31 224.08 209.11 224.35 208.87C224.66 209.06 224.94 209.28 225.2 209.52C225.31 209.61 225.37 209.7 225.37 209.79C225.37 209.94 225.25 210.02 225.02 210.05C224.87 210.07 224.66 210.15 224.37 210.27C223.96 210.47 223.4 210.7 222.68 210.98V215.65L224.85 215.6C224.96 215.6 225.02 215.66 225.02 215.77V216.49C225.02 216.61 224.96 216.67 224.85 216.67L222.85 216.62C223.58 218.34 224.46 219.81 225.47 221.03C225.28 221.18 225.12 221.42 224.97 221.76C224.9 221.92 224.84 222 224.8 222C224.77 222 224.7 221.93 224.61 221.78C223.73 220.41 223.05 218.98 222.56 217.48V217.49ZM229.33 227.56C229.71 227.72 230.03 227.91 230.28 228.11C230.39 228.2 230.45 228.28 230.45 228.35C230.45 228.43 230.38 228.5 230.23 228.56C230.07 228.6 229.85 228.71 229.57 228.88C228.05 229.84 226.46 230.52 224.8 230.93C224.66 230.97 224.56 230.99 224.51 230.99C224.41 230.99 224.31 230.89 224.21 230.69C224.1 230.46 223.93 230.27 223.71 230.1C225.79 229.66 227.42 229.06 228.59 228.31C228.87 228.12 229.12 227.87 229.33 227.57V227.56ZM231.73 216.01V214.19H230.33L227.31 214.24C227.2 214.24 227.14 214.18 227.14 214.06V213.46C227.14 213.35 227.2 213.29 227.31 213.29L230.33 213.34H231.73V211.72H229.66L226.33 211.77C226.22 211.77 226.16 211.71 226.16 211.6V210.97C226.16 210.86 226.22 210.8 226.33 210.8L229.66 210.85H231.73C231.73 209.74 231.67 208.98 231.55 208.56C232.04 208.58 232.46 208.63 232.81 208.68C232.97 208.71 233.05 208.78 233.05 208.89C233.05 208.96 233 209.11 232.9 209.34C232.83 209.51 232.8 210.01 232.8 210.85H235.52L238.84 210.8C238.96 210.8 239.02 210.86 239.02 210.97V211.6C239.02 211.71 238.96 211.77 238.84 211.77L235.52 211.72H232.8V213.34H234.67L237.72 213.29C237.83 213.29 237.89 213.35 237.89 213.46V214.06C237.89 214.18 237.83 214.24 237.72 214.24L234.67 214.19H232.8V216.01H236.31L239.78 215.96C239.89 215.96 239.95 216.02 239.95 216.14V216.76C239.95 216.87 239.89 216.93 239.78 216.93L236.31 216.88H229.27L225.8 216.93C225.69 216.93 225.63 216.87 225.63 216.76V216.14C225.63 216.02 225.69 215.96 225.8 215.96L229.27 216.01H231.72H231.73ZM230.21 218.54H234.5L237.55 218.49C237.66 218.49 237.72 218.55 237.72 218.66L237.67 221.04V224.54L237.72 226.92C237.72 227.03 237.66 227.09 237.55 227.09L234.5 227.04H230.21L227.16 227.09C227.05 227.09 226.99 227.03 226.99 226.92L227.04 224.54V221.04L226.99 218.66C226.99 218.55 227.05 218.49 227.16 218.49L230.21 218.54ZM228.11 221.06H236.6V219.44H228.11V221.06ZM228.11 221.89V223.5H236.6V221.89H228.11ZM228.11 224.33V226.13H236.6V224.33H228.11ZM240.44 230C240.22 230.16 240.05 230.36 239.94 230.6C239.85 230.8 239.76 230.9 239.67 230.9C239.61 230.9 239.5 230.87 239.32 230.8C237.55 230.18 235.98 229.35 234.6 228.3C234.54 228.27 234.51 228.23 234.51 228.2C234.51 228.16 234.59 228.07 234.74 227.94L235.07 227.67C235.15 227.59 235.21 227.55 235.25 227.55C235.28 227.55 235.33 227.57 235.4 227.62C236.68 228.6 238.36 229.39 240.44 229.99V230Z" fill="black" />
		<path d="M258.21 210.82H262.14L264.69 210.77C264.8 210.77 264.86 210.83 264.86 210.94V211.65C264.86 211.76 264.8 211.82 264.69 211.82L262.14 211.77H261.12C261.49 212.42 261.83 213.11 262.13 213.84C262.15 213.88 262.15 213.91 262.15 213.94C262.15 214.01 262.06 214.07 261.88 214.14L261.47 214.27C261.3 214.33 261.19 214.36 261.15 214.36C261.1 214.36 261.07 214.32 261.04 214.23C260.74 213.28 260.38 212.46 259.97 211.78H257.69C257.02 212.89 256.17 213.95 255.14 214.95C254.98 215.1 254.87 215.18 254.82 215.18C254.75 215.18 254.65 215.11 254.52 214.97C254.36 214.8 254.15 214.67 253.9 214.59C255.61 213.05 256.83 211.38 257.57 209.58C257.71 209.23 257.8 208.9 257.85 208.58C258.29 208.66 258.66 208.76 258.97 208.88C259.1 208.95 259.16 209.02 259.16 209.1C259.16 209.18 259.09 209.29 258.97 209.43C258.83 209.56 258.71 209.74 258.62 209.98C258.57 210.09 258.5 210.24 258.41 210.43C258.31 210.62 258.25 210.76 258.22 210.82H258.21ZM268.77 226.25H272.6L275.89 226.2C276 226.2 276.06 226.26 276.06 226.37V227.1C276.06 227.21 276 227.27 275.89 227.27L272.6 227.22H268.77V228.6L268.83 230.84C268.83 230.95 268.77 231.01 268.65 231.01H267.81C267.69 231.01 267.63 230.95 267.63 230.84L267.68 228.6V227.22H261.97C261.07 229.13 259.11 230.39 256.09 230.99C255.94 231.03 255.85 231.05 255.8 231.05C255.71 231.05 255.6 230.96 255.47 230.77C255.32 230.53 255.11 230.33 254.82 230.17C257.87 229.69 259.83 228.71 260.71 227.22H257.84L254.54 227.27C254.43 227.27 254.37 227.21 254.37 227.1V226.37C254.37 226.26 254.43 226.2 254.54 226.2L257.84 226.25H261.16C261.35 225.61 261.46 224.92 261.49 224.2L258.14 224.25C258.03 224.25 257.97 224.19 257.97 224.08L258.02 221.58V217.59L257.97 215.05C257.97 214.94 258.03 214.88 258.14 214.88L261.61 214.93H268.57L272.04 214.88C272.15 214.88 272.21 214.94 272.21 215.05L272.16 217.59V221.58L272.21 224.08C272.21 224.19 272.15 224.25 272.04 224.25L268.76 224.2V226.25H268.77ZM259.09 217.72H271.1V215.87H259.09V217.72ZM259.09 218.62V220.49H271.1V218.62H259.09ZM259.09 221.37V223.31H271.1V221.37H259.09ZM267.67 226.25V224.2H262.63C262.57 224.93 262.46 225.61 262.3 226.25H267.67ZM267.38 210.82H272.79L275.69 210.77C275.8 210.77 275.86 210.83 275.86 210.94V211.65C275.86 211.76 275.8 211.82 275.69 211.82L272.79 211.77H270.42C270.75 212.24 271.09 212.89 271.43 213.72C271.45 213.76 271.47 213.79 271.47 213.82C271.47 213.89 271.38 213.95 271.21 214.01L270.73 214.17C270.6 214.21 270.52 214.23 270.49 214.23C270.45 214.23 270.41 214.18 270.37 214.07C270.08 213.22 269.71 212.45 269.27 211.77H266.92C266.48 212.57 265.95 213.34 265.32 214.06C265.17 214.23 265.08 214.32 265.04 214.32C264.99 214.32 264.89 214.26 264.72 214.14C264.52 214.02 264.31 213.93 264.1 213.87C265.26 212.64 266.13 211.24 266.7 209.68C266.81 209.35 266.89 208.98 266.94 208.58C267.31 208.63 267.68 208.71 268.04 208.84C268.19 208.89 268.27 208.95 268.27 209.04C268.27 209.13 268.2 209.23 268.07 209.37C267.95 209.48 267.84 209.68 267.74 209.97C267.59 210.34 267.46 210.62 267.36 210.84L267.38 210.82Z" fill="black" />
		<path d="M302.03 218.6V220.8H306.96L310.5 220.75C310.62 220.75 310.68 220.8 310.68 220.9V221.61C310.68 221.72 310.62 221.78 310.5 221.78L306.96 221.73H297.32L293.7 221.78C293.59 221.78 293.53 221.72 293.53 221.61L293.58 218.87V215.93C293.58 215.18 293.6 214.33 293.63 213.37C292.83 214.25 291.99 215.06 291.11 215.81C290.96 215.93 290.86 215.99 290.81 215.99C290.74 215.99 290.66 215.91 290.57 215.76C290.43 215.53 290.25 215.34 290.02 215.19C291.12 214.47 292.17 213.54 293.17 212.41C293.88 211.61 294.46 210.82 294.91 210.04C295.26 209.47 295.5 208.97 295.62 208.54C296.11 208.69 296.48 208.83 296.74 208.97C296.87 209.04 296.93 209.12 296.93 209.21C296.93 209.29 296.84 209.39 296.67 209.51C296.6 209.56 296.35 209.88 295.9 210.46C295.6 210.91 295.34 211.27 295.13 211.56H300.97C301.4 210.95 301.73 210.4 301.94 209.91C302.2 209.37 302.35 208.91 302.39 208.56C302.83 208.67 303.21 208.81 303.54 208.96C303.69 209.03 303.77 209.11 303.77 209.23C303.77 209.32 303.68 209.41 303.51 209.51C303.43 209.56 303.29 209.76 303.08 210.11C302.69 210.77 302.38 211.25 302.15 211.56H306.8L310.32 211.51C310.43 211.51 310.49 211.57 310.49 211.68V212.36C310.49 212.49 310.43 212.55 310.32 212.55L306.8 212.5H302.03V214.6H305.65L309.15 214.55C309.28 214.55 309.35 214.61 309.35 214.72V215.4C309.35 215.51 309.28 215.57 309.15 215.57L305.65 215.52H302.03V217.67H305.65L309.15 217.62C309.28 217.62 309.35 217.68 309.35 217.79V218.47C309.35 218.58 309.28 218.64 309.15 218.64L305.65 218.59H302.03V218.6ZM301.75 225.18L301.88 230.92C301.88 231.02 301.82 231.07 301.7 231.07H300.81C300.69 231.07 300.63 231.02 300.63 230.92L300.76 225.15C298.62 227.28 295.49 228.94 291.37 230.14C291.22 230.18 291.13 230.2 291.08 230.2C290.99 230.2 290.89 230.09 290.76 229.87C290.63 229.63 290.47 229.42 290.28 229.26C294.3 228.24 297.45 226.78 299.73 224.87H294.45L291.09 224.92C290.98 224.92 290.92 224.86 290.92 224.75V223.97C290.92 223.86 290.98 223.8 291.09 223.8L294.45 223.85H300.69V223.75C300.69 222.9 300.66 222.31 300.59 221.99C301.19 222.06 301.58 222.12 301.76 222.15C301.93 222.19 302.02 222.26 302.02 222.34C302.02 222.39 301.97 222.5 301.87 222.67C301.82 222.75 301.8 223.09 301.8 223.69V223.84H308.34L311.72 223.79C311.83 223.79 311.89 223.85 311.89 223.96V224.74C311.89 224.85 311.83 224.91 311.72 224.91L308.34 224.86H302.67C304.17 226.05 305.71 226.99 307.27 227.68C308.73 228.32 310.46 228.88 312.49 229.34C312.3 229.49 312.12 229.71 311.94 230.01C311.82 230.24 311.71 230.35 311.61 230.35C311.56 230.35 311.46 230.33 311.32 230.28C307.3 229.17 304.11 227.47 301.75 225.17V225.18ZM300.99 214.6V212.5H294.67V214.6H300.99ZM300.99 215.53H294.67V217.68H300.99V215.53ZM300.99 218.6H294.67V220.8H300.99V218.6Z" fill="black" />
		<path d="M333.52 214.52H329.61L326.73 214.57C326.63 214.57 326.58 214.51 326.58 214.38V213.6C326.58 213.5 326.63 213.45 326.73 213.45L329.61 213.5H333.52L336.4 213.45C336.51 213.45 336.57 213.5 336.57 213.6V214.38C336.57 214.51 336.51 214.57 336.4 214.57L333.52 214.52ZM333.07 211.07H330.56L328.18 211.12C328.07 211.12 328.01 211.06 328.01 210.95V210.19C328.01 210.08 328.07 210.02 328.18 210.02L330.56 210.07H333.07L335.42 210.02C335.55 210.02 335.61 210.08 335.61 210.19V210.95C335.61 211.06 335.54 211.12 335.42 211.12L333.07 211.07ZM329.21 229.4V230.9C329.21 231 329.15 231.05 329.04 231.05H328.24C328.13 231.05 328.07 231 328.07 230.9L328.12 227.25V225.77L328.07 223.65C328.07 223.54 328.13 223.48 328.24 223.48L330.57 223.53H332.86L335.19 223.48C335.3 223.48 335.36 223.54 335.36 223.65L335.31 225.41V226.95L335.36 230.42C335.36 230.53 335.3 230.59 335.19 230.59H334.39C334.28 230.59 334.22 230.53 334.22 230.42V229.4H329.22H329.21ZM332.76 217.84H330.61L328.44 217.89C328.32 217.89 328.26 217.83 328.26 217.72V216.99C328.26 216.88 328.32 216.82 328.44 216.82L330.61 216.87H332.76L334.91 216.82C335.04 216.82 335.1 216.88 335.1 216.99V217.72C335.1 217.83 335.03 217.89 334.91 217.89L332.76 217.84ZM328.26 221.11V220.37C328.26 220.25 328.32 220.19 328.44 220.19L330.61 220.25H332.76L334.91 220.19C335.04 220.19 335.1 220.25 335.1 220.37V221.11C335.1 221.21 335.03 221.26 334.91 221.26L332.76 221.24H330.61L328.44 221.26C328.32 221.26 328.26 221.21 328.26 221.11ZM329.21 228.45H334.21V224.49H329.21V228.45ZM342.1 217.24V211.95C342.1 210.43 342.04 209.33 341.93 208.65C342.34 208.67 342.79 208.72 343.27 208.77C343.43 208.8 343.51 208.87 343.51 208.98C343.51 209.04 343.48 209.18 343.41 209.41C343.31 209.77 343.26 210.6 343.26 211.9V217.25H345.53L348.83 217.2C348.94 217.2 349 217.27 349 217.39V218.22C349 218.33 348.94 218.39 348.83 218.39L345.53 218.34H343.26V226.4L343.31 230.83C343.31 230.94 343.25 231 343.14 231H342.21C342.1 231 342.04 230.94 342.04 230.83L342.09 226.43V218.35H339.99L336.7 218.4C336.58 218.4 336.52 218.34 336.52 218.23V217.4C336.52 217.27 336.58 217.21 336.7 217.21L339.99 217.26H342.09L342.1 217.24Z" fill="black" />
		<path d="M364.51 217.89L365.13 216.99C365.2 216.88 365.29 216.83 365.39 216.83C365.43 216.83 365.48 216.84 365.54 216.87C367.14 217.44 368.56 218.17 369.78 219.07C369.91 219.16 369.98 219.25 369.98 219.34C369.98 219.4 369.96 219.47 369.91 219.55C369.88 219.62 369.71 219.87 369.41 220.32C369.34 220.43 369.28 220.48 369.2 220.48C369.13 220.48 369.05 220.44 368.96 220.35C367.75 219.38 366.27 218.57 364.52 217.91L364.51 217.89ZM366.61 227.43C367.48 227.22 368.27 226.94 368.99 226.59C371.72 225.13 374.01 223.71 375.85 222.32C378.75 220.04 381.11 217.74 382.93 215.39C383.01 215.89 383.15 216.33 383.36 216.7C383.39 216.76 383.41 216.81 383.41 216.87C383.41 216.97 383.35 217.09 383.24 217.22C381.44 219.37 379.21 221.45 376.57 223.45C374.78 224.84 372.37 226.37 369.33 228.05C368.95 228.25 368.58 228.53 368.23 228.88C368.15 228.97 368.06 229.01 367.96 229.01C367.85 229.01 367.75 228.96 367.66 228.85C367.29 228.45 366.94 227.98 366.61 227.42V227.43ZM367.46 212.15C367.64 211.9 367.85 211.61 368.11 211.27C368.2 211.15 368.27 211.09 368.33 211.09C368.37 211.09 368.43 211.11 368.51 211.15C370.19 211.89 371.59 212.74 372.7 213.7C372.81 213.78 372.87 213.85 372.87 213.92C372.87 213.97 372.84 214.05 372.77 214.15C372.56 214.46 372.38 214.71 372.22 214.92C372.17 214.99 372.11 215.03 372.05 215.03C371.99 215.03 371.9 214.99 371.79 214.9C370.59 213.83 369.14 212.91 367.45 212.16L367.46 212.15Z" fill="black" />
		<path d="M411.61 220.35C414.43 222.42 416.83 224.53 418.82 226.68C418.93 226.78 418.98 226.86 418.98 226.92C418.98 226.97 418.94 227.04 418.86 227.14C418.74 227.28 418.51 227.51 418.18 227.85C418.12 227.91 418.07 227.94 418.03 227.94C417.97 227.94 417.9 227.9 417.81 227.81C415.76 225.47 413.42 223.33 410.79 221.38C407.88 224.43 404.88 226.79 401.78 228.45C401.67 228.51 401.59 228.54 401.52 228.54C401.44 228.54 401.36 228.5 401.28 228.41C401.02 228.12 400.67 227.87 400.23 227.68C403.75 225.88 406.81 223.6 409.42 220.84C411.25 218.86 412.84 216.58 414.19 214H406.4C404.94 214 403.78 214.04 402.9 214.13H402.83C402.7 214.13 402.63 214.06 402.61 213.92C402.54 213.52 402.5 213.11 402.5 212.7C403.3 212.75 404.56 212.77 406.25 212.77H413.59C414.22 212.77 414.64 212.7 414.86 212.56C414.91 212.54 414.97 212.52 415.03 212.52C415.16 212.52 415.27 212.56 415.36 212.64C415.61 212.82 415.87 213.06 416.13 213.36C416.2 213.44 416.24 213.54 416.24 213.64C416.24 213.79 416.18 213.89 416.06 213.96C415.87 214.07 415.66 214.32 415.41 214.73C414.25 216.81 412.98 218.68 411.62 220.35H411.61Z" fill="black" />
		<path d="M447.19 218.34C447.08 221.2 446.58 223.44 445.71 225.06C444.65 227.02 443.18 228.56 441.31 229.68C441.15 229.78 441.01 229.83 440.91 229.83C440.84 229.83 440.77 229.81 440.71 229.76C440.36 229.47 439.97 229.25 439.54 229.11C440.86 228.44 441.9 227.73 442.67 226.96C443.33 226.31 443.9 225.51 444.4 224.56C445.24 222.95 445.67 220.88 445.7 218.34H440.51C439.4 218.34 438.21 218.38 436.94 218.46C436.79 218.46 436.69 218.44 436.65 218.39C436.62 218.36 436.59 218.27 436.56 218.13C436.56 218.07 436.52 217.7 436.46 217.02C437.77 217.09 439.12 217.12 440.51 217.12H451.17C452.71 217.12 454.19 217.09 455.58 217.02C455.77 217.02 455.86 217.14 455.86 217.37V218.16C455.86 218.32 455.76 218.4 455.56 218.4C454.05 218.35 452.59 218.33 451.19 218.33H447.18L447.19 218.34ZM439.52 211.51C440.74 211.58 441.99 211.61 443.29 211.61H448.29C450.05 211.61 451.39 211.58 452.29 211.52H452.36C452.49 211.52 452.55 211.62 452.55 211.82V212.54C452.55 212.76 452.45 212.87 452.25 212.87C451.36 212.84 450.04 212.82 448.29 212.82H443.29C441.79 212.82 440.66 212.84 439.9 212.89C439.88 212.89 439.85 212.9 439.82 212.9C439.69 212.9 439.62 212.81 439.6 212.62L439.53 211.5L439.52 211.51Z" fill="black" />
		<path d="M481.13 210.5C481.9 210.7 482.52 210.94 483 211.24C483.1 211.31 483.15 211.39 483.15 211.5C483.15 211.62 483.08 211.75 482.96 211.89C482.62 212.24 482.31 212.83 482.03 213.67C480.63 218 479.04 222.16 477.26 226.13C481.39 225.85 485.16 225.45 488.58 224.91C487.71 223.32 486.67 221.82 485.46 220.41C485.91 220.12 486.2 219.94 486.31 219.89C486.39 219.84 486.46 219.82 486.52 219.82C486.6 219.82 486.68 219.88 486.76 219.99C488.43 221.95 490.01 224.47 491.5 227.56C491.53 227.62 491.55 227.67 491.55 227.72C491.55 227.81 491.5 227.89 491.4 227.95C491.15 228.11 490.86 228.27 490.55 228.43C490.5 228.45 490.46 228.47 490.43 228.47C490.33 228.47 490.25 228.39 490.17 228.24C489.85 227.46 489.5 226.74 489.12 226.07C485.39 226.64 481.24 227.14 476.66 227.57C475.32 227.69 474.47 227.87 474.11 228.09C474 228.17 473.88 228.21 473.77 228.21C473.62 228.21 473.52 228.14 473.47 228.02C473.31 227.61 473.13 227.03 472.95 226.29C473.34 226.33 473.76 226.35 474.21 226.35C474.66 226.35 475.21 226.33 475.86 226.29C477.79 221.85 479.36 217.67 480.55 213.76C480.92 212.47 481.12 211.39 481.15 210.52L481.13 210.5Z" fill="black" />
	</g>
	<defs>
		<clipPath id="clip0_115_65">
			<rect width="500.28" height="231.07" fill="white" />
		</clipPath>
	</defs>
</svg>
