<svg viewBox="0 -81.948 766.627 581.948" xmlns="http://www.w3.org/2000/svg" xmlns:xlink="http://www.w3.org/1999/xlink" xmlns:bx="https://boxy-svg.com">
  <defs>
    <clipPath id="clip0_115_2">
      <rect width="250" height="531.04" fill="white"></rect>
    </clipPath>
    <path id="path-0" d="M 409.979 108.564 C 504.672 172.943 565.448 206.342 625 227.717 L 632.202 230.671 C 638.727 233.013 644.68 234.674 650.72 237.564" style="fill: none;"></path>
    <path id="path-1" d="M 340.021 45.541 L 348.251 54.404 C 383.88 88.506 422.78 120.169 465.535 144.999 C 491.599 160.136 520.155 170.042 545.782 185.373" style="fill: none;"></path>
    <style bx:fonts="Palanquin">@import url(https://fonts.googleapis.com/css2?family=Palanquin%3Aital%2Cwght%400%2C100%3B0%2C200%3B0%2C300%3B0%2C400%3B0%2C500%3B0%2C600%3B0%2C700&amp;display=swap);</style>
    <linearGradient gradientUnits="userSpaceOnUse" x1="205.361" y1="208.389" x2="205.361" y2="239.696" id="gradient-0">
      <stop offset="0" style="stop-color: #bada55"></stop>
      <stop offset="1" style="stop-color: #758d29"></stop>
    </linearGradient>
  </defs>
  <g clip-path="url(#clip0_115_2)" transform="matrix(0.577197, 0, 0, 0.603029, 137.470322, 7.639151)" style="">
    <path fill-rule="evenodd" clip-rule="evenodd" d="M128.94 102.67V73.5L148.07 85.83V87.86H148.11V106.42C141.43 106.15 135.05 104.9 128.94 102.67ZM113.11 78.29L128.94 68.64V60.75L148.07 73.04V75.07H148.11V80.03L151.98 82.8V85.45L128.95 70.92L113.12 80.57V78.29M158.08 106.17V94.53L166.83 100.15V100.59L168.62 99.54L158.08 92.86V86.23L166.83 91.89V92.34L168.62 91.24L158.08 84.61V77.98L166.83 83.59V84.08L168.62 82.98L158.08 76.35V69.71L166.83 75.33V75.82L168.62 74.72L158.08 68.08V61.41L148.15 67.27L151.98 70V72.69L148.11 70.25L128.94 58.2V58.16L113.11 67.81V65.53L128.94 55.88V47.74L148.07 60.03V62.11L152.01 59.75L128.94 45.18L113.11 54.82V52.54L128.94 42.89V34.87L148.07 47.16V49.24L152.01 46.88L128.94 32.31L113.11 41.91V39.67L128.94 29.98V22.13L107.62 35.97V88.26C98.69 77.84 94.71 65.82 95.65 52.2C96.6 38.58 102.53 25.83 113.43 13.95C118.88 8.30999 124.92 3.65999 131.54 -0.0100098C120.96 3.94999 111.56 10.18 103.34 18.67C95.15 27.43 89.76 36.86 87.18 46.95C84.6 57.02 84.81 66.71 87.79 76.05C90.75 85.38 96.47 93.32 104.96 99.86C115.21 107.24 126.84 111.02 139.83 111.21C152.83 111.37 165.36 108.17 177.43 101.61C171.09 104 164.63 105.52 158.06 106.17" style="fill: rgb(27, 87, 166);"></path>
    <path fill-rule="evenodd" clip-rule="evenodd" d="M107.62 107.63C97.88 102.15 90.66 94.93 85.97 85.98C81.28 77.03 79.32 67.37 80.11 57.01C80.87 46.62 84.56 36.55 91.18 26.81C95.88 20.19 101.41 14.59 107.79 10.01C98.84 15.16 91.27 22.09 85.08 30.8C78.44 40.54 74.73 50.59 73.97 60.95C73.21 71.34 75.18 81.01 79.87 89.97C84.56 98.92 91.77 106.14 101.48 111.62C112.95 117.67 125.16 120.06 138.1 118.78C151.01 117.48 162.91 112.97 173.79 105.27C163.38 111.24 152.33 114.5 140.67 115.04C129.01 115.61 117.99 113.14 107.63 107.64" style="fill: rgb(204, 58, 38);"></path>
    <path d="M22.41 157.28V123.08H34.85C38.66 123.08 41.6 123.78 43.65 125.18C45.7 126.58 46.73 128.55 46.73 131.09C46.73 132.94 46.11 134.56 44.86 135.93C43.61 137.31 42.02 138.28 40.08 138.82V138.91C42.51 139.22 44.45 140.12 45.9 141.61C47.36 143.1 48.09 144.92 48.09 147.07C48.09 150.21 46.96 152.7 44.72 154.53C42.48 156.36 39.42 157.28 35.55 157.28H22.41ZM30.11 128.76V136.87H33.49C35.08 136.87 36.34 136.49 37.25 135.71C38.17 134.94 38.62 133.88 38.62 132.53C38.62 130.01 36.74 128.75 32.99 128.75H30.1L30.11 128.76ZM30.11 142.59V151.61H34.28C36.06 151.61 37.45 151.2 38.46 150.38C39.47 149.55 39.97 148.42 39.97 146.99C39.97 145.56 39.47 144.55 38.48 143.77C37.49 142.99 36.1 142.6 34.32 142.6H30.1L30.11 142.59ZM64.25 123.08V129.04H61.39V151.31H64.25V157.27H50.83V151.31H53.69V129.04H50.83V123.08H64.25ZM102.45 129.35H90.38V137.74H101.47V144H90.38V157.28H82.69V123.08H102.45V129.35ZM119.04 157.88C114.97 157.88 111.77 156.74 109.44 154.46C107.12 152.18 105.96 149.08 105.96 145.16C105.96 141.24 107.17 137.97 109.58 135.69C112 133.41 115.26 132.27 119.38 132.27C123.5 132.27 126.61 133.41 128.92 135.69C131.22 137.97 132.38 140.99 132.38 144.74C132.38 148.79 131.19 152 128.81 154.35C126.44 156.7 123.18 157.87 119.04 157.87V157.88ZM119.23 138.04C117.45 138.04 116.07 138.66 115.08 139.88C114.1 141.1 113.61 142.83 113.61 145.07C113.61 149.76 115.5 152.1 119.28 152.1C123.06 152.1 124.7 149.69 124.7 144.88C124.7 140.32 122.88 138.04 119.23 138.04ZM153.19 139.66C152.28 139.17 151.23 138.92 150.02 138.92C148.37 138.92 147.09 139.52 146.17 140.73C145.25 141.93 144.8 143.56 144.8 145.63V157.29H137.26V132.87H144.8V137.4H144.89C146.08 134.09 148.23 132.44 151.34 132.44C152.13 132.44 152.74 132.54 153.2 132.73V139.66H153.19ZM200.98 157.28H192.59L190.16 149.68H177.99L175.59 157.28H167.25L179.7 123.08H188.83L200.99 157.28H200.98ZM188.39 143.76L184.71 132.26C184.44 131.41 184.25 130.38 184.14 129.18H183.95C183.87 130.18 183.67 131.18 183.35 132.17L179.64 143.75H188.39V143.76ZM229.08 156.06C226.59 157.27 223.33 157.88 219.3 157.88C214.06 157.88 209.93 156.34 206.93 153.25C203.93 150.17 202.43 146.06 202.43 140.93C202.43 135.46 204.11 131.03 207.49 127.63C210.87 124.22 215.25 122.52 220.64 122.52C223.98 122.52 226.79 122.95 229.08 123.79V131.2C226.79 129.83 224.18 129.14 221.26 129.14C218.05 129.14 215.45 130.15 213.48 132.18C211.51 134.2 210.53 136.93 210.53 140.38C210.53 143.83 211.46 146.33 213.32 148.29C215.18 150.25 217.69 151.23 220.84 151.23C223.99 151.23 226.6 150.5 229.09 149.03V156.06H229.08Z" style="fill: rgb(27, 87, 166);"></path>
    <path d="M31.1801 185.98V182.05C32.5501 183.05 34.1601 183.55 35.9901 183.55C37.1501 183.55 38.0501 183.31 38.6901 182.81C39.3301 182.31 39.6601 181.61 39.6601 180.72C39.6601 179.83 39.2601 179.1 38.4601 178.61C37.6701 178.11 36.5801 177.86 35.1801 177.86H33.3401V174.4H35.0401C37.7101 174.4 39.0501 173.52 39.0501 171.74C39.0501 170.07 38.0201 169.23 35.9701 169.23C34.6001 169.23 33.2601 169.67 31.9601 170.55V166.86C33.4001 166.14 35.0801 165.78 37.0001 165.78C39.1001 165.78 40.7301 166.25 41.9001 167.19C43.0701 168.13 43.6501 169.36 43.6501 170.86C43.6501 173.54 42.2901 175.22 39.5801 175.9V175.98C41.0301 176.16 42.1701 176.69 43.0101 177.56C43.8501 178.43 44.2701 179.51 44.2701 180.78C44.2701 182.7 43.5601 184.21 42.1601 185.33C40.7601 186.44 38.8301 187 36.3601 187C34.2401 187 32.5101 186.66 31.1801 185.97V185.98ZM48.2501 186.66V166.15H55.5101C62.8001 166.15 66.4501 169.48 66.4501 176.15C66.4501 179.35 65.4501 181.9 63.4601 183.81C61.4701 185.72 58.8201 186.67 55.5101 186.67H48.2501V186.66ZM52.8701 169.91V182.91H55.1601C57.1601 182.91 58.7301 182.31 59.8701 181.12C61.0101 179.92 61.5901 178.28 61.5901 176.21C61.5901 174.25 61.0201 172.71 59.8901 171.59C58.7601 170.47 57.1801 169.91 55.1501 169.91H52.8901H52.8701ZM90.2501 186.66H77.9501V166.15H89.7801V169.91H82.5701V174.46H89.2801V178.21H82.5701V182.9H90.2501V186.65V186.66ZM92.1601 186.28V182.62C92.9001 183.06 93.6501 183.39 94.3901 183.61C95.1301 183.83 95.8301 183.94 96.4901 183.94C97.2901 183.94 97.9301 183.83 98.3801 183.61C98.8401 183.39 99.0801 183.06 99.0801 182.62C99.0801 182.33 98.9701 182.1 98.7601 181.91C98.5501 181.72 98.2801 181.55 97.9501 181.4C97.6301 181.26 97.2701 181.13 96.8701 181.02C96.4801 180.9 96.1101 180.77 95.7501 180.63C95.1701 180.41 94.6501 180.18 94.2001 179.93C93.7601 179.68 93.3901 179.38 93.0801 179.05C92.7801 178.71 92.5501 178.32 92.3901 177.88C92.2401 177.44 92.1601 176.92 92.1601 176.33C92.1601 175.51 92.3401 174.8 92.6901 174.21C93.0501 173.62 93.5301 173.14 94.1301 172.76C94.7201 172.38 95.4001 172.1 96.1601 171.93C96.9301 171.75 97.7301 171.66 98.5601 171.66C99.2101 171.66 99.8701 171.71 100.53 171.81C101.2 171.91 101.86 172.05 102.51 172.24V175.72C101.93 175.39 101.32 175.14 100.67 174.98C100.01 174.81 99.3801 174.73 98.7501 174.73C98.4501 174.73 98.1701 174.76 97.9101 174.81C97.6501 174.86 97.4101 174.94 97.2101 175.04C97.0101 175.14 96.8601 175.28 96.7401 175.43C96.6301 175.58 96.5701 175.76 96.5701 175.95C96.5701 176.22 96.6501 176.46 96.8201 176.65C96.9901 176.84 97.2101 177 97.4901 177.15C97.7701 177.29 98.0801 177.41 98.4201 177.52C98.7601 177.62 99.0901 177.73 99.4201 177.85C100.02 178.06 100.57 178.29 101.05 178.54C101.54 178.79 101.96 179.08 102.31 179.42C102.66 179.75 102.92 180.14 103.11 180.59C103.29 181.04 103.39 181.58 103.39 182.19C103.39 183.06 103.2 183.8 102.82 184.42C102.44 185.03 101.95 185.53 101.32 185.92C100.69 186.3 99.9701 186.58 99.1601 186.76C98.3501 186.94 97.5001 187.03 96.6201 187.03C95.0101 187.03 93.5201 186.78 92.1401 186.29L92.1601 186.28ZM114.86 186.48C114.19 186.84 113.18 187.01 111.85 187.01C108.66 187.01 107.07 185.36 107.07 182.05V175.34H104.69V172.01H107.07V168.84L111.57 167.56V172.01H114.86V175.34H111.57V181.27C111.57 182.8 112.17 183.56 113.39 183.56C113.86 183.56 114.36 183.42 114.86 183.14V186.48ZM119.68 169.7C118.92 169.7 118.29 169.48 117.8 169.03C117.32 168.57 117.08 168.01 117.08 167.35C117.08 166.69 117.32 166.12 117.8 165.7C118.29 165.27 118.92 165.05 119.68 165.05C120.44 165.05 121.07 165.27 121.55 165.7C122.03 166.13 122.27 166.68 122.27 167.35C122.27 168.02 122.03 168.6 121.55 169.04C121.07 169.48 120.45 169.7 119.68 169.7ZM121.91 186.66H117.4V172.01H121.91V186.66ZM149.01 186.66H144.51V178.31C144.51 176.18 143.72 175.12 142.16 175.12C141.41 175.12 140.81 175.44 140.34 176.09C139.87 176.73 139.64 177.52 139.64 178.47V186.67H135.13V178.23C135.13 176.16 134.36 175.13 132.82 175.13C132.05 175.13 131.43 175.44 130.96 176.05C130.5 176.66 130.27 177.49 130.27 178.54V186.68H125.76V172.03H130.27V174.32H130.33C130.79 173.54 131.45 172.91 132.29 172.41C133.14 171.92 134.06 171.67 135.06 171.67C137.13 171.67 138.54 172.58 139.31 174.4C140.43 172.58 142.07 171.67 144.23 171.67C147.42 171.67 149.01 173.63 149.01 177.56V186.68V186.66ZM164.77 186.66H160.5V184.56H160.44C159.45 186.2 158 187.01 156.08 187.01C154.66 187.01 153.54 186.61 152.72 185.8C151.91 185 151.5 183.92 151.5 182.57C151.5 179.73 153.18 178.09 156.55 177.65L160.53 177.13C160.53 175.53 159.66 174.73 157.92 174.73C156.18 174.73 154.52 175.25 152.95 176.28V172.89C153.58 172.56 154.44 172.27 155.53 172.02C156.62 171.78 157.62 171.65 158.51 171.65C162.69 171.65 164.78 173.73 164.78 177.89V186.65L164.77 186.66ZM160.52 180.71V179.72L157.86 180.06C156.39 180.26 155.66 180.92 155.66 182.06C155.66 182.57 155.84 182.99 156.19 183.32C156.55 183.65 157.03 183.82 157.64 183.82C158.49 183.82 159.18 183.53 159.71 182.94C160.24 182.36 160.51 181.61 160.51 180.71H160.52ZM177.18 186.48C176.51 186.84 175.51 187.01 174.17 187.01C170.98 187.01 169.39 185.36 169.39 182.05V175.34H167.01V172.01H169.39V168.84L173.89 167.56V172.01H177.18V175.34H173.89V181.27C173.89 182.8 174.49 183.56 175.71 183.56C176.18 183.56 176.68 183.42 177.18 183.14V186.48ZM182 169.7C181.24 169.7 180.61 169.48 180.12 169.03C179.64 168.57 179.39 168.01 179.39 167.35C179.39 166.69 179.63 166.12 180.12 165.7C180.61 165.27 181.24 165.05 182 165.05C182.76 165.05 183.39 165.27 183.87 165.7C184.35 166.13 184.6 166.68 184.6 167.35C184.6 168.02 184.36 168.6 183.87 169.04C183.39 169.48 182.77 169.7 182 169.7ZM184.23 186.66H179.72V172.01H184.23V186.66ZM195.05 187.02C192.61 187.02 190.69 186.34 189.29 184.97C187.89 183.6 187.19 181.74 187.19 179.39C187.19 177.04 187.92 175.09 189.36 173.72C190.81 172.35 192.77 171.66 195.24 171.66C197.71 171.66 199.58 172.35 200.96 173.72C202.35 175.09 203.05 176.89 203.05 179.14C203.05 181.58 202.33 183.5 200.9 184.91C199.48 186.32 197.52 187.02 195.05 187.02ZM195.16 175.11C194.09 175.11 193.26 175.48 192.67 176.22C192.08 176.95 191.78 177.99 191.78 179.34C191.78 182.16 192.91 183.56 195.19 183.56C197.47 183.56 198.43 182.12 198.43 179.22C198.43 176.48 197.34 175.11 195.16 175.11ZM220.12 186.66H215.62V178.52C215.62 176.25 214.81 175.11 213.19 175.11C212.4 175.11 211.75 175.41 211.24 176.01C210.74 176.61 210.49 177.38 210.49 178.3V186.65H205.98V172H210.49V174.31H210.55C211.62 172.53 213.2 171.64 215.25 171.64C218.49 171.64 220.11 173.66 220.11 177.68V186.64L220.12 186.66Z" style="fill: rgb(204, 58, 38);"></path>
    <g opacity="0.96"></g>
    <text style="fill: rgb(51, 51, 51); font-family: Palanquin; font-size: 28px; white-space: pre;"><textPath xlink:href="#path-0">Enter your text here </textPath></text>
    <text style="fill: rgb(51, 51, 51); font-family: Palanquin; font-size: 28px; white-space: pre;"><textPath xlink:href="#path-1">Enter your text her</textPath></text>
  </g>
  <text style="fill: rgb(27, 87, 166); font-family: Arial, sans-serif; font-size: 28.043px; font-weight: 700; paint-order: fill; white-space: pre;" transform="matrix(2.263508, 0, 0, 1.782977, -685.949463, 90.587921)"><tspan x="371.734" y="63.011">Inf</tspan><tspan x="371.734" dy="1em">​</tspan></text>
  <path d="M 288.024 135.717 L 299.579 165.932 L 276.469 165.932 L 288.024 135.717 Z" style="transform-box: fill-box; transform-origin: 50% 50%; fill: rgb(204, 58, 38); stroke: rgb(204, 58, 38); paint-order: fill;" transform="matrix(-0.999871, -0.016073, 0.016073, -0.999871, -38.027796, 43.820148)" bx:shape="triangle 276.469 135.717 23.11 30.215 0.5 0 1@22840b02"></path>
  <text style="fill: rgb(27, 87, 166); font-family: Arial, sans-serif; font-size: 22.3668px; font-weight: 700; paint-order: fill; stroke-linejoin: round; white-space: pre;" transform="matrix(2.896102, 0, 0, 2.581383, -367.148041, -353.308472)" x="182.002" y="233.773">360</text>
  <ellipse style="fill: rgb(204, 58, 38); stroke: rgb(204, 58, 38); paint-order: stroke markers; fill-rule: evenodd;" cx="250.368" cy="176.434" rx="12.287" ry="11.972"></ellipse>
  <ellipse style="fill: rgb(255, 255, 255); stroke: rgb(255, 255, 255);" cx="250.368" cy="176.434" rx="5.356" ry="5.671"></ellipse>
  <text style="fill: rgb(51, 51, 51); font-family: Arial, sans-serif; font-size: 50px; font-weight: 700; white-space: pre;" transform="matrix(1, 0, 0, 1, -6.931156, 35.915985)"><tspan x="168.77" y="300.704">点群</tspan><tspan x="168.77" dy="1em">​</tspan><tspan>計測</tspan></text>
</svg>