<?xml version="1.0"?>
<svg width="250" height="532" viewBox="0 0 250 532" fill="none" xmlns="http://www.w3.org/2000/svg">
	<g clip-path="url(#clip0_115_2)">
		<path d="M7.42 517.78C9.14 520.27 11.45 522.04 14.33 523.1C14.16 523.26 14.04 523.42 13.97 523.58C13.92 523.7 13.87 523.76 13.83 523.76C13.8 523.76 13.73 523.74 13.62 523.69C10.86 522.52 8.68 520.73 7.06 518.33C6.2 519.61 5.2 520.72 4.06 521.66C3.12 522.43 2.02 523.14 0.75 523.79C0.67 523.83 0.61 523.86 0.57 523.86C0.52 523.86 0.45 523.8 0.38 523.69C0.3 523.55 0.17 523.43 0 523.33C1.51 522.65 2.85 521.79 4.03 520.75C5.01 519.89 5.79 518.99 6.37 518.03C6.55 517.73 6.67 517.46 6.73 517.21C7.05 517.27 7.29 517.32 7.46 517.37C7.58 517.41 7.65 517.47 7.65 517.54C7.65 517.59 7.62 517.64 7.56 517.67C7.52 517.69 7.47 517.73 7.42 517.78ZM6.63 526.14V523.69H5.23L3.2 523.72C3.13 523.72 3.1 523.69 3.1 523.62V523.13C3.1 523.06 3.13 523.03 3.2 523.03L5.23 523.06H8.85L10.89 523.03C10.95 523.03 10.99 523.06 10.99 523.13V523.62C10.99 523.69 10.96 523.72 10.89 523.72L8.85 523.69H7.33V526.14H9.23L11.32 526.11C11.39 526.11 11.42 526.14 11.42 526.21V526.7C11.42 526.77 11.39 526.8 11.32 526.8L9.23 526.77H7.33V529.53H11.32L13.37 529.5C13.44 529.5 13.47 529.53 13.47 529.6V530.11C13.47 530.18 13.44 530.21 13.37 530.21L11.32 530.18H2.92L0.86 530.21C0.79 530.21 0.75 530.18 0.75 530.11V529.6C0.75 529.53 0.79 529.5 0.86 529.5L2.92 529.53H6.63V526.77H4.99L2.9 526.8C2.83 526.8 2.8 526.77 2.8 526.7V526.21C2.8 526.14 2.83 526.11 2.9 526.11L4.99 526.14H6.63Z" fill="black" />
		<path d="M21.51 529.87V530.78C21.51 530.84 21.48 530.87 21.41 530.87H20.88C20.81 530.87 20.78 530.84 20.78 530.78L20.81 526V523.18L20.78 519.59C20.78 519.52 20.81 519.49 20.88 519.49L23.03 519.52H23.88C24.1 519.06 24.31 518.5 24.5 517.85C24.56 517.65 24.59 517.43 24.59 517.2C24.89 517.24 25.14 517.3 25.35 517.36C25.46 517.4 25.52 517.46 25.52 517.53C25.52 517.58 25.5 517.63 25.45 517.68C25.35 517.78 25.27 517.91 25.22 518.06C24.99 518.65 24.79 519.14 24.63 519.52H27.73L29.88 519.49C29.95 519.49 29.98 519.52 29.98 519.59L29.95 522.85V525.98L29.98 530.76C29.98 530.82 29.95 530.85 29.88 530.85H29.35C29.28 530.85 29.25 530.82 29.25 530.76V529.86H21.53L21.51 529.87ZM21.51 522.64H29.23V520.17H21.51V522.64ZM21.51 523.28V525.78H29.23V523.28H21.51ZM21.51 526.42V529.22H29.23V526.42H21.51Z" fill="black" />
		<path d="M41.01 526.05V527.14H41.89L43.75 527.11C43.82 527.11 43.85 527.14 43.85 527.21V527.64C43.85 527.71 43.82 527.74 43.75 527.74L41.89 527.71H41.01V528.94C42.05 528.79 43.01 528.63 43.87 528.45C43.83 528.54 43.8 528.66 43.78 528.8C43.77 528.93 43.75 529.01 43.72 529.04C43.69 529.07 43.62 529.09 43.5 529.11C42.05 529.41 40.23 529.69 38.04 529.95C37.68 530 37.48 530.04 37.43 530.08C37.36 530.13 37.3 530.15 37.26 530.15C37.19 530.15 37.13 530.09 37.1 529.98C37.03 529.79 36.96 529.56 36.9 529.3C37.04 529.3 37.16 529.3 37.27 529.3C37.63 529.3 38.04 529.28 38.5 529.23C38.98 529.19 39.6 529.12 40.37 529.01V527.7H39.24L37.39 527.73C37.32 527.73 37.28 527.7 37.28 527.63V527.2C37.28 527.13 37.32 527.1 37.39 527.1L39.24 527.13H40.37V526.04H39.56L37.77 526.07C37.7 526.07 37.67 526.04 37.67 525.97L37.69 524.72V523.3L37.67 522.04C37.67 521.97 37.7 521.94 37.77 521.94L39.56 521.97H40.37V520.89H39.02L37.09 520.92C37.02 520.92 36.98 520.89 36.98 520.82V520.4C36.98 520.33 37.02 520.29 37.09 520.29L39.02 520.33H40.37V519.17C39.54 519.3 38.73 519.41 37.92 519.49C37.85 519.49 37.8 519.5 37.77 519.5C37.7 519.5 37.63 519.44 37.57 519.31C37.51 519.17 37.41 519.04 37.28 518.93C39.27 518.78 41 518.49 42.47 518.06C42.77 517.97 42.98 517.87 43.12 517.78C43.33 517.91 43.5 518.04 43.62 518.14C43.7 518.2 43.75 518.27 43.75 518.33C43.75 518.41 43.67 518.46 43.5 518.46C43.43 518.46 43.24 518.5 42.94 518.58C42.2 518.78 41.56 518.93 41.01 519.03V520.31H42.14L44.07 520.27C44.13 520.27 44.16 520.31 44.16 520.38V520.8C44.16 520.87 44.14 520.9 44.09 520.9L42.14 520.87H41.01V521.95H41.88L43.68 521.92C43.75 521.92 43.79 521.95 43.79 522.02L43.76 523.27V524.7L43.79 525.95C43.79 526.02 43.75 526.05 43.68 526.05L41.88 526.02H41.01V526.05ZM40.37 522.49H38.31V523.71H40.37V522.49ZM38.31 524.23V525.54H40.37V524.23H38.31ZM43.14 523.71V522.49H41.01V523.71H43.14ZM41.01 525.53H43.14V524.22H41.01V525.53ZM47.12 521.08H48.03L49.7 521.05C49.78 521.05 49.83 521.09 49.83 521.17C49.81 521.48 49.8 521.92 49.8 522.5C49.76 525.37 49.61 527.61 49.35 529.2C49.18 530.19 48.66 530.68 47.8 530.68C47.37 530.68 46.99 530.67 46.64 530.64C46.53 530.64 46.46 530.61 46.43 530.58C46.42 530.56 46.41 530.5 46.4 530.41C46.39 530.2 46.33 530.01 46.23 529.85C46.73 529.94 47.25 529.98 47.78 529.98C48.06 529.98 48.27 529.89 48.4 529.7C48.52 529.54 48.62 529.27 48.67 528.91C48.94 527.31 49.08 524.92 49.08 521.73H47.07C47 523.44 46.81 524.85 46.51 525.96C46.19 527.11 45.78 528.06 45.3 528.8C44.81 529.55 44.18 530.21 43.39 530.79C43.29 530.86 43.23 530.9 43.2 530.9C43.17 530.9 43.11 530.86 43.03 530.77C42.93 530.65 42.76 530.54 42.54 530.46C43.5 529.92 44.25 529.19 44.81 528.28C45.24 527.6 45.59 526.73 45.87 525.69C46.13 524.76 46.3 523.45 46.39 521.74H46.07L44.42 521.77C44.35 521.77 44.32 521.74 44.32 521.67V521.18C44.32 521.11 44.35 521.08 44.42 521.08L46.07 521.11H46.4C46.42 520.67 46.43 520.05 46.43 519.22C46.43 518.5 46.39 517.9 46.32 517.44C46.65 517.46 46.92 517.5 47.13 517.55C47.23 517.56 47.29 517.61 47.29 517.68C47.29 517.72 47.26 517.82 47.21 517.97C47.15 518.12 47.12 518.58 47.12 519.34C47.12 520.1 47.12 520.7 47.11 521.11L47.12 521.08Z" fill="black" />
		<path d="M58.3199 518.55H61.8599C63.2199 518.55 64.1899 518.81 64.7799 519.34C65.2699 519.78 65.5199 520.42 65.5199 521.25C65.5199 521.96 65.2599 522.54 64.7499 522.99C64.3099 523.38 63.7299 523.62 63.0099 523.73V523.81C63.9799 523.93 64.7199 524.26 65.2199 524.8C65.6599 525.27 65.8699 525.86 65.8699 526.56C65.8699 527.6 65.4899 528.4 64.7299 528.94C64.0699 529.41 63.1899 529.65 62.0899 529.65H58.3299V518.56L58.3199 518.55ZM59.3099 519.39V523.36H61.4699C62.4999 523.36 63.2899 523.15 63.8199 522.73C64.2699 522.37 64.4899 521.9 64.4899 521.31C64.4899 520.6 64.2599 520.09 63.8099 519.8C63.3799 519.53 62.6899 519.39 61.7399 519.39H59.3199H59.3099ZM59.3099 524.2V528.81H61.9399C63.8599 528.81 64.8199 528.05 64.8199 526.53C64.8199 525.77 64.4999 525.19 63.8699 524.77C63.2899 524.39 62.5099 524.21 61.5299 524.21H59.3099V524.2Z" fill="black" />
		<path d="M80.61 518.55V529.64H79.61V518.55H80.61Z" fill="black" />
		<path d="M103.63 518.55V529.64H102.67V519.38H102.51C102.36 519.89 102.01 520.96 101.46 522.6L98.96 529.64H97.67L95.21 522.6C94.85 521.57 94.49 520.5 94.14 519.38H93.98C93.98 519.59 93.98 519.82 93.98 520.05L94 522.68V529.65H93.09V518.56H94.78L97.19 525.51C97.59 526.64 97.95 527.72 98.28 528.76H98.44C99.01 527.06 99.37 525.99 99.53 525.55L101.97 518.55H103.64H103.63Z" fill="black" />
		<path d="M112.76 522.76C112.76 524.54 112.78 526.49 112.82 528.6C112.82 529.09 112.84 529.68 112.86 530.38C112.86 530.71 112.86 530.89 112.86 530.92C112.86 530.98 112.83 531.01 112.76 531.01H112.2C112.13 531.01 112.1 530.98 112.1 530.92C112.1 530.92 112.1 530.48 112.13 529.61C112.19 527.07 112.23 524.79 112.23 522.77C111.7 524.72 111.02 526.32 110.18 527.58C110.12 527.67 110.06 527.72 110.02 527.72C109.99 527.72 109.95 527.67 109.9 527.58C109.83 527.41 109.72 527.28 109.6 527.18C110.55 525.89 111.33 524.24 111.95 522.24H111.48L110.05 522.27C109.98 522.27 109.95 522.23 109.95 522.16V521.72C109.95 521.65 109.98 521.62 110.05 521.62L111.48 521.65H112.15V519.01C111.63 519.17 111.14 519.3 110.69 519.4C110.6 519.42 110.54 519.44 110.51 519.44C110.46 519.44 110.4 519.37 110.32 519.24C110.26 519.11 110.15 518.98 110.02 518.86C111.38 518.65 112.48 518.33 113.34 517.89C113.52 517.79 113.69 517.67 113.85 517.53C114.04 517.65 114.21 517.78 114.37 517.92C114.44 517.97 114.47 518.03 114.47 518.08C114.47 518.17 114.4 518.22 114.25 518.24C114.16 518.25 114.03 518.3 113.86 518.37C113.61 518.49 113.27 518.63 112.83 518.8V521.64L114.15 521.61C114.22 521.61 114.25 521.64 114.25 521.71V522.15C114.25 522.22 114.22 522.26 114.15 522.26L112.93 522.23C113.38 523.27 113.91 524.17 114.53 524.92C114.42 525.01 114.31 525.16 114.23 525.37C114.19 525.47 114.15 525.52 114.13 525.52C114.11 525.52 114.07 525.48 114.01 525.39C113.48 524.56 113.06 523.68 112.76 522.77V522.76ZM116.88 528.9C117.11 529 117.31 529.11 117.46 529.23C117.53 529.28 117.56 529.33 117.56 529.38C117.56 529.43 117.52 529.47 117.43 529.51C117.33 529.53 117.2 529.6 117.03 529.7C116.1 530.28 115.14 530.7 114.13 530.95C114.05 530.97 113.99 530.99 113.95 530.99C113.89 530.99 113.83 530.93 113.76 530.8C113.69 530.66 113.59 530.54 113.46 530.44C114.73 530.17 115.72 529.81 116.43 529.35C116.6 529.24 116.75 529.09 116.88 528.9ZM118.35 521.86V520.75H117.5L115.66 520.78C115.59 520.78 115.56 520.74 115.56 520.67V520.31C115.56 520.24 115.59 520.21 115.66 520.21L117.5 520.24H118.35V519.25H117.09L115.06 519.28C114.99 519.28 114.96 519.25 114.96 519.18V518.79C114.96 518.72 114.99 518.69 115.06 518.69L117.09 518.72H118.35C118.35 518.05 118.31 517.58 118.24 517.32C118.54 517.33 118.79 517.36 119.01 517.39C119.11 517.41 119.16 517.45 119.16 517.52C119.16 517.56 119.13 517.65 119.07 517.79C119.03 517.89 119.01 518.2 119.01 518.71H120.67L122.69 518.68C122.76 518.68 122.8 518.71 122.8 518.78V519.17C122.8 519.24 122.76 519.27 122.69 519.27L120.67 519.24H119.01V520.23H120.15L122.01 520.2C122.08 520.2 122.11 520.23 122.11 520.3V520.66C122.11 520.73 122.08 520.77 122.01 520.77L120.15 520.74H119.01V521.85H121.15L123.27 521.82C123.34 521.82 123.37 521.86 123.37 521.93V522.31C123.37 522.38 123.34 522.41 123.27 522.41L121.15 522.38H116.86L114.74 522.41C114.67 522.41 114.64 522.38 114.64 522.31V521.93C114.64 521.86 114.67 521.82 114.74 521.82L116.86 521.85H118.35V521.86ZM117.42 523.4H120.03L121.89 523.37C121.96 523.37 121.99 523.4 121.99 523.47L121.96 524.92V527.05L121.99 528.5C121.99 528.57 121.96 528.6 121.89 528.6L120.03 528.57H117.42L115.56 528.6C115.49 528.6 115.46 528.57 115.46 528.5L115.49 527.05V524.92L115.46 523.47C115.46 523.4 115.49 523.37 115.56 523.37L117.42 523.4ZM116.14 524.94H121.31V523.95H116.14V524.94ZM116.14 525.44V526.42H121.31V525.44H116.14ZM116.14 526.93V528.03H121.31V526.93H116.14ZM123.65 530.38C123.52 530.48 123.41 530.6 123.35 530.74C123.3 530.86 123.24 530.93 123.19 530.93C123.16 530.93 123.08 530.91 122.97 530.87C121.89 530.49 120.93 529.99 120.1 529.35C120.07 529.33 120.05 529.31 120.05 529.29C120.05 529.27 120.1 529.21 120.19 529.13L120.39 528.97C120.39 528.97 120.48 528.9 120.5 528.9C120.52 528.9 120.55 528.91 120.59 528.94C121.37 529.54 122.39 530.02 123.66 530.38H123.65Z" fill="black" />
		<path d="M130.67 518.7H133.06L134.61 518.67C134.68 518.67 134.71 518.7 134.71 518.77V519.2C134.71 519.27 134.68 519.3 134.61 519.3L133.06 519.27H132.44C132.67 519.67 132.87 520.09 133.06 520.53C133.06 520.55 133.07 520.57 133.07 520.59C133.07 520.63 133.02 520.67 132.91 520.71L132.66 520.79C132.56 520.82 132.49 520.84 132.47 520.84C132.44 520.84 132.42 520.81 132.4 520.76C132.22 520.18 132 519.68 131.75 519.27H130.36C129.95 519.95 129.43 520.59 128.81 521.2C128.71 521.29 128.65 521.34 128.62 521.34C128.58 521.34 128.52 521.3 128.43 521.21C128.33 521.11 128.2 521.03 128.05 520.98C129.09 520.04 129.84 519.03 130.29 517.93C130.37 517.72 130.43 517.51 130.46 517.32C130.73 517.37 130.96 517.43 131.14 517.51C131.22 517.55 131.26 517.59 131.26 517.64C131.26 517.69 131.22 517.76 131.14 517.84C131.06 517.92 130.98 518.03 130.92 518.17C130.89 518.24 130.85 518.33 130.79 518.44L130.67 518.68V518.7ZM137.1 528.1H139.43L141.44 528.07C141.51 528.07 141.54 528.1 141.54 528.17V528.62C141.54 528.69 141.51 528.72 141.44 528.72L139.43 528.69H137.1V529.53L137.14 530.9C137.14 530.97 137.1 531 137.03 531H136.52C136.45 531 136.41 530.97 136.41 530.9L136.44 529.53V528.69H132.96C132.41 529.85 131.22 530.62 129.38 530.99C129.29 531.01 129.23 531.03 129.2 531.03C129.15 531.03 129.08 530.97 129 530.86C128.91 530.71 128.78 530.59 128.61 530.5C130.47 530.21 131.66 529.61 132.2 528.7H130.45L128.44 528.73C128.37 528.73 128.34 528.7 128.34 528.63V528.18C128.34 528.11 128.37 528.08 128.44 528.08L130.45 528.11H132.47C132.58 527.72 132.65 527.3 132.67 526.86L130.63 526.89C130.56 526.89 130.53 526.86 130.53 526.79L130.56 525.27V522.84L130.53 521.3C130.53 521.23 130.56 521.2 130.63 521.2L132.75 521.23H136.99L139.11 521.2C139.18 521.2 139.21 521.23 139.21 521.3L139.18 522.84V525.27L139.21 526.79C139.21 526.86 139.18 526.89 139.11 526.89L137.11 526.86V528.11L137.1 528.1ZM131.21 522.9H138.53V521.77H131.21V522.9ZM131.21 523.45V524.59H138.53V523.45H131.21ZM131.21 525.12V526.3H138.53V525.12H131.21ZM136.44 528.1V526.85H133.37C133.34 527.3 133.27 527.71 133.17 528.1H136.44ZM136.26 518.7H139.56L141.33 518.67C141.4 518.67 141.43 518.7 141.43 518.77V519.2C141.43 519.27 141.4 519.3 141.33 519.3L139.56 519.27H138.12C138.32 519.56 138.53 519.95 138.74 520.46C138.75 520.48 138.76 520.5 138.76 520.52C138.76 520.56 138.71 520.6 138.6 520.64L138.31 520.74C138.23 520.76 138.18 520.78 138.16 520.78C138.14 520.78 138.11 520.75 138.09 520.68C137.91 520.16 137.69 519.69 137.42 519.28H135.99C135.72 519.77 135.4 520.24 135.02 520.68C134.93 520.78 134.87 520.84 134.85 520.84C134.82 520.84 134.76 520.8 134.66 520.73C134.54 520.66 134.41 520.6 134.28 520.57C134.99 519.82 135.52 518.97 135.86 518.01C135.93 517.81 135.98 517.58 136.01 517.34C136.24 517.37 136.46 517.42 136.68 517.5C136.77 517.53 136.82 517.57 136.82 517.62C136.82 517.67 136.78 517.74 136.7 517.82C136.63 517.89 136.56 518.01 136.5 518.18C136.41 518.4 136.33 518.58 136.27 518.71L136.26 518.7Z" fill="black" />
		<path d="M153.57 523.44V524.78H156.57L158.72 524.75C158.79 524.75 158.83 524.78 158.83 524.84V525.27C158.83 525.34 158.79 525.37 158.72 525.37L156.57 525.34H150.69L148.48 525.37C148.41 525.37 148.38 525.34 148.38 525.27L148.41 523.6V521.81C148.41 521.35 148.41 520.83 148.44 520.25C147.95 520.78 147.44 521.28 146.9 521.74C146.81 521.81 146.75 521.85 146.71 521.85C146.67 521.85 146.62 521.8 146.56 521.71C146.48 521.57 146.36 521.45 146.23 521.36C146.9 520.92 147.54 520.35 148.15 519.67C148.58 519.18 148.93 518.7 149.21 518.23C149.42 517.88 149.57 517.58 149.64 517.32C149.94 517.41 150.16 517.5 150.32 517.58C150.4 517.62 150.44 517.67 150.44 517.73C150.44 517.78 150.39 517.84 150.28 517.92C150.24 517.95 150.08 518.14 149.81 518.5C149.63 518.77 149.47 519 149.34 519.17H152.9C153.16 518.8 153.36 518.46 153.49 518.17C153.65 517.84 153.74 517.56 153.76 517.35C154.03 517.42 154.26 517.5 154.46 517.6C154.55 517.64 154.6 517.69 154.6 517.76C154.6 517.81 154.55 517.87 154.44 517.93C154.39 517.96 154.3 518.08 154.18 518.29C153.94 518.69 153.75 518.99 153.62 519.17H156.45L158.6 519.14C158.67 519.14 158.7 519.17 158.7 519.24V519.66C158.7 519.74 158.67 519.78 158.6 519.78L156.45 519.75H153.55V521.03H155.76L157.89 521C157.97 521 158.01 521.03 158.01 521.1V521.52C158.01 521.59 157.97 521.62 157.89 521.62L155.76 521.59H153.55V522.9H155.76L157.89 522.87C157.97 522.87 158.01 522.9 158.01 522.97V523.39C158.01 523.46 157.97 523.49 157.89 523.49L155.76 523.46H153.55L153.57 523.44ZM153.4 527.45L153.48 530.95C153.48 531.01 153.44 531.04 153.37 531.04H152.83C152.76 531.04 152.72 531.01 152.72 530.95L152.8 527.44C151.5 528.74 149.59 529.75 147.08 530.48C146.99 530.5 146.93 530.52 146.9 530.52C146.85 530.52 146.78 530.45 146.71 530.32C146.63 530.17 146.53 530.05 146.42 529.95C148.87 529.33 150.78 528.44 152.18 527.28H148.96L146.91 527.31C146.84 527.31 146.81 527.28 146.81 527.21V526.73C146.81 526.66 146.84 526.63 146.91 526.63L148.96 526.66H152.76V526.6C152.76 526.08 152.74 525.72 152.7 525.53C153.07 525.57 153.3 525.61 153.41 525.63C153.51 525.65 153.57 525.69 153.57 525.75C153.57 525.78 153.54 525.85 153.48 525.95C153.45 526 153.44 526.21 153.44 526.57V526.66H157.42L159.48 526.63C159.55 526.63 159.58 526.66 159.58 526.73V527.21C159.58 527.28 159.55 527.31 159.48 527.31L157.42 527.28H153.97C154.89 528 155.82 528.57 156.77 529C157.66 529.39 158.72 529.73 159.95 530.01C159.84 530.1 159.72 530.24 159.62 530.42C159.55 530.56 159.48 530.63 159.42 530.63C159.39 530.63 159.33 530.62 159.24 530.59C156.79 529.92 154.85 528.88 153.41 527.48L153.4 527.45ZM152.93 521V519.72H149.08V521H152.93ZM152.93 521.57H149.08V522.88H152.93V521.57ZM152.93 523.44H149.08V524.78H152.93V523.44Z" fill="black" />
		<path d="M168.95 520.96H166.57L164.82 520.99C164.76 520.99 164.73 520.95 164.73 520.87V520.39C164.73 520.33 164.76 520.3 164.82 520.3L166.57 520.33H168.95L170.7 520.3C170.77 520.3 170.8 520.33 170.8 520.39V520.87C170.8 520.95 170.77 520.99 170.7 520.99L168.95 520.96ZM168.67 518.86H167.14L165.69 518.89C165.62 518.89 165.59 518.86 165.59 518.79V518.33C165.59 518.26 165.62 518.23 165.69 518.23L167.14 518.26H168.67L170.1 518.23C170.18 518.23 170.22 518.26 170.22 518.33V518.79C170.22 518.86 170.18 518.89 170.1 518.89L168.67 518.86ZM166.32 530.02V530.93C166.32 530.99 166.29 531.02 166.22 531.02H165.73C165.66 531.02 165.63 530.99 165.63 530.93L165.66 528.71V527.81L165.63 526.52C165.63 526.45 165.66 526.42 165.73 526.42L167.15 526.45H168.55L169.97 526.42C170.04 526.42 170.07 526.45 170.07 526.52L170.04 527.59V528.53L170.07 530.65C170.07 530.72 170.04 530.75 169.97 530.75H169.48C169.41 530.75 169.38 530.72 169.38 530.65V530.03H166.33L166.32 530.02ZM168.48 522.98H167.17L165.85 523.01C165.78 523.01 165.74 522.98 165.74 522.91V522.46C165.74 522.39 165.78 522.36 165.85 522.36L167.17 522.39H168.48L169.79 522.36C169.87 522.36 169.91 522.39 169.91 522.46V522.91C169.91 522.98 169.87 523.01 169.79 523.01L168.48 522.98ZM165.74 524.97V524.52C165.74 524.45 165.78 524.41 165.85 524.41L167.17 524.45H168.48L169.79 524.41C169.87 524.41 169.91 524.45 169.91 524.52V524.97C169.91 525.03 169.87 525.06 169.79 525.06H168.48L167.17 525.05H165.85C165.78 525.06 165.74 525.04 165.74 524.98V524.97ZM166.32 529.44H169.37V527.03H166.32V529.44ZM174.17 522.61V519.39C174.17 518.46 174.14 517.79 174.07 517.38C174.32 517.39 174.59 517.42 174.89 517.45C174.99 517.47 175.04 517.51 175.04 517.58C175.04 517.61 175.02 517.7 174.98 517.84C174.92 518.06 174.89 518.56 174.89 519.36V522.62H176.27L178.28 522.59C178.35 522.59 178.38 522.63 178.38 522.71V523.22C178.38 523.29 178.35 523.32 178.28 523.32L176.27 523.29H174.89V528.2L174.92 530.9C174.92 530.97 174.89 531 174.82 531H174.26C174.19 531 174.16 530.97 174.16 530.9L174.19 528.22V523.3H172.91L170.9 523.33C170.83 523.33 170.79 523.3 170.79 523.23V522.72C170.79 522.64 170.83 522.6 170.9 522.6L172.91 522.63H174.19L174.17 522.61Z" fill="black" />
		<path d="M184.02 523.01L184.4 522.46C184.44 522.4 184.5 522.36 184.56 522.36C184.58 522.36 184.61 522.36 184.65 522.38C185.63 522.73 186.49 523.17 187.23 523.72C187.31 523.77 187.35 523.83 187.35 523.88C187.35 523.91 187.34 523.96 187.31 524.01C187.29 524.05 187.19 524.21 187.01 524.48C186.97 524.54 186.93 524.58 186.88 524.58C186.84 524.58 186.79 524.55 186.73 524.5C185.99 523.91 185.09 523.42 184.03 523.01H184.02ZM185.3 528.82C185.83 528.69 186.31 528.52 186.75 528.31C188.41 527.42 189.81 526.56 190.93 525.71C192.7 524.32 194.14 522.92 195.25 521.49C195.3 521.8 195.39 522.06 195.51 522.28C195.53 522.31 195.54 522.35 195.54 522.38C195.54 522.44 195.51 522.51 195.44 522.6C194.34 523.91 192.99 525.18 191.38 526.4C190.29 527.25 188.82 528.18 186.97 529.2C186.74 529.32 186.51 529.49 186.3 529.71C186.25 529.76 186.2 529.79 186.14 529.79C186.08 529.79 186.01 529.76 185.95 529.69C185.73 529.45 185.51 529.16 185.31 528.82H185.3ZM185.82 519.51C185.93 519.36 186.06 519.18 186.21 518.98C186.26 518.91 186.31 518.87 186.34 518.87C186.36 518.87 186.4 518.88 186.45 518.91C187.47 519.36 188.33 519.88 189.01 520.46C189.08 520.51 189.11 520.55 189.11 520.59C189.11 520.62 189.09 520.67 189.05 520.73C188.92 520.92 188.81 521.07 188.72 521.2C188.69 521.24 188.66 521.27 188.62 521.27C188.58 521.27 188.53 521.24 188.46 521.19C187.73 520.54 186.85 519.98 185.82 519.52V519.51Z" fill="black" />
		<path d="M208.91 524.51C210.63 525.77 212.09 527.06 213.3 528.36C213.36 528.42 213.4 528.47 213.4 528.51C213.4 528.54 213.38 528.58 213.33 528.64C213.26 528.72 213.12 528.87 212.91 529.07C212.88 529.1 212.85 529.12 212.82 529.12C212.79 529.12 212.74 529.09 212.69 529.04C211.44 527.61 210.02 526.31 208.41 525.13C206.64 526.99 204.81 528.42 202.92 529.44C202.86 529.47 202.8 529.49 202.76 529.49C202.71 529.49 202.66 529.46 202.61 529.41C202.45 529.23 202.24 529.08 201.97 528.96C204.11 527.87 205.98 526.48 207.57 524.79C208.68 523.59 209.65 522.2 210.47 520.62H205.72C204.83 520.62 204.12 520.65 203.59 520.7H203.55C203.47 520.7 203.43 520.66 203.42 520.57C203.38 520.33 203.35 520.08 203.35 519.83C203.84 519.86 204.6 519.87 205.64 519.87H210.11C210.49 519.87 210.75 519.83 210.88 519.74C210.91 519.73 210.94 519.72 210.98 519.72C211.06 519.72 211.13 519.74 211.18 519.79C211.33 519.9 211.49 520.05 211.65 520.23C211.69 520.28 211.72 520.34 211.72 520.4C211.72 520.49 211.68 520.55 211.61 520.59C211.5 520.65 211.36 520.81 211.22 521.06C210.51 522.33 209.74 523.47 208.91 524.48V524.51Z" fill="black" />
		<path d="M226.78 523.28C226.71 525.02 226.41 526.39 225.88 527.37C225.23 528.56 224.34 529.5 223.2 530.19C223.1 530.25 223.02 530.28 222.95 530.28C222.91 530.28 222.87 530.27 222.83 530.24C222.62 530.06 222.38 529.93 222.12 529.85C222.92 529.44 223.56 529.01 224.03 528.54C224.43 528.14 224.78 527.66 225.08 527.08C225.59 526.1 225.85 524.84 225.87 523.29H222.71C222.03 523.29 221.31 523.31 220.53 523.36C220.44 523.36 220.38 523.35 220.35 523.32C220.33 523.3 220.31 523.25 220.3 523.16C220.3 523.13 220.28 522.9 220.24 522.48C221.04 522.52 221.86 522.54 222.71 522.54H229.2C230.14 522.54 231.04 522.52 231.89 522.48C232 522.48 232.06 522.55 232.06 522.7V523.18C232.06 523.28 232 523.33 231.87 523.33C230.95 523.3 230.06 523.29 229.21 523.29H226.77L226.78 523.28ZM222.11 519.12C222.85 519.16 223.62 519.18 224.41 519.18H227.46C228.53 519.18 229.35 519.16 229.9 519.13H229.94C230.02 519.13 230.06 519.19 230.06 519.32V519.76C230.06 519.89 230 519.96 229.87 519.96C229.33 519.94 228.52 519.93 227.46 519.93H224.41C223.5 519.93 222.81 519.94 222.35 519.97C222.34 519.97 222.32 519.97 222.3 519.97C222.22 519.97 222.18 519.91 222.17 519.8L222.13 519.12H222.11Z" fill="black" />
		<path d="M243.66 518.51C244.13 518.63 244.51 518.78 244.8 518.96C244.86 519 244.89 519.05 244.89 519.12C244.89 519.19 244.85 519.27 244.77 519.36C244.56 519.57 244.37 519.93 244.21 520.44C243.36 523.08 242.39 525.61 241.31 528.03C243.83 527.86 246.12 527.61 248.2 527.29C247.67 526.32 247.04 525.41 246.3 524.55C246.58 524.37 246.75 524.27 246.82 524.23C246.87 524.2 246.91 524.19 246.95 524.19C247 524.19 247.05 524.22 247.1 524.29C248.12 525.48 249.08 527.02 249.99 528.9C250.01 528.93 250.02 528.97 250.02 529C250.02 529.05 249.99 529.1 249.93 529.14C249.78 529.24 249.6 529.34 249.41 529.43C249.38 529.44 249.36 529.45 249.34 529.45C249.28 529.45 249.23 529.4 249.18 529.31C248.99 528.83 248.77 528.39 248.54 527.99C246.27 528.34 243.74 528.64 240.95 528.9C240.13 528.97 239.62 529.08 239.4 529.22C239.33 529.27 239.26 529.29 239.19 529.29C239.1 529.29 239.04 529.25 239 529.17C238.9 528.92 238.79 528.57 238.68 528.12C238.92 528.14 239.17 528.16 239.45 528.16C239.73 528.16 240.06 528.15 240.45 528.12C241.63 525.42 242.58 522.87 243.31 520.48C243.54 519.69 243.66 519.03 243.67 518.5L243.66 518.51Z" fill="black" />
		<path fill-rule="evenodd" clip-rule="evenodd" d="M128.94 102.67V73.5L148.07 85.83V87.86H148.11V106.42C141.43 106.15 135.05 104.9 128.94 102.67ZM113.11 78.29L128.94 68.64V60.75L148.07 73.04V75.07H148.11V80.03L151.98 82.8V85.45L128.95 70.92L113.12 80.57V78.29M158.08 106.17V94.53L166.83 100.15V100.59L168.62 99.54L158.08 92.86V86.23L166.83 91.89V92.34L168.62 91.24L158.08 84.61V77.98L166.83 83.59V84.08L168.62 82.98L158.08 76.35V69.71L166.83 75.33V75.82L168.62 74.72L158.08 68.08V61.41L148.15 67.27L151.98 70V72.69L148.11 70.25L128.94 58.2V58.16L113.11 67.81V65.53L128.94 55.88V47.74L148.07 60.03V62.11L152.01 59.75L128.94 45.18L113.11 54.82V52.54L128.94 42.89V34.87L148.07 47.16V49.24L152.01 46.88L128.94 32.31L113.11 41.91V39.67L128.94 29.98V22.13L107.62 35.97V88.26C98.69 77.84 94.71 65.82 95.65 52.2C96.6 38.58 102.53 25.83 113.43 13.95C118.88 8.30999 124.92 3.65999 131.54 -0.0100098C120.96 3.94999 111.56 10.18 103.34 18.67C95.15 27.43 89.76 36.86 87.18 46.95C84.6 57.02 84.81 66.71 87.79 76.05C90.75 85.38 96.47 93.32 104.96 99.86C115.21 107.24 126.84 111.02 139.83 111.21C152.83 111.37 165.36 108.17 177.43 101.61C171.09 104 164.63 105.52 158.06 106.17" fill="#1159C7" />
		<path fill-rule="evenodd" clip-rule="evenodd" d="M107.62 107.63C97.88 102.15 90.66 94.93 85.97 85.98C81.28 77.03 79.32 67.37 80.11 57.01C80.87 46.62 84.56 36.55 91.18 26.81C95.88 20.19 101.41 14.59 107.79 10.01C98.84 15.16 91.27 22.09 85.08 30.8C78.44 40.54 74.73 50.59 73.97 60.95C73.21 71.34 75.18 81.01 79.87 89.97C84.56 98.92 91.77 106.14 101.48 111.62C112.95 117.67 125.16 120.06 138.1 118.78C151.01 117.48 162.91 112.97 173.79 105.27C163.38 111.24 152.33 114.5 140.67 115.04C129.01 115.61 117.99 113.14 107.63 107.64" fill="#DE1414" />
		<path d="M22.41 157.28V123.08H34.85C38.66 123.08 41.6 123.78 43.65 125.18C45.7 126.58 46.73 128.55 46.73 131.09C46.73 132.94 46.11 134.56 44.86 135.93C43.61 137.31 42.02 138.28 40.08 138.82V138.91C42.51 139.22 44.45 140.12 45.9 141.61C47.36 143.1 48.09 144.92 48.09 147.07C48.09 150.21 46.96 152.7 44.72 154.53C42.48 156.36 39.42 157.28 35.55 157.28H22.41ZM30.11 128.76V136.87H33.49C35.08 136.87 36.34 136.49 37.25 135.71C38.17 134.94 38.62 133.88 38.62 132.53C38.62 130.01 36.74 128.75 32.99 128.75H30.1L30.11 128.76ZM30.11 142.59V151.61H34.28C36.06 151.61 37.45 151.2 38.46 150.38C39.47 149.55 39.97 148.42 39.97 146.99C39.97 145.56 39.47 144.55 38.48 143.77C37.49 142.99 36.1 142.6 34.32 142.6H30.1L30.11 142.59ZM64.25 123.08V129.04H61.39V151.31H64.25V157.27H50.83V151.31H53.69V129.04H50.83V123.08H64.25ZM102.45 129.35H90.38V137.74H101.47V144H90.38V157.28H82.69V123.08H102.45V129.35ZM119.04 157.88C114.97 157.88 111.77 156.74 109.44 154.46C107.12 152.18 105.96 149.08 105.96 145.16C105.96 141.24 107.17 137.97 109.58 135.69C112 133.41 115.26 132.27 119.38 132.27C123.5 132.27 126.61 133.41 128.92 135.69C131.22 137.97 132.38 140.99 132.38 144.74C132.38 148.79 131.19 152 128.81 154.35C126.44 156.7 123.18 157.87 119.04 157.87V157.88ZM119.23 138.04C117.45 138.04 116.07 138.66 115.08 139.88C114.1 141.1 113.61 142.83 113.61 145.07C113.61 149.76 115.5 152.1 119.28 152.1C123.06 152.1 124.7 149.69 124.7 144.88C124.7 140.32 122.88 138.04 119.23 138.04ZM153.19 139.66C152.28 139.17 151.23 138.92 150.02 138.92C148.37 138.92 147.09 139.52 146.17 140.73C145.25 141.93 144.8 143.56 144.8 145.63V157.29H137.26V132.87H144.8V137.4H144.89C146.08 134.09 148.23 132.44 151.34 132.44C152.13 132.44 152.74 132.54 153.2 132.73V139.66H153.19ZM200.98 157.28H192.59L190.16 149.68H177.99L175.59 157.28H167.25L179.7 123.08H188.83L200.99 157.28H200.98ZM188.39 143.76L184.71 132.26C184.44 131.41 184.25 130.38 184.14 129.18H183.95C183.87 130.18 183.67 131.18 183.35 132.17L179.64 143.75H188.39V143.76ZM229.08 156.06C226.59 157.27 223.33 157.88 219.3 157.88C214.06 157.88 209.93 156.34 206.93 153.25C203.93 150.17 202.43 146.06 202.43 140.93C202.43 135.46 204.11 131.03 207.49 127.63C210.87 124.22 215.25 122.52 220.64 122.52C223.98 122.52 226.79 122.95 229.08 123.79V131.2C226.79 129.83 224.18 129.14 221.26 129.14C218.05 129.14 215.45 130.15 213.48 132.18C211.51 134.2 210.53 136.93 210.53 140.38C210.53 143.83 211.46 146.33 213.32 148.29C215.18 150.25 217.69 151.23 220.84 151.23C223.99 151.23 226.6 150.5 229.09 149.03V156.06H229.08Z" fill="#145AC8" />
		<path d="M31.1801 185.98V182.05C32.5501 183.05 34.1601 183.55 35.9901 183.55C37.1501 183.55 38.0501 183.31 38.6901 182.81C39.3301 182.31 39.6601 181.61 39.6601 180.72C39.6601 179.83 39.2601 179.1 38.4601 178.61C37.6701 178.11 36.5801 177.86 35.1801 177.86H33.3401V174.4H35.0401C37.7101 174.4 39.0501 173.52 39.0501 171.74C39.0501 170.07 38.0201 169.23 35.9701 169.23C34.6001 169.23 33.2601 169.67 31.9601 170.55V166.86C33.4001 166.14 35.0801 165.78 37.0001 165.78C39.1001 165.78 40.7301 166.25 41.9001 167.19C43.0701 168.13 43.6501 169.36 43.6501 170.86C43.6501 173.54 42.2901 175.22 39.5801 175.9V175.98C41.0301 176.16 42.1701 176.69 43.0101 177.56C43.8501 178.43 44.2701 179.51 44.2701 180.78C44.2701 182.7 43.5601 184.21 42.1601 185.33C40.7601 186.44 38.8301 187 36.3601 187C34.2401 187 32.5101 186.66 31.1801 185.97V185.98ZM48.2501 186.66V166.15H55.5101C62.8001 166.15 66.4501 169.48 66.4501 176.15C66.4501 179.35 65.4501 181.9 63.4601 183.81C61.4701 185.72 58.8201 186.67 55.5101 186.67H48.2501V186.66ZM52.8701 169.91V182.91H55.1601C57.1601 182.91 58.7301 182.31 59.8701 181.12C61.0101 179.92 61.5901 178.28 61.5901 176.21C61.5901 174.25 61.0201 172.71 59.8901 171.59C58.7601 170.47 57.1801 169.91 55.1501 169.91H52.8901H52.8701ZM90.2501 186.66H77.9501V166.15H89.7801V169.91H82.5701V174.46H89.2801V178.21H82.5701V182.9H90.2501V186.65V186.66ZM92.1601 186.28V182.62C92.9001 183.06 93.6501 183.39 94.3901 183.61C95.1301 183.83 95.8301 183.94 96.4901 183.94C97.2901 183.94 97.9301 183.83 98.3801 183.61C98.8401 183.39 99.0801 183.06 99.0801 182.62C99.0801 182.33 98.9701 182.1 98.7601 181.91C98.5501 181.72 98.2801 181.55 97.9501 181.4C97.6301 181.26 97.2701 181.13 96.8701 181.02C96.4801 180.9 96.1101 180.77 95.7501 180.63C95.1701 180.41 94.6501 180.18 94.2001 179.93C93.7601 179.68 93.3901 179.38 93.0801 179.05C92.7801 178.71 92.5501 178.32 92.3901 177.88C92.2401 177.44 92.1601 176.92 92.1601 176.33C92.1601 175.51 92.3401 174.8 92.6901 174.21C93.0501 173.62 93.5301 173.14 94.1301 172.76C94.7201 172.38 95.4001 172.1 96.1601 171.93C96.9301 171.75 97.7301 171.66 98.5601 171.66C99.2101 171.66 99.8701 171.71 100.53 171.81C101.2 171.91 101.86 172.05 102.51 172.24V175.72C101.93 175.39 101.32 175.14 100.67 174.98C100.01 174.81 99.3801 174.73 98.7501 174.73C98.4501 174.73 98.1701 174.76 97.9101 174.81C97.6501 174.86 97.4101 174.94 97.2101 175.04C97.0101 175.14 96.8601 175.28 96.7401 175.43C96.6301 175.58 96.5701 175.76 96.5701 175.95C96.5701 176.22 96.6501 176.46 96.8201 176.65C96.9901 176.84 97.2101 177 97.4901 177.15C97.7701 177.29 98.0801 177.41 98.4201 177.52C98.7601 177.62 99.0901 177.73 99.4201 177.85C100.02 178.06 100.57 178.29 101.05 178.54C101.54 178.79 101.96 179.08 102.31 179.42C102.66 179.75 102.92 180.14 103.11 180.59C103.29 181.04 103.39 181.58 103.39 182.19C103.39 183.06 103.2 183.8 102.82 184.42C102.44 185.03 101.95 185.53 101.32 185.92C100.69 186.3 99.9701 186.58 99.1601 186.76C98.3501 186.94 97.5001 187.03 96.6201 187.03C95.0101 187.03 93.5201 186.78 92.1401 186.29L92.1601 186.28ZM114.86 186.48C114.19 186.84 113.18 187.01 111.85 187.01C108.66 187.01 107.07 185.36 107.07 182.05V175.34H104.69V172.01H107.07V168.84L111.57 167.56V172.01H114.86V175.34H111.57V181.27C111.57 182.8 112.17 183.56 113.39 183.56C113.86 183.56 114.36 183.42 114.86 183.14V186.48ZM119.68 169.7C118.92 169.7 118.29 169.48 117.8 169.03C117.32 168.57 117.08 168.01 117.08 167.35C117.08 166.69 117.32 166.12 117.8 165.7C118.29 165.27 118.92 165.05 119.68 165.05C120.44 165.05 121.07 165.27 121.55 165.7C122.03 166.13 122.27 166.68 122.27 167.35C122.27 168.02 122.03 168.6 121.55 169.04C121.07 169.48 120.45 169.7 119.68 169.7ZM121.91 186.66H117.4V172.01H121.91V186.66ZM149.01 186.66H144.51V178.31C144.51 176.18 143.72 175.12 142.16 175.12C141.41 175.12 140.81 175.44 140.34 176.09C139.87 176.73 139.64 177.52 139.64 178.47V186.67H135.13V178.23C135.13 176.16 134.36 175.13 132.82 175.13C132.05 175.13 131.43 175.44 130.96 176.05C130.5 176.66 130.27 177.49 130.27 178.54V186.68H125.76V172.03H130.27V174.32H130.33C130.79 173.54 131.45 172.91 132.29 172.41C133.14 171.92 134.06 171.67 135.06 171.67C137.13 171.67 138.54 172.58 139.31 174.4C140.43 172.58 142.07 171.67 144.23 171.67C147.42 171.67 149.01 173.63 149.01 177.56V186.68V186.66ZM164.77 186.66H160.5V184.56H160.44C159.45 186.2 158 187.01 156.08 187.01C154.66 187.01 153.54 186.61 152.72 185.8C151.91 185 151.5 183.92 151.5 182.57C151.5 179.73 153.18 178.09 156.55 177.65L160.53 177.13C160.53 175.53 159.66 174.73 157.92 174.73C156.18 174.73 154.52 175.25 152.95 176.28V172.89C153.58 172.56 154.44 172.27 155.53 172.02C156.62 171.78 157.62 171.65 158.51 171.65C162.69 171.65 164.78 173.73 164.78 177.89V186.65L164.77 186.66ZM160.52 180.71V179.72L157.86 180.06C156.39 180.26 155.66 180.92 155.66 182.06C155.66 182.57 155.84 182.99 156.19 183.32C156.55 183.65 157.03 183.82 157.64 183.82C158.49 183.82 159.18 183.53 159.71 182.94C160.24 182.36 160.51 181.61 160.51 180.71H160.52ZM177.18 186.48C176.51 186.84 175.51 187.01 174.17 187.01C170.98 187.01 169.39 185.36 169.39 182.05V175.34H167.01V172.01H169.39V168.84L173.89 167.56V172.01H177.18V175.34H173.89V181.27C173.89 182.8 174.49 183.56 175.71 183.56C176.18 183.56 176.68 183.42 177.18 183.14V186.48ZM182 169.7C181.24 169.7 180.61 169.48 180.12 169.03C179.64 168.57 179.39 168.01 179.39 167.35C179.39 166.69 179.63 166.12 180.12 165.7C180.61 165.27 181.24 165.05 182 165.05C182.76 165.05 183.39 165.27 183.87 165.7C184.35 166.13 184.6 166.68 184.6 167.35C184.6 168.02 184.36 168.6 183.87 169.04C183.39 169.48 182.77 169.7 182 169.7ZM184.23 186.66H179.72V172.01H184.23V186.66ZM195.05 187.02C192.61 187.02 190.69 186.34 189.29 184.97C187.89 183.6 187.19 181.74 187.19 179.39C187.19 177.04 187.92 175.09 189.36 173.72C190.81 172.35 192.77 171.66 195.24 171.66C197.71 171.66 199.58 172.35 200.96 173.72C202.35 175.09 203.05 176.89 203.05 179.14C203.05 181.58 202.33 183.5 200.9 184.91C199.48 186.32 197.52 187.02 195.05 187.02ZM195.16 175.11C194.09 175.11 193.26 175.48 192.67 176.22C192.08 176.95 191.78 177.99 191.78 179.34C191.78 182.16 192.91 183.56 195.19 183.56C197.47 183.56 198.43 182.12 198.43 179.22C198.43 176.48 197.34 175.11 195.16 175.11ZM220.12 186.66H215.62V178.52C215.62 176.25 214.81 175.11 213.19 175.11C212.4 175.11 211.75 175.41 211.24 176.01C210.74 176.61 210.49 177.38 210.49 178.3V186.65H205.98V172H210.49V174.31H210.55C211.62 172.53 213.2 171.64 215.25 171.64C218.49 171.64 220.11 173.66 220.11 177.68V186.64L220.12 186.66Z" fill="#DE1616" />
		<path d="M152.96 220.17L151.2 218.41L125.75 243.87L100.29 218.41L98.54 220.17L123.99 245.62L98.54 271.08L100.29 272.83L125.75 247.38L151.2 272.83L152.96 271.08L127.5 245.62L152.96 220.17Z" fill="#404040" />
		<g opacity="0.96">
			<path d="M71.28 360.98V358.85C71.28 348.84 71.12 342.73 70.8 340.53C74.64 340.99 77.08 341.39 78.13 341.74C78.96 341.98 79.38 342.34 79.38 342.83C79.38 343.55 78.41 344.31 76.48 345.09V361H99.56C102 357.97 103.47 356.45 103.95 356.45C104.35 356.45 105.95 357.63 108.74 359.99C110 360.98 110.63 361.76 110.63 362.33C110.63 362.81 110.27 363.05 109.54 363.05H77.2C80.34 370.97 85.24 378.34 91.9 385.16C97.56 390.96 104.68 395.55 113.24 398.93C113.43 398.98 113.52 399.09 113.52 399.25C113.52 399.57 113.35 399.76 113 399.81C111.95 400.08 111.17 400.48 110.66 401.02C110.18 401.5 109.69 402.34 109.21 403.52C108.97 404.24 108.53 404.61 107.88 404.61C107.48 404.61 106.4 404.09 104.66 403.04C98.59 399.36 92.87 393.93 87.5 386.73C82.53 379.99 78.69 372.73 75.98 364.94C76.52 390.18 76.79 406.22 76.79 413.06C76.79 414.7 75.64 415.52 73.33 415.52C71.75 415.52 70.95 414.86 70.95 413.55C70.95 413.15 70.99 411.43 71.07 408.4C71.28 397.85 71.49 385.04 71.67 369.98C64.13 384.8 52.76 396.47 37.56 404.98C37.53 405.01 37.48 405.02 37.4 405.02C36.94 405.02 36.72 404.76 36.72 404.25C36.72 404.14 36.76 404.05 36.84 403.97C51.74 392.83 62.48 379.19 69.06 363.05H46.63C44.56 363.05 42.58 363.21 40.67 363.53L39.86 360.51C42.03 360.83 44.29 360.99 46.63 360.99H71.28V360.98Z" fill="#404040" />
			<path d="M202.23 406.08C202.5 406.03 202.63 406.16 202.63 406.48C202.63 406.75 202.52 406.95 202.31 407.08C200.81 407.89 199.96 408.92 199.77 410.18C199.69 410.99 199.5 411.5 199.21 411.71C198.97 411.92 198.5 412.05 197.8 412.07C190.63 412.63 183.53 412.92 176.5 412.92C163.08 412.92 154.06 411.4 149.44 408.37C146 406.14 143.39 402.65 141.59 397.9C139.23 401.42 136.09 405.08 132.17 408.89V409.53C132.17 411.57 131.78 412.59 131 412.59C130.57 412.59 130.02 412.05 129.35 410.98C128.73 409.99 127.67 407.96 126.17 404.9C127.65 404.55 129.24 403.95 130.96 403.09C133.4 401.88 135.82 400.23 138.21 398.14V376.8H132.53C130.14 376.8 128.15 377.01 126.57 377.44L125.76 374.22C127.85 374.54 130.11 374.7 132.53 374.7H137.64C139.44 372.85 140.5 371.92 140.82 371.92C141.12 371.92 142.24 372.71 144.2 374.3C145.09 375.13 145.53 375.76 145.53 376.19C145.53 376.65 144.76 377.4 143.23 378.45V397.9C145.06 401.39 147.59 403.83 150.84 405.23C155.19 407.16 162.83 408.13 173.75 408.13C182.74 408.13 192.23 407.45 202.22 406.08H202.23ZM131.11 343.98C131.06 343.93 131.03 343.86 131.03 343.78C131.03 343.48 131.2 343.34 131.55 343.34C131.6 343.34 131.66 343.35 131.71 343.38C135.82 344.91 138.97 346.82 141.17 349.1C143 350.98 143.91 352.85 143.91 354.7C143.91 357.06 142.89 358.24 140.85 358.24C140.15 358.24 139.6 357.97 139.2 357.43C138.88 356.95 138.52 356.06 138.11 354.77C136.9 350.85 134.57 347.25 131.1 343.98H131.11ZM171.1 369.31V356.5H158.05C155.96 359.51 153.02 362.57 149.23 365.68C149.18 365.73 149.1 365.76 148.99 365.76C148.51 365.76 148.27 365.53 148.27 365.08C148.27 365 148.3 364.92 148.35 364.84C151.87 360.65 154.65 355.87 156.69 350.5C157.71 347.82 158.39 345.14 158.74 342.49C163.68 343.83 166.15 344.91 166.15 345.71C166.15 346.38 165.13 346.88 163.09 347.2C161.91 349.97 160.67 352.38 159.39 354.45H171.11V351.23C171.11 346.72 170.95 343.18 170.63 340.6C174.23 341.06 176.58 341.46 177.68 341.81C178.49 342.08 178.89 342.41 178.89 342.82C178.89 343.44 177.98 344.15 176.15 344.95V354.45H187.18C189.35 351.87 190.66 350.58 191.09 350.58C191.65 350.58 193.13 351.57 195.52 353.56C196.67 354.45 197.25 355.18 197.25 355.77C197.25 356.25 196.87 356.49 196.12 356.49H176.15V369.3H191.01C193.35 366.53 194.71 365.15 195.12 365.15C195.66 365.15 197.2 366.2 199.75 368.29C200.96 369.26 201.56 369.99 201.56 370.5C201.56 371.06 201.2 371.35 200.47 371.35H153.88C152.03 371.35 150.24 371.51 148.52 371.83L147.75 368.73C150.01 369.11 152.05 369.29 153.87 369.29H171.11L171.1 369.31ZM186.36 398.19H160.47V400.24C160.47 401.5 159.45 402.13 157.41 402.13C155.99 402.13 155.28 401.58 155.28 400.48L155.52 388.28C155.52 383.04 155.41 379.19 155.2 376.72C156.27 377.18 158.22 378.14 161.04 379.62H185.89C187.61 378.04 188.66 377.24 189.03 377.24C189.35 377.24 190.36 377.9 192.05 379.21C192.99 380.02 193.46 380.65 193.46 381.1C193.46 381.48 192.78 382.16 191.41 383.15V387.62L191.73 399.74C191.73 401.16 190.66 401.87 188.51 401.87C187.09 401.87 186.38 401.35 186.38 400.3V398.17L186.36 398.19ZM186.36 396.13V381.67H160.47V396.13H186.36Z" fill="#404040" />
			<path d="M49.45 448.24C51.79 448.62 53.28 448.94 53.92 449.21C54.46 449.45 54.73 449.79 54.73 450.22C54.73 450.89 53.88 451.58 52.19 452.27V466.45L52.27 495.53C52.27 497.17 51.22 497.99 49.13 497.99C47.6 497.99 46.83 497.31 46.83 495.94C46.83 494.95 46.96 485.21 47.23 466.74L47.39 451.48C44.33 455.91 40.64 460.19 36.32 464.33C36.27 464.38 36.19 464.41 36.08 464.41C35.6 464.41 35.36 464.18 35.36 463.73C35.36 463.65 35.39 463.58 35.44 463.53C39.04 459.15 42.45 453.7 45.67 447.18C48.35 441.81 50.45 436.62 51.95 431.6C53.02 428 53.65 425.17 53.84 423.1C59.24 424.71 61.93 425.95 61.93 426.8C61.93 427.55 60.86 428.08 58.71 428.37C55.7 436.48 52.62 443.11 49.45 448.26V448.24ZM79.25 491.78V467.3H67.13C65.38 467.3 63.52 467.49 61.53 467.86L60.68 464.68C62.67 465.06 64.81 465.24 67.12 465.24H79.24V445.35H65.06C63.05 445.35 61.14 445.51 59.34 445.83L58.53 442.81C60.57 443.13 62.75 443.29 65.05 443.29H99C101.42 440.44 102.85 439.02 103.31 439.02C103.77 439.02 105.34 440.12 108.02 442.32C109.34 443.37 109.99 444.13 109.99 444.62C109.99 445.11 109.63 445.34 108.9 445.34H84.5V465.23H96.78C99.17 462.25 100.57 460.76 100.97 460.76C101.45 460.76 102.94 461.86 105.44 464.06C106.7 465.16 107.33 465.99 107.33 466.56C107.33 467.04 106.98 467.28 106.28 467.28H84.49V491.76H100.84C103.36 488.51 104.84 486.89 105.27 486.89C105.73 486.89 107.35 488.1 110.14 490.51C111.51 491.72 112.19 492.55 112.19 493.01C112.19 493.55 111.84 493.82 111.14 493.82H62.13C60.38 493.82 58.41 493.98 56.21 494.3L55.36 491.2C57.91 491.58 60.17 491.76 62.13 491.76H79.21L79.25 491.78ZM73.45 425.37C73.34 425.32 73.29 425.24 73.29 425.13C73.29 424.73 73.49 424.57 73.89 424.65C78.24 425.72 81.68 427.33 84.2 429.48C86.32 431.25 87.38 433.08 87.38 434.96C87.38 436.01 87.1 436.84 86.53 437.46C86.02 438 85.38 438.27 84.6 438.27C83.82 438.27 83.18 438.06 82.75 437.63C82.37 437.23 81.97 436.5 81.54 435.46C79.79 431.59 77.1 428.24 73.45 425.39V425.37Z" fill="#404040" />
			<path d="M138.03 434.79H160.38V429.55C160.38 427.29 160.25 425.21 159.98 423.31C163.79 423.71 166.25 424.1 167.35 424.48C168.16 424.75 168.56 425.12 168.56 425.61C168.56 426.28 167.57 427.02 165.58 427.82V434.79H189.42C191.33 432.7 192.48 431.65 192.88 431.65C193.34 431.65 194.84 432.8 197.39 435.11C198.65 436.32 199.28 437.16 199.28 437.65C199.28 438.56 198.23 439.06 196.14 439.14C195.15 439.14 194.21 439.58 193.32 440.47C191.28 442.4 189.31 444.09 187.4 445.54C187.32 445.62 187.21 445.66 187.08 445.66C186.7 445.66 186.52 445.5 186.52 445.18C186.52 445.1 186.53 445.03 186.56 444.98C187.88 442.32 188.99 439.61 189.9 436.85H138.11C138.06 440.26 137.25 442.97 135.69 444.98C134.4 446.64 132.87 447.48 131.1 447.48C130.19 447.48 129.45 447.17 128.89 446.55C128.38 445.96 128.12 445.22 128.12 444.34C128.12 443.08 128.91 442.03 130.5 441.2C134.31 439.21 136.3 435.79 136.46 430.93C136.46 430.69 136.61 430.57 136.9 430.57C137.22 430.57 137.4 430.69 137.42 430.93C137.72 432.14 137.92 433.43 138.02 434.8L138.03 434.79ZM155.75 454.16C148.53 455.91 140.68 457.06 132.19 457.62C131.89 457.62 131.75 457.38 131.75 456.9C131.75 456.58 131.84 456.4 132.03 456.38C144.59 454.42 155.96 451.08 166.14 446.35C170.22 444.44 173.55 442.35 176.13 440.07C180.24 442.89 182.29 444.7 182.29 445.51C182.29 446.02 181.75 446.28 180.68 446.28C179.98 446.28 179.12 446.16 178.1 445.92C172.57 448.69 166.82 450.97 160.86 452.77V466.99L186.27 463.41C188.63 459.62 190 457.73 190.38 457.73C190.94 457.73 192.96 458.78 196.42 460.87C197.95 461.78 198.72 462.52 198.72 463.08C198.72 463.51 198.33 463.76 197.55 463.85L160.86 468.96V484.79C160.86 486.48 161.07 487.65 161.5 488.29C162.06 489.12 163.23 489.7 165 490.02C166.72 490.32 169.62 490.46 173.7 490.46C181.81 490.46 186.65 489.83 188.24 488.57C190.07 487.15 191.7 483.55 193.15 477.78C193.23 477.57 193.42 477.46 193.71 477.46C194.06 477.46 194.23 477.59 194.23 477.86C194.07 482.88 193.99 485.55 193.99 485.87C193.99 486.78 194.41 487.39 195.24 487.68C196.18 487.98 196.65 488.66 196.65 489.73C196.65 491.45 195.11 492.79 192.02 493.76C188.61 494.75 182.6 495.25 173.98 495.25C165.82 495.25 160.62 494.5 158.4 492.99C156.47 491.7 155.5 489.1 155.5 485.18L155.74 471.97V469.67L135.28 472.57C133.7 472.76 131.91 473.17 129.92 473.82L128.59 470.84H129.92C131.67 470.84 133.34 470.73 134.95 470.52L155.73 467.62V454.17L155.75 454.16Z" fill="#404040" />
		</g>
		<path d="M15.78 364.72C15.55 364.72 15.32 364.6 15.19 364.39C15 364.06 15.1 363.64 15.42 363.45L125.39 297.37C125.72 297.18 126.14 297.28 126.33 297.6C126.52 297.93 126.42 298.35 126.1 298.54L16.13 364.62C16.02 364.69 15.9 364.72 15.78 364.72Z" fill="#404040" />
		<path d="M235.72 364.72C235.6 364.72 235.48 364.69 235.37 364.62L125.4 298.54C125.08 298.34 124.97 297.92 125.17 297.6C125.37 297.27 125.79 297.17 126.11 297.37L236.08 363.45C236.4 363.65 236.51 364.07 236.31 364.39C236.18 364.6 235.95 364.72 235.72 364.72Z" fill="#404040" />
	</g>
	<defs>
		<clipPath id="clip0_115_2">
			<rect width="250" height="531.04" fill="white" />
		</clipPath>
	</defs>
</svg>
