<?xml version="1.0" encoding="UTF-8"?>
<svg id="picture" xmlns="http://www.w3.org/2000/svg" viewBox="0 0 600 600">
  <defs>
    <style>
      .cls-1, .cls-2, .cls-3, .cls-4, .cls-5 {
        stroke-width: 0px;
      }

      .cls-1, .cls-4 {
        fill-rule: evenodd;
      }

      .cls-1, .cls-5 {
        fill: #0962a8;
      }

      .cls-2, .cls-4 {
        fill: #cc3a26;
      }

      .cls-6 {
        opacity: .96;
      }

      .cls-3 {
        fill: #404040;
      }
    </style>
  </defs>
  <g>
    <g class="cls-6">
      <path class="cls-3" d="M254.36,418.95v-2.04c0-9.58-.15-15.42-.46-17.53,3.67.44,6.01.82,7.01,1.16.8.23,1.19.58,1.19,1.04,0,.69-.92,1.41-2.77,2.16v15.22h22.07c2.34-2.9,3.74-4.35,4.2-4.35.39,0,1.91,1.13,4.58,3.39,1.21.95,1.81,1.69,1.81,2.23,0,.46-.35.69-1.04.69h-30.93c3,7.58,7.69,14.63,14.06,21.15,5.42,5.55,12.22,9.94,20.42,13.17.18.05.27.15.27.31,0,.31-.17.49-.5.54-1,.26-1.75.64-2.23,1.16-.46.46-.92,1.26-1.39,2.39-.23.69-.65,1.04-1.27,1.04-.39,0-1.41-.5-3.08-1.5-5.8-3.52-11.27-8.72-16.41-15.6-4.75-6.45-8.42-13.39-11.02-20.84.51,24.14.77,39.48.77,46.03,0,1.57-1.1,2.35-3.31,2.35-1.52,0-2.27-.63-2.27-1.89,0-.39.04-2.03.12-4.93.21-10.09.4-22.34.58-36.75-7.22,14.18-18.09,25.33-32.63,33.47-.03.03-.08.04-.15.04-.44,0-.65-.24-.65-.73,0-.1.04-.19.12-.27,14.25-10.66,24.52-23.7,30.82-39.14h-21.46c-1.98,0-3.88.15-5.7.46l-.77-2.89c2.08.31,4.24.46,6.47.46h23.57Z"/>
      <path class="cls-3" d="M379.61,462.1c.26-.05.39.08.39.39,0,.26-.1.45-.31.58-1.44.77-2.25,1.76-2.43,2.97-.08.77-.26,1.26-.54,1.46-.23.21-.68.32-1.35.35-6.86.54-13.65.81-20.38.81-12.84,0-21.47-1.45-25.89-4.35-3.29-2.13-5.79-5.47-7.51-10.02-2.26,3.36-5.26,6.87-9.01,10.52v.62c0,1.95-.37,2.93-1.12,2.93-.41,0-.94-.51-1.58-1.54-.59-.95-1.61-2.89-3.04-5.82,1.41-.33,2.94-.91,4.58-1.73,2.34-1.16,4.65-2.73,6.93-4.74v-20.42h-5.43c-2.29,0-4.19.21-5.7.62l-.77-3.08c2,.31,4.16.46,6.47.46h4.89c1.72-1.77,2.73-2.66,3.04-2.66.28,0,1.36.76,3.24,2.27.85.8,1.27,1.4,1.27,1.81,0,.44-.73,1.16-2.2,2.16v18.61c1.75,3.34,4.17,5.68,7.28,7.01,4.16,1.85,11.47,2.77,21.92,2.77,8.6,0,17.68-.65,27.23-1.96ZM311.59,402.7c-.05-.05-.08-.12-.08-.19,0-.28.17-.42.5-.42.05,0,.1.01.15.04,3.93,1.46,6.95,3.29,9.05,5.47,1.75,1.8,2.62,3.58,2.62,5.35,0,2.26-.98,3.39-2.93,3.39-.67,0-1.19-.26-1.58-.77-.31-.46-.65-1.31-1.04-2.54-1.16-3.75-3.39-7.19-6.7-10.32ZM349.84,426.93v-12.25h-12.48c-2,2.88-4.82,5.8-8.44,8.78-.05.05-.13.08-.23.08-.46,0-.69-.22-.69-.65,0-.08.03-.15.08-.23,3.36-4.01,6.02-8.58,7.97-13.71.98-2.57,1.63-5.12,1.96-7.67,4.73,1.28,7.09,2.31,7.09,3.08,0,.64-.98,1.12-2.93,1.43-1.13,2.65-2.31,4.96-3.54,6.93h11.21v-3.08c0-4.31-.15-7.7-.46-10.17,3.44.44,5.69.82,6.74,1.16.77.26,1.16.58,1.16.96,0,.59-.87,1.27-2.62,2.04v9.09h10.55c2.08-2.47,3.33-3.7,3.74-3.7.54,0,1.95.95,4.24,2.85,1.1.85,1.66,1.55,1.66,2.12,0,.46-.36.69-1.08.69h-19.11v12.25h14.21c2.23-2.65,3.54-3.97,3.93-3.97.51,0,1.99,1,4.43,3,1.16.92,1.73,1.63,1.73,2.12,0,.54-.35.81-1.04.81h-44.57c-1.77,0-3.48.15-5.12.46l-.73-2.97c2.16.36,4.11.54,5.86.54h16.49ZM364.44,454.55h-24.77v1.96c0,1.21-.98,1.81-2.93,1.81-1.36,0-2.04-.53-2.04-1.58l.23-11.67c0-5.01-.1-8.69-.31-11.06,1.03.44,2.89,1.36,5.59,2.77h23.77c1.64-1.52,2.65-2.27,3-2.27.31,0,1.27.63,2.89,1.89.9.77,1.35,1.37,1.35,1.81,0,.36-.65,1.01-1.96,1.96v4.28l.31,11.59c0,1.36-1.03,2.04-3.08,2.04-1.36,0-2.04-.5-2.04-1.5v-2.04ZM364.44,452.58v-13.83h-24.77v13.83h24.77Z"/>
      <path class="cls-3" d="M233.48,502.43c2.23.36,3.66.67,4.28.92.51.23.77.55.77.96,0,.64-.81,1.3-2.43,1.96v13.56l.08,27.81c0,1.57-1,2.35-3,2.35-1.46,0-2.2-.65-2.2-1.96,0-.95.13-10.26.39-27.93l.15-14.6c-2.93,4.24-6.46,8.33-10.59,12.29-.05.05-.13.08-.23.08-.46,0-.69-.22-.69-.65,0-.08.03-.14.08-.19,3.44-4.19,6.7-9.4,9.78-15.64,2.57-5.14,4.57-10.11,6.01-14.91,1.03-3.44,1.63-6.15,1.81-8.13,5.16,1.54,7.74,2.72,7.74,3.54,0,.72-1.03,1.22-3.08,1.5-2.88,7.76-5.83,14.1-8.86,19.03ZM261.99,544.07v-23.42h-11.59c-1.67,0-3.45.18-5.35.54l-.81-3.04c1.9.36,3.95.54,6.16.54h11.59v-19.03h-13.56c-1.93,0-3.75.15-5.47.46l-.77-2.89c1.95.31,4.03.46,6.24.46h32.47c2.31-2.72,3.69-4.08,4.12-4.08s1.94,1.05,4.51,3.16c1.26,1,1.89,1.73,1.89,2.2s-.35.69-1.04.69h-23.34v19.03h11.75c2.29-2.85,3.62-4.28,4.01-4.28.46,0,1.89,1.05,4.28,3.16,1.21,1.05,1.81,1.85,1.81,2.39,0,.46-.33.69-1,.69h-20.84v23.42h15.64c2.41-3.11,3.83-4.66,4.24-4.66.44,0,1.99,1.16,4.66,3.47,1.31,1.16,1.96,1.95,1.96,2.39,0,.51-.33.77-1,.77h-46.88c-1.67,0-3.56.15-5.66.46l-.81-2.97c2.44.36,4.6.54,6.47.54h16.33ZM256.44,480.55c-.1-.05-.15-.13-.15-.23,0-.39.19-.54.58-.46,4.16,1.03,7.45,2.57,9.86,4.62,2.03,1.69,3.04,3.44,3.04,5.24,0,1-.27,1.8-.81,2.39-.49.51-1.1.77-1.85.77s-1.36-.21-1.77-.62c-.36-.39-.74-1.08-1.16-2.08-1.67-3.7-4.25-6.91-7.74-9.63Z"/>
      <path class="cls-3" d="M318.21,489.56h21.38v-5.01c0-2.16-.13-4.15-.39-5.97,3.65.39,6,.76,7.05,1.12.77.26,1.16.62,1.16,1.08,0,.64-.95,1.35-2.85,2.12v6.66h22.8c1.82-2,2.93-3,3.31-3,.44,0,1.87,1.1,4.31,3.31,1.21,1.16,1.81,1.96,1.81,2.43,0,.87-1,1.35-3,1.43-.95,0-1.85.42-2.7,1.27-1.95,1.85-3.84,3.47-5.66,4.85-.08.08-.18.12-.31.12-.36,0-.54-.15-.54-.46,0-.08.01-.14.04-.19,1.26-2.54,2.32-5.14,3.2-7.78h-49.54c-.05,3.26-.82,5.86-2.31,7.78-1.23,1.59-2.7,2.39-4.39,2.39-.87,0-1.58-.3-2.12-.89-.49-.56-.73-1.27-.73-2.12,0-1.21.76-2.21,2.27-3,3.65-1.9,5.55-5.17,5.7-9.82,0-.23.14-.35.42-.35.31,0,.48.12.5.35.28,1.16.48,2.39.58,3.7ZM335.16,508.09c-6.91,1.67-14.42,2.77-22.53,3.31-.28,0-.42-.23-.42-.69,0-.31.09-.48.27-.5,12.02-1.87,22.89-5.07,32.63-9.59,3.9-1.82,7.09-3.83,9.55-6.01,3.93,2.7,5.89,4.43,5.89,5.2,0,.49-.51.73-1.54.73-.67,0-1.49-.12-2.47-.35-5.29,2.65-10.79,4.83-16.49,6.55v13.6l24.31-3.43c2.26-3.62,3.57-5.43,3.93-5.43.54,0,2.47,1,5.78,3,1.46.87,2.2,1.58,2.2,2.12,0,.41-.37.65-1.12.73l-35.09,4.89v15.14c0,1.62.21,2.73.62,3.35.54.8,1.66,1.35,3.35,1.66,1.64.28,4.42.42,8.32.42,7.76,0,12.39-.6,13.91-1.81,1.75-1.36,3.31-4.8,4.7-10.32.08-.21.26-.31.54-.31.33,0,.5.13.5.39-.15,4.8-.23,7.36-.23,7.67,0,.87.4,1.45,1.19,1.73.9.28,1.35.94,1.35,1.96,0,1.64-1.48,2.93-4.43,3.85-3.26.95-9.01,1.43-17.26,1.43-7.81,0-12.78-.72-14.91-2.16-1.85-1.23-2.77-3.72-2.77-7.47l.23-12.63v-2.2l-19.57,2.77c-1.52.18-3.22.58-5.12,1.19l-1.27-2.85h1.27c1.67,0,3.27-.1,4.82-.31l19.88-2.77v-12.87Z"/>
    </g>
    <path class="cls-3" d="M399.7,409.79l-99.38-59.71s-.05-.02-.08-.03c-.04-.02-.08-.04-.13-.04-.04,0-.08,0-.12,0s-.08,0-.12,0c-.04,0-.08.03-.12.04-.03.01-.06.01-.08.03l-99.38,59.71c-.29.18-.39.56-.21.85.12.19.32.3.53.3.11,0,.22-.03.32-.09l99.06-50.68,99.06,50.68c.1.06.21.09.32.09.21,0,.42-.11.53-.3.18-.29.08-.68-.21-.85Z"/>
  </g>
  <polygon class="cls-3" points="325 276.61 323.39 275 300 298.39 276.61 275 275 276.61 298.39 300 275 323.39 276.61 325 300 301.61 323.39 325 325 323.39 301.61 300 325 276.61"/>
  <g>
    <path class="cls-1" d="M303.59,164.91v-32.65l21.41,13.8v2.28h.05v20.77c-7.47-.31-14.62-1.7-21.45-4.19M285.87,137.63l17.72-10.8v-8.84l21.41,13.76v2.28h.05v5.55l4.33,3.1v2.96l-25.78-16.26-17.72,10.8v-2.55M336.2,168.83v-13.03l9.79,6.29v.5l2-1.18-11.8-7.47v-7.42l9.79,6.33v.5l2-1.23-11.8-7.42v-7.42l9.79,6.28v.55l2-1.23-11.8-7.42v-7.43l9.79,6.29v.54l2-1.23-11.8-7.43v-7.47l-11.12,6.56,4.28,3.05v3.01l-4.33-2.73-21.45-13.48v-.05l-17.72,10.8v-2.55l17.72-10.8v-9.11l21.41,13.76v2.32l4.42-2.64-25.82-16.3-17.72,10.79v-2.55l17.72-10.8v-8.97l21.41,13.76v2.32l4.42-2.64-25.82-16.3-17.72,10.75v-2.51l17.72-10.84v-8.79l-23.87,15.49v58.53c-9.99-11.66-14.45-25.11-13.39-40.35,1.06-15.24,7.7-29.51,19.91-42.81,6.1-6.32,12.86-11.52,20.27-15.62-11.84,4.43-22.36,11.4-31.56,20.9-9.17,9.81-15.2,20.36-18.08,31.65-2.89,11.27-2.66,22.12.68,32.57,3.31,10.44,9.72,19.33,19.22,26.64,11.47,8.26,24.49,12.49,39.03,12.71,14.55.18,28.57-3.4,42.08-10.75-7.1,2.67-14.33,4.37-21.68,5.1"/>
    <path class="cls-4" d="M279.72,170.47c-10.9-6.14-18.98-14.21-24.23-24.23-5.25-10.02-7.44-20.83-6.56-32.43.85-11.63,4.98-22.9,12.39-33.8,5.26-7.41,11.45-13.68,18.59-18.81-10.02,5.77-18.49,13.52-25.42,23.27-7.44,10.9-11.58,22.15-12.43,33.75-.85,11.63,1.35,22.46,6.6,32.48,5.25,10.02,13.31,18.09,24.19,24.23,12.84,6.77,26.51,9.44,40.99,8.02,14.45-1.46,27.77-6.5,39.94-15.12-11.66,6.68-24.01,10.33-37.07,10.93-13.06.64-25.38-2.12-36.98-8.29"/>
    <path class="cls-5" d="M200,223.65v-33.09h12.04c3.69,0,6.53.68,8.52,2.03,1.98,1.35,2.98,3.26,2.98,5.72,0,1.79-.6,3.35-1.81,4.69-1.21,1.34-2.75,2.27-4.63,2.79v.09c2.35.3,4.23,1.17,5.64,2.61,1.41,1.45,2.12,3.21,2.12,5.28,0,3.04-1.09,5.45-3.26,7.22-2.17,1.77-5.13,2.66-8.87,2.66h-12.71ZM207.45,196.04v7.85h3.27c1.54,0,2.76-.37,3.64-1.12.89-.75,1.33-1.77,1.33-3.08,0-2.44-1.82-3.66-5.45-3.66h-2.79ZM207.45,209.43v8.73h4.04c1.72,0,3.07-.4,4.05-1.19.98-.8,1.46-1.9,1.46-3.29s-.48-2.36-1.44-3.11c-.96-.75-2.3-1.13-4.02-1.13h-4.09ZM240.49,190.55v5.77h-2.77v21.55h2.77v5.77h-12.98v-5.77h2.77v-21.55h-2.77v-5.77h12.98ZM277.46,196.62h-11.68v8.12h10.73v6.05h-10.73v12.85h-7.45v-33.09h19.12v6.07ZM293.51,224.22c-3.94,0-7.04-1.1-9.29-3.31-2.25-2.21-3.37-5.21-3.37-9s1.17-6.96,3.51-9.17c2.34-2.21,5.5-3.31,9.49-3.31s7,1.11,9.23,3.31c2.23,2.21,3.35,5.13,3.35,8.76,0,3.92-1.15,7.02-3.46,9.3-2.3,2.27-5.45,3.41-9.45,3.41h0ZM293.69,205.03c-1.72,0-3.06.6-4.01,1.78-.95,1.18-1.43,2.86-1.43,5.02,0,4.54,1.83,6.8,5.49,6.8s5.24-2.33,5.24-6.99c0-4.41-1.77-6.62-5.29-6.62h0ZM326.56,206.59c-.88-.47-1.9-.71-3.06-.71-1.59,0-2.84.58-3.73,1.75-.89,1.16-1.33,2.74-1.33,4.74v11.28h-7.3v-23.63h7.3v4.38h.09c1.16-3.2,3.24-4.8,6.24-4.8.76,0,1.36.1,1.8.28v6.71ZM372.8,223.65h-8.12l-2.35-7.36h-11.78l-2.33,7.36h-8.07l12.05-33.09h8.84l11.77,33.09ZM360.62,210.56l-3.56-11.12c-.26-.83-.45-1.82-.55-2.98h-.18c-.07.97-.27,1.93-.58,2.89l-3.59,11.21h8.47ZM400,222.46c-2.41,1.18-5.57,1.76-9.46,1.76-5.07,0-9.06-1.49-11.97-4.48-2.9-2.98-4.36-6.96-4.36-11.93,0-5.29,1.63-9.58,4.9-12.87,3.27-3.3,7.51-4.95,12.73-4.95,3.23,0,5.96.41,8.17,1.23v7.17c-2.22-1.33-4.74-1.99-7.57-1.99-3.11,0-5.62.98-7.53,2.94-1.9,1.95-2.86,4.6-2.86,7.94s.9,5.75,2.7,7.65c1.8,1.89,4.23,2.84,7.27,2.84s5.57-.71,7.99-2.13v6.81Z"/>
    <path class="cls-2" d="M208.48,249v-3.8c1.33.97,2.88,1.45,4.65,1.45,1.12,0,1.99-.24,2.61-.71.62-.48.94-1.16.94-2.02s-.39-1.57-1.16-2.04c-.76-.48-1.82-.73-3.17-.73h-1.78v-3.35h1.65c2.58,0,3.88-.86,3.88-2.57,0-1.62-.99-2.42-2.98-2.42-1.33,0-2.62.43-3.88,1.28v-3.57c1.39-.7,3.02-1.05,4.87-1.05,2.03,0,3.61.46,4.74,1.37,1.13.91,1.7,2.1,1.7,3.56,0,2.59-1.31,4.22-3.94,4.87v.07c1.4.17,2.51.68,3.32,1.53.81.85,1.22,1.88,1.22,3.11,0,1.86-.68,3.32-2.04,4.41-1.35,1.08-3.22,1.61-5.61,1.61-2.05,0-3.72-.33-5.01-1h0ZM225,249.66v-19.85h7.03c7.05,0,10.58,3.22,10.58,9.67,0,3.09-.97,5.56-2.89,7.41-1.93,1.85-4.49,2.77-7.69,2.77h-7.03ZM229.47,233.45v12.58h2.21c1.94,0,3.45-.58,4.55-1.74,1.11-1.16,1.66-2.75,1.66-4.75,0-1.9-.55-3.38-1.65-4.47-1.09-1.08-2.62-1.62-4.59-1.62h-2.19ZM265.65,249.66h-11.9v-19.85h11.45v3.64h-6.98v4.41h6.5v3.63h-6.5v4.54h7.43v3.63ZM267.5,249.29v-3.54c.72.43,1.44.75,2.15.96.71.22,1.39.32,2.03.32.78,0,1.39-.1,1.83-.32.45-.21.68-.53.68-.96,0-.28-.1-.51-.31-.69-.21-.19-.47-.35-.79-.49-.31-.14-.66-.26-1.05-.37-.38-.11-.74-.24-1.08-.38-.57-.21-1.07-.44-1.5-.68-.43-.25-.79-.53-1.08-.85-.29-.33-.51-.7-.66-1.13-.15-.43-.22-.93-.22-1.5,0-.79.17-1.48.52-2.05.35-.57.82-1.04,1.39-1.4.57-.37,1.23-.63,1.97-.8.74-.17,1.52-.26,2.33-.26.63,0,1.27.05,1.91.15.65.09,1.29.23,1.92.42v3.37c-.56-.32-1.15-.56-1.78-.71-.63-.16-1.25-.25-1.86-.25-.29,0-.56.02-.81.07-.26.05-.48.12-.68.22-.19.1-.34.23-.46.38-.11.15-.16.32-.16.5,0,.26.08.49.25.68.16.18.38.34.65.48.27.13.57.25.9.36.33.1.65.21.97.32.58.21,1.11.43,1.58.66.47.24.88.52,1.22.85.34.32.59.7.78,1.13.18.44.27.95.27,1.55,0,.84-.18,1.56-.55,2.15-.36.59-.85,1.08-1.45,1.45-.61.37-1.3.64-2.09.81-.79.17-1.61.26-2.46.26-1.56,0-3-.24-4.33-.71h0ZM289.46,249.48c-.65.34-1.62.52-2.92.52-3.09,0-4.63-1.6-4.63-4.8v-6.5h-2.3v-3.22h2.3v-3.06l4.36-1.24v4.31h3.19v3.22h-3.19v5.73c0,1.48.58,2.22,1.76,2.22.46,0,.93-.14,1.43-.41v3.24ZM294.13,233.24c-.74,0-1.35-.22-1.82-.65-.47-.44-.7-.98-.7-1.62s.23-1.19.7-1.6c.47-.42,1.08-.63,1.82-.63s1.35.21,1.81.63c.47.41.7.94.7,1.6s-.23,1.21-.7,1.64c-.46.43-1.06.64-1.81.64h0ZM296.28,249.66h-4.37v-14.18h4.37v14.18ZM322.51,249.66h-4.36v-8.08c0-2.06-.76-3.09-2.28-3.09-.72,0-1.31.31-1.76.93-.45.62-.68,1.38-.68,2.3v7.94h-4.37v-8.17c0-2-.75-3-2.24-3-.75,0-1.35.3-1.8.89-.44.59-.66,1.4-.66,2.41v7.88h-4.37v-14.18h4.37v2.22h.06c.45-.75,1.08-1.37,1.89-1.85.82-.47,1.71-.71,2.68-.71,2,0,3.37.88,4.11,2.65,1.08-1.76,2.67-2.65,4.76-2.65,3.08,0,4.63,1.9,4.63,5.7v8.82ZM337.76,249.66h-4.13v-2.03h-.06c-.95,1.58-2.36,2.38-4.22,2.38-1.37,0-2.46-.39-3.25-1.17-.79-.78-1.18-1.82-1.18-3.13,0-2.75,1.63-4.34,4.89-4.76l3.85-.5c0-1.55-.84-2.33-2.52-2.33s-3.29.5-4.81,1.5v-3.29c.61-.32,1.44-.6,2.5-.84,1.06-.24,2.02-.36,2.88-.36,4.04,0,6.07,2.02,6.07,6.04v8.48ZM333.65,243.9v-.96l-2.57.33c-1.42.19-2.13.83-2.13,1.93,0,.49.17.9.52,1.22.34.32.81.48,1.4.48.82,0,1.49-.28,2.01-.85.52-.57.78-1.28.78-2.15h0ZM349.77,249.48c-.65.34-1.62.52-2.92.52-3.09,0-4.63-1.6-4.63-4.8v-6.5h-2.3v-3.22h2.3v-3.06l4.36-1.24v4.31h3.19v3.22h-3.19v5.73c0,1.48.59,2.22,1.76,2.22.46,0,.93-.14,1.43-.41v3.24ZM354.44,233.24c-.74,0-1.35-.22-1.82-.65-.47-.44-.7-.98-.7-1.62s.23-1.19.7-1.6c.47-.42,1.08-.63,1.82-.63s1.35.21,1.81.63c.47.41.7.94.7,1.6s-.23,1.21-.7,1.64c-.46.43-1.06.64-1.81.64h0ZM356.59,249.66h-4.37v-14.18h4.37v14.18ZM367.06,250c-2.36,0-4.22-.66-5.57-1.98-1.35-1.33-2.03-3.13-2.03-5.4s.7-4.17,2.1-5.49c1.4-1.33,3.3-1.99,5.69-1.99s4.2.66,5.54,1.99c1.34,1.32,2.02,3.07,2.02,5.24,0,2.36-.69,4.22-2.08,5.59-1.38,1.36-3.27,2.04-5.66,2.04h0ZM367.17,238.48c-1.03,0-1.84.36-2.41,1.07-.57.71-.86,1.71-.86,3.01,0,2.73,1.1,4.09,3.3,4.09s3.14-1.4,3.14-4.2c0-2.65-1.06-3.98-3.16-3.98h0ZM391.33,249.66h-4.36v-7.88c0-2.2-.78-3.3-2.35-3.3-.76,0-1.39.29-1.88.87-.49.58-.73,1.32-.73,2.22v8.08h-4.37v-14.18h4.37v2.24h.06c1.04-1.72,2.56-2.58,4.55-2.58,3.13,0,4.7,1.95,4.7,5.85v8.68Z"/>
  </g>
</svg>