<?xml version="1.0"?>
<svg width="501" height="232" viewBox="0 0 501 232" fill="none" xmlns="http://www.w3.org/2000/svg">
	<g clip-path="url(#clip0_115_65)">
		<path fill-rule="evenodd" clip-rule="evenodd" d="M98.34 100.39V73.62L115.89 84.93V86.8H115.93V103.83C109.8 103.58 103.94 102.44 98.34 100.39ZM83.81 78.03L98.34 69.18V61.94L115.89 73.22V75.09H115.93V79.64L119.48 82.18V84.61L98.34 71.28L83.81 80.13V78.04M125.08 103.61V92.93L133.11 98.09V98.5L134.75 97.53L125.08 91.4V85.31L133.11 90.5V90.91L134.75 89.9L125.08 83.81V77.72L133.11 82.87V83.32L134.75 82.31L125.08 76.22V70.13L133.11 75.29V75.74L134.75 74.73L125.08 68.64V62.52L115.97 67.9L119.48 70.4V72.87L115.93 70.63L98.34 59.58V59.54L83.81 68.39V66.3L98.34 57.45V49.98L115.89 61.26V63.17L119.51 61L98.34 47.63L83.81 56.48V54.39L98.34 45.54V38.18L115.89 49.46V51.37L119.51 49.2L98.34 35.83L83.81 44.64V42.59L98.34 33.7V26.49L78.77 39.19V87.18C70.58 77.62 66.92 66.59 67.79 54.09C68.66 41.59 74.1 29.89 84.11 18.99C89.11 13.81 94.65 9.54002 100.73 6.18002C91.02 9.81002 82.39 15.53 74.85 23.32C67.33 31.36 62.39 40.01 60.02 49.27C57.65 58.51 57.84 67.41 60.58 75.97C63.29 84.53 68.55 91.81 76.34 97.82C85.75 104.59 96.42 108.06 108.34 108.24C120.27 108.39 131.77 105.45 142.84 99.43C137.02 101.62 131.09 103.02 125.07 103.61" fill="#1159C7" />
		<path fill-rule="evenodd" clip-rule="evenodd" d="M78.77 104.95C69.83 99.92 63.21 93.3 58.9 85.08C54.59 76.86 52.8 68 53.52 58.49C54.22 48.95 57.6 39.72 63.67 30.78C67.98 24.71 73.06 19.57 78.91 15.36C70.69 20.09 63.75 26.45 58.07 34.44C51.97 43.38 48.57 52.6 47.88 62.11C47.18 71.64 48.99 80.52 53.29 88.74C57.6 96.96 64.21 103.57 73.12 108.6C83.65 114.15 94.85 116.34 106.73 115.17C118.58 113.97 129.5 109.84 139.48 102.77C129.92 108.25 119.79 111.24 109.08 111.73C98.38 112.26 88.27 109.99 78.76 104.94" fill="#DE1414" />
		<path d="M0.589966 150.51V119.13H12C15.5 119.13 18.19 119.77 20.07 121.06C21.95 122.34 22.89 124.15 22.89 126.49C22.89 128.19 22.32 129.67 21.17 130.94C20.03 132.21 18.56 133.09 16.78 133.59V133.67C19.01 133.95 20.79 134.78 22.13 136.14C23.47 137.51 24.14 139.18 24.14 141.15C24.14 144.03 23.11 146.31 21.05 148C19 149.68 16.19 150.52 12.64 150.52H0.589966V150.51ZM7.64997 124.33V131.78H10.75C12.21 131.78 13.36 131.43 14.2 130.72C15.04 130.01 15.46 129.04 15.46 127.8C15.46 125.49 13.74 124.33 10.29 124.33H7.63997H7.64997ZM7.64997 137.03V145.3H11.48C13.11 145.3 14.39 144.92 15.32 144.17C16.24 143.41 16.71 142.37 16.71 141.05C16.71 139.73 16.26 138.81 15.34 138.1C14.43 137.39 13.16 137.03 11.52 137.03H7.64997ZM38.98 119.13V124.6H36.35V145.03H38.98V150.5H26.67V145.03H29.3V124.6H26.67V119.13H38.98ZM74.03 124.88H62.96V132.58H73.14V138.32H62.96V150.5H55.9V119.12H74.03V124.87V124.88ZM89.26 151.06C85.53 151.06 82.59 150.02 80.45 147.92C78.32 145.83 77.25 142.98 77.25 139.39C77.25 135.8 78.36 132.79 80.58 130.7C82.8 128.61 85.8 127.56 89.58 127.56C93.36 127.56 96.21 128.61 98.33 130.7C100.45 132.79 101.5 135.56 101.5 139.01C101.5 142.73 100.41 145.67 98.22 147.83C96.04 149.99 93.05 151.06 89.26 151.06ZM89.43 132.85C87.8 132.85 86.53 133.42 85.63 134.54C84.73 135.66 84.28 137.25 84.28 139.3C84.28 143.6 86.01 145.75 89.48 145.75C92.95 145.75 94.45 143.54 94.45 139.12C94.45 134.94 92.78 132.84 89.43 132.84V132.85ZM120.6 134.34C119.77 133.89 118.8 133.66 117.69 133.66C116.18 133.66 115 134.21 114.15 135.32C113.31 136.42 112.89 137.92 112.89 139.81V150.51H105.97V128.1H112.89V132.25H112.97C114.07 129.22 116.04 127.7 118.89 127.7C119.61 127.7 120.18 127.79 120.59 127.97V134.33L120.6 134.34ZM164.44 150.51H156.74L154.51 143.53H143.34L141.13 150.51H133.47L144.89 119.13H153.27L164.43 150.51H164.44ZM152.89 138.1L149.52 127.55C149.27 126.77 149.09 125.82 148.99 124.73H148.82C148.75 125.65 148.57 126.56 148.27 127.47L144.86 138.1H152.89ZM190.24 149.39C187.95 150.5 184.96 151.06 181.27 151.06C176.46 151.06 172.68 149.65 169.92 146.81C167.17 143.98 165.79 140.21 165.79 135.5C165.79 130.48 167.34 126.42 170.43 123.29C173.53 120.16 177.55 118.6 182.5 118.6C185.56 118.6 188.15 118.99 190.25 119.77V126.57C188.15 125.31 185.76 124.68 183.07 124.68C180.12 124.68 177.74 125.61 175.93 127.47C174.12 129.32 173.22 131.83 173.22 135C173.22 138.17 174.07 140.46 175.78 142.26C177.49 144.06 179.79 144.96 182.68 144.96C185.57 144.96 187.97 144.29 190.25 142.94V149.39H190.24Z" fill="#145AC8" />
		<path d="M8.62 176.85V173.24C9.88 174.16 11.35 174.62 13.03 174.62C14.1 174.62 14.92 174.4 15.5 173.94C16.09 173.48 16.39 172.84 16.39 172.03C16.39 171.22 16.02 170.55 15.29 170.09C14.57 169.63 13.56 169.4 12.28 169.4H10.59V166.23H12.15C14.6 166.23 15.83 165.42 15.83 163.79C15.83 162.26 14.89 161.49 13.01 161.49C11.75 161.49 10.52 161.9 9.33 162.7V159.32C10.65 158.66 12.19 158.33 13.95 158.33C15.88 158.33 17.38 158.76 18.44 159.63C19.51 160.49 20.05 161.62 20.05 163C20.05 165.46 18.8 167 16.32 167.62V167.69C17.65 167.85 18.7 168.34 19.47 169.14C20.24 169.94 20.63 170.93 20.63 172.09C20.63 173.85 19.98 175.24 18.69 176.27C17.41 177.29 15.63 177.8 13.37 177.8C11.42 177.8 9.84 177.48 8.62 176.85ZM24.3 177.47V158.65H30.96C37.65 158.65 41 161.71 41 167.82C41 170.75 40.08 173.09 38.26 174.84C36.43 176.59 34 177.47 30.97 177.47H24.31H24.3ZM28.53 162.1V174.03H30.63C32.47 174.03 33.9 173.48 34.95 172.38C36 171.28 36.53 169.77 36.53 167.88C36.53 166.08 36.01 164.67 34.97 163.64C33.93 162.61 32.48 162.1 30.62 162.1H28.54H28.53ZM62.84 177.47H51.56V158.65H62.41V162.1H55.79V166.28H61.95V169.72H55.79V174.03H62.84V177.47ZM64.59 177.12V173.76C65.27 174.17 65.96 174.47 66.63 174.67C67.31 174.87 67.95 174.97 68.56 174.97C69.3 174.97 69.88 174.87 70.3 174.67C70.73 174.47 70.94 174.17 70.94 173.76C70.94 173.5 70.84 173.28 70.65 173.11C70.45 172.93 70.21 172.78 69.9 172.64C69.6 172.51 69.27 172.39 68.91 172.29C68.55 172.18 68.21 172.06 67.88 171.93C67.34 171.73 66.87 171.52 66.46 171.29C66.05 171.06 65.71 170.79 65.43 170.48C65.16 170.17 64.95 169.81 64.8 169.41C64.66 169.01 64.59 168.53 64.59 167.99C64.59 167.24 64.75 166.59 65.08 166.04C65.41 165.5 65.85 165.05 66.4 164.71C66.94 164.36 67.57 164.11 68.27 163.95C68.98 163.79 69.71 163.71 70.48 163.71C71.08 163.71 71.68 163.76 72.29 163.85C72.9 163.94 73.51 164.07 74.11 164.25V167.45C73.58 167.15 73.02 166.92 72.42 166.77C71.82 166.62 71.23 166.54 70.66 166.54C70.39 166.54 70.13 166.56 69.89 166.61C69.65 166.66 69.44 166.73 69.25 166.82C69.07 166.91 68.93 167.04 68.82 167.18C68.72 167.32 68.67 167.48 68.67 167.66C68.67 167.91 68.75 168.12 68.9 168.3C69.05 168.47 69.26 168.62 69.52 168.75C69.78 168.88 70.06 168.99 70.37 169.09C70.68 169.18 70.99 169.29 71.29 169.39C71.84 169.59 72.34 169.8 72.78 170.02C73.23 170.25 73.61 170.52 73.94 170.83C74.26 171.13 74.5 171.49 74.68 171.9C74.85 172.31 74.94 172.8 74.94 173.37C74.94 174.16 74.77 174.85 74.41 175.41C74.07 175.97 73.61 176.43 73.03 176.79C72.45 177.14 71.79 177.4 71.05 177.56C70.3 177.72 69.52 177.8 68.72 177.8C67.24 177.8 65.87 177.57 64.61 177.12H64.59ZM85.42 177.31C84.8 177.64 83.88 177.8 82.65 177.8C79.72 177.8 78.26 176.28 78.26 173.25V167.09H76.08V164.03H78.26V161.12L82.39 159.94V164.02H85.41V167.08H82.39V172.52C82.39 173.92 82.94 174.62 84.06 174.62C84.49 174.62 84.95 174.49 85.41 174.23V177.3L85.42 177.31ZM89.84 161.9C89.14 161.9 88.56 161.7 88.11 161.28C87.67 160.86 87.45 160.35 87.45 159.74C87.45 159.13 87.67 158.61 88.11 158.22C88.56 157.82 89.14 157.62 89.84 157.62C90.54 157.62 91.12 157.82 91.56 158.22C92 158.61 92.22 159.12 92.22 159.74C92.22 160.36 92 160.89 91.56 161.29C91.12 161.7 90.55 161.9 89.84 161.9ZM91.89 177.47H87.75V164.03H91.89V177.47ZM116.75 177.47H112.62V169.8C112.62 167.85 111.9 166.87 110.46 166.87C109.77 166.87 109.22 167.17 108.79 167.76C108.36 168.34 108.15 169.07 108.15 169.94V177.47H104.01V169.72C104.01 167.82 103.3 166.87 101.89 166.87C101.18 166.87 100.61 167.15 100.19 167.71C99.77 168.27 99.56 169.03 99.56 170V177.47H95.42V164.03H99.56V166.13H99.62C100.05 165.42 100.65 164.83 101.42 164.38C102.2 163.93 103.05 163.7 103.96 163.7C105.86 163.7 107.16 164.54 107.86 166.21C108.89 164.54 110.39 163.7 112.38 163.7C115.3 163.7 116.77 165.5 116.77 169.1V177.47H116.75ZM131.22 177.47H127.3V175.54H127.24C126.34 177.04 125 177.79 123.24 177.79C121.94 177.79 120.91 177.42 120.16 176.68C119.41 175.94 119.04 174.95 119.04 173.72C119.04 171.11 120.58 169.61 123.67 169.2L127.32 168.72C127.32 167.25 126.52 166.51 124.93 166.51C123.34 166.51 121.81 166.99 120.37 167.93V164.81C120.94 164.51 121.74 164.24 122.74 164.02C123.74 163.8 124.65 163.68 125.47 163.68C129.3 163.68 131.22 165.59 131.22 169.41V177.45V177.47ZM127.32 172.01V171.1L124.88 171.42C123.53 171.6 122.86 172.21 122.86 173.25C122.86 173.72 123.02 174.1 123.35 174.41C123.68 174.71 124.12 174.86 124.68 174.86C125.46 174.86 126.09 174.59 126.58 174.05C127.07 173.51 127.31 172.83 127.31 172.01H127.32ZM142.6 177.31C141.98 177.64 141.06 177.8 139.83 177.8C136.9 177.8 135.44 176.28 135.44 173.25V167.09H133.26V164.03H135.44V161.12L139.57 159.94V164.02H142.59V167.08H139.57V172.52C139.57 173.92 140.12 174.62 141.24 174.62C141.67 174.62 142.13 174.49 142.59 174.23V177.3L142.6 177.31ZM147.03 161.9C146.33 161.9 145.75 161.7 145.3 161.28C144.86 160.86 144.63 160.35 144.63 159.74C144.63 159.13 144.85 158.61 145.3 158.22C145.75 157.82 146.33 157.62 147.03 157.62C147.73 157.62 148.31 157.82 148.75 158.22C149.19 158.61 149.42 159.12 149.42 159.74C149.42 160.36 149.2 160.89 148.75 161.29C148.31 161.7 147.74 161.9 147.03 161.9ZM149.07 177.47H144.93V164.03H149.07V177.47ZM159 177.8C156.76 177.8 155 177.18 153.71 175.92C152.43 174.66 151.78 172.95 151.78 170.8C151.78 168.65 152.45 166.85 153.78 165.6C155.11 164.34 156.91 163.71 159.17 163.71C161.43 163.71 163.15 164.34 164.42 165.6C165.69 166.85 166.33 168.51 166.33 170.57C166.33 172.81 165.67 174.57 164.36 175.87C163.05 177.16 161.26 177.81 158.99 177.81L159 177.8ZM159.11 166.87C158.13 166.87 157.37 167.21 156.82 167.88C156.27 168.55 156 169.5 156 170.74C156 173.32 157.04 174.61 159.13 174.61C161.22 174.61 162.11 173.29 162.11 170.63C162.11 168.12 161.11 166.86 159.11 166.86V166.87ZM182.01 177.47H177.88V170C177.88 167.92 177.14 166.87 175.65 166.87C174.93 166.87 174.33 167.15 173.87 167.7C173.41 168.25 173.18 168.95 173.18 169.8V177.47H169.04V164.03H173.18V166.15H173.24C174.23 164.52 175.67 163.7 177.56 163.7C180.53 163.7 182.02 165.55 182.02 169.24V177.47H182.01Z" fill="#DE1616" />
		<path d="M272.1 68.63L270.49 67.02L247.13 90.38L223.77 67.02L222.16 68.63L245.52 91.99L222.16 115.35L223.77 116.96L247.13 93.6L270.49 116.96L272.1 115.35L248.74 91.99L272.1 68.63Z" fill="#404040" />
		<g opacity="0.96">
			<path d="M348.92 58.39V56.43C348.92 47.25 348.77 41.65 348.48 39.63C352 40.05 354.24 40.42 355.2 40.74C355.96 40.96 356.34 41.29 356.34 41.74C356.34 42.4 355.45 43.09 353.68 43.81V58.39H374.83C377.07 55.61 378.41 54.22 378.85 54.22C379.22 54.22 380.68 55.3 383.24 57.47C384.4 58.38 384.97 59.09 384.97 59.61C384.97 60.05 384.64 60.27 383.97 60.27H354.33C357.21 67.53 361.7 74.29 367.8 80.54C372.99 85.86 379.51 90.06 387.36 93.16C387.53 93.21 387.62 93.31 387.62 93.46C387.62 93.76 387.46 93.93 387.14 93.98C386.18 94.23 385.47 94.6 385 95.09C384.56 95.53 384.11 96.3 383.67 97.38C383.45 98.04 383.04 98.38 382.45 98.38C382.08 98.38 381.1 97.9 379.5 96.94C373.94 93.57 368.7 88.59 363.77 81.99C359.22 75.81 355.7 69.16 353.21 62.02C353.7 85.15 353.95 99.86 353.95 106.13C353.95 107.63 352.89 108.38 350.78 108.38C349.33 108.38 348.6 107.78 348.6 106.57C348.6 106.2 348.64 104.63 348.71 101.84C348.91 92.17 349.09 80.43 349.26 66.62C342.34 80.2 331.92 90.9 317.99 98.7C317.97 98.72 317.92 98.74 317.84 98.74C317.42 98.74 317.21 98.51 317.21 98.04C317.21 97.94 317.25 97.86 317.32 97.78C330.98 87.57 340.82 75.07 346.85 60.27H326.29C324.4 60.27 322.57 60.42 320.83 60.71L320.09 57.94C322.08 58.24 324.15 58.38 326.29 58.38H348.88L348.92 58.39Z" fill="#404040" />
			<path d="M468.95 99.74C469.2 99.69 469.32 99.81 469.32 100.11C469.32 100.36 469.22 100.54 469.02 100.66C467.64 101.4 466.87 102.35 466.69 103.5C466.62 104.24 466.44 104.71 466.17 104.9C465.95 105.1 465.52 105.21 464.88 105.23C458.31 105.75 451.8 106.01 445.35 106.01C433.05 106.01 424.78 104.62 420.54 101.84C417.39 99.8 414.99 96.6 413.34 92.24C411.17 95.46 408.3 98.82 404.7 102.32V102.91C404.7 104.78 404.34 105.72 403.63 105.72C403.24 105.72 402.73 105.23 402.12 104.24C401.55 103.33 400.58 101.47 399.2 98.67C400.55 98.35 402.02 97.8 403.59 97.01C405.83 95.9 408.04 94.39 410.23 92.47V72.91H405.03C402.84 72.91 401.02 73.11 399.57 73.5L398.83 70.55C400.75 70.85 402.82 70.99 405.03 70.99H409.72C411.37 69.29 412.34 68.44 412.64 68.44C412.91 68.44 413.94 69.17 415.74 70.62C416.55 71.38 416.96 71.96 416.96 72.35C416.96 72.77 416.26 73.46 414.86 74.42V92.25C416.53 95.45 418.86 97.69 421.84 98.97C425.83 100.74 432.83 101.63 442.84 101.63C451.08 101.63 459.78 101 468.94 99.75L468.95 99.74ZM403.76 42.81C403.76 42.81 403.69 42.7 403.69 42.63C403.69 42.36 403.85 42.22 404.17 42.22C404.22 42.22 404.27 42.23 404.32 42.26C408.09 43.66 410.98 45.41 412.99 47.5C414.66 49.22 415.5 50.93 415.5 52.63C415.5 54.8 414.56 55.88 412.69 55.88C412.05 55.88 411.55 55.63 411.18 55.14C410.88 54.7 410.55 53.88 410.18 52.7C409.07 49.11 406.93 45.81 403.76 42.81ZM440.42 66.03V54.29H428.46C426.54 57.05 423.85 59.85 420.38 62.71C420.33 62.76 420.26 62.78 420.16 62.78C419.72 62.78 419.5 62.57 419.5 62.15C419.5 62.08 419.52 62 419.57 61.93C422.79 58.09 425.34 53.71 427.21 48.79C428.15 46.33 428.77 43.88 429.09 41.44C433.62 42.67 435.88 43.65 435.88 44.39C435.88 45.01 434.94 45.46 433.07 45.76C431.99 48.29 430.86 50.51 429.67 52.4H440.41V49.45C440.41 45.32 440.26 42.07 439.97 39.7C443.27 40.12 445.42 40.49 446.43 40.81C447.17 41.06 447.54 41.36 447.54 41.73C447.54 42.3 446.7 42.95 445.03 43.69V52.4H455.14C457.13 50.04 458.33 48.86 458.72 48.86C459.24 48.86 460.59 49.77 462.78 51.59C463.84 52.4 464.37 53.08 464.37 53.62C464.37 54.06 464.03 54.28 463.34 54.28H445.03V66.02H458.65C460.79 63.49 462.05 62.22 462.42 62.22C462.91 62.22 464.33 63.18 466.67 65.1C467.78 65.99 468.33 66.66 468.33 67.13C468.33 67.65 468 67.91 467.33 67.91H424.62C422.92 67.91 421.29 68.06 419.71 68.35L419.01 65.51C421.08 65.85 422.95 66.03 424.62 66.03H440.42ZM454.41 92.5H430.67V94.38C430.67 95.54 429.73 96.11 427.86 96.11C426.56 96.11 425.9 95.61 425.9 94.6L426.12 83.41C426.12 78.61 426.02 75.08 425.82 72.82C426.8 73.24 428.59 74.12 431.17 75.48H453.95C455.53 74.03 456.48 73.3 456.83 73.3C457.13 73.3 458.05 73.9 459.6 75.11C460.46 75.85 460.89 76.43 460.89 76.84C460.89 77.18 460.26 77.81 459.01 78.72V82.82L459.31 93.93C459.31 95.23 458.33 95.89 456.36 95.89C455.06 95.89 454.4 95.41 454.4 94.45V92.49L454.41 92.5ZM454.41 90.62V77.37H430.67V90.62H454.41Z" fill="#404040" />
			<path d="M328.91 138.39C331.05 138.73 332.42 139.03 333.01 139.28C333.5 139.5 333.75 139.81 333.75 140.2C333.75 140.82 332.97 141.44 331.42 142.08V155.07L331.49 181.72C331.49 183.22 330.53 183.97 328.61 183.97C327.21 183.97 326.51 183.34 326.51 182.09C326.51 181.18 326.63 172.26 326.88 155.33L327.03 141.34C324.22 145.4 320.84 149.33 316.88 153.12C316.83 153.17 316.76 153.19 316.66 153.19C316.22 153.19 316 152.98 316 152.56C316 152.49 316.02 152.42 316.07 152.38C319.37 148.37 322.49 143.37 325.45 137.39C327.91 132.47 329.83 127.71 331.21 123.1C332.19 119.8 332.77 117.21 332.94 115.31C337.89 116.79 340.36 117.92 340.36 118.71C340.36 119.4 339.38 119.88 337.41 120.15C334.65 127.58 331.82 133.66 328.92 138.39H328.91ZM356.23 178.29V155.85H345.12C343.52 155.85 341.81 156.02 339.99 156.37L339.21 153.45C341.03 153.79 343 153.97 345.12 153.97H356.23V135.73H343.24C341.39 135.73 339.65 135.88 338 136.17L337.26 133.4C339.13 133.7 341.12 133.84 343.24 133.84H374.36C376.57 131.23 377.89 129.93 378.31 129.93C378.73 129.93 380.17 130.94 382.63 132.96C383.84 133.92 384.44 134.62 384.44 135.06C384.44 135.5 384.11 135.72 383.44 135.72H361.07V153.96H372.33C374.52 151.23 375.8 149.86 376.17 149.86C376.61 149.86 377.98 150.87 380.27 152.89C381.43 153.9 382 154.66 382 155.18C382 155.62 381.68 155.84 381.04 155.84H361.07V178.28H376.06C378.37 175.3 379.73 173.81 380.12 173.81C380.54 173.81 382.03 174.92 384.59 177.13C385.85 178.24 386.47 179 386.47 179.42C386.47 179.91 386.15 180.16 385.51 180.16H340.58C338.98 180.16 337.17 180.31 335.15 180.6L334.37 177.76C336.71 178.1 338.78 178.28 340.57 178.28H356.22L356.23 178.29ZM350.92 117.42C350.82 117.37 350.77 117.3 350.77 117.2C350.77 116.83 350.95 116.68 351.32 116.76C355.31 117.74 358.46 119.22 360.77 121.19C362.71 122.81 363.69 124.49 363.69 126.21C363.69 127.17 363.43 127.93 362.91 128.5C362.44 128.99 361.85 129.24 361.14 129.24C360.43 129.24 359.84 129.04 359.44 128.65C359.1 128.28 358.73 127.62 358.33 126.66C356.73 123.12 354.26 120.04 350.91 117.43L350.92 117.42Z" fill="#404040" />
			<path d="M410.11 126.06H430.6V121.26C430.6 119.19 430.48 117.29 430.23 115.54C433.72 115.91 435.98 116.27 436.99 116.61C437.73 116.86 438.1 117.2 438.1 117.64C438.1 118.26 437.19 118.93 435.37 119.67V126.06H457.22C458.97 124.14 460.03 123.18 460.39 123.18C460.81 123.18 462.19 124.24 464.52 126.35C465.68 127.46 466.25 128.23 466.25 128.68C466.25 129.52 465.29 129.97 463.37 130.05C462.46 130.05 461.6 130.46 460.79 131.27C458.92 133.04 457.11 134.59 455.36 135.92C455.29 135.99 455.19 136.03 455.06 136.03C454.72 136.03 454.54 135.88 454.54 135.59C454.54 135.52 454.55 135.45 454.58 135.41C455.79 132.97 456.81 130.49 457.64 127.95H410.17C410.12 131.08 409.38 133.56 407.96 135.41C406.78 136.94 405.38 137.7 403.75 137.7C402.91 137.7 402.24 137.42 401.72 136.85C401.25 136.31 401.02 135.63 401.02 134.82C401.02 133.66 401.75 132.7 403.2 131.94C406.69 130.12 408.52 126.98 408.66 122.53C408.66 122.31 408.8 122.2 409.07 122.2C409.37 122.2 409.53 122.31 409.55 122.53C409.82 123.64 410.01 124.82 410.1 126.07L410.11 126.06ZM426.35 143.81C419.73 145.41 412.53 146.47 404.75 146.98C404.48 146.98 404.34 146.76 404.34 146.32C404.34 146.02 404.43 145.86 404.6 145.84C416.12 144.04 426.54 140.98 435.87 136.65C439.61 134.9 442.66 132.98 445.02 130.89C448.79 133.47 450.67 135.14 450.67 135.87C450.67 136.34 450.18 136.57 449.19 136.57C448.55 136.57 447.76 136.46 446.83 136.24C441.76 138.77 436.49 140.87 431.03 142.52V155.55L454.32 152.26C456.49 148.79 457.74 147.06 458.09 147.06C458.61 147.06 460.45 148.02 463.63 149.94C465.03 150.78 465.73 151.45 465.73 151.97C465.73 152.36 465.37 152.6 464.66 152.67L431.03 157.36V171.87C431.03 173.42 431.23 174.49 431.62 175.08C432.14 175.84 433.21 176.37 434.83 176.67C436.41 176.94 439.06 177.08 442.8 177.08C450.23 177.08 454.67 176.5 456.13 175.35C457.8 174.05 459.3 170.75 460.63 165.46C460.7 165.26 460.88 165.16 461.15 165.16C461.47 165.16 461.63 165.28 461.63 165.53C461.48 170.13 461.41 172.58 461.41 172.88C461.41 173.72 461.79 174.27 462.55 174.54C463.41 174.81 463.84 175.44 463.84 176.42C463.84 178 462.42 179.23 459.59 180.11C456.46 181.02 450.95 181.48 443.05 181.48C435.57 181.48 430.81 180.79 428.76 179.41C426.99 178.23 426.1 175.84 426.1 172.25L426.32 160.14V158.04L407.57 160.7C406.12 160.87 404.48 161.25 402.66 161.84L401.44 159.11H402.66C404.26 159.11 405.8 159.01 407.27 158.81L426.32 156.15V143.82L426.35 143.81Z" fill="#404040" />
		</g>
		<path d="M298.05 61.83C297.84 61.83 297.63 61.72 297.51 61.52C297.33 61.22 297.43 60.83 297.73 60.65L398.53 0.0900105C398.83 -0.0899895 399.22 0.0100105 399.4 0.31001C399.58 0.61001 399.48 1.00001 399.18 1.18001L298.38 61.75C298.28 61.81 298.17 61.84 298.06 61.84L298.05 61.83Z" fill="#404040" />
		<path d="M499.65 61.83C499.54 61.83 499.43 61.8 499.33 61.74L398.53 1.17001C398.23 0.990012 398.14 0.600012 398.31 0.300012C398.49 1.24276e-05 398.88 -0.0899876 399.18 0.0800124L499.98 60.65C500.28 60.83 500.37 61.22 500.2 61.52C500.08 61.72 499.87 61.83 499.66 61.83H499.65Z" fill="#404040" />
	</g>
	<defs>
		<clipPath id="clip0_115_65">
			<rect width="500.28" height="231.07" fill="white" />
		</clipPath>
	</defs>
</svg>
