<?xml version="1.0" encoding="UTF-8"?>
<svg id="_レイヤー_2" data-name="レイヤー 2" xmlns="http://www.w3.org/2000/svg" viewBox="0 0 257.43 196.1">
  <defs>
    <style>
      .cls-1 {
        fill: #de1616;
      }

      .cls-1, .cls-2, .cls-3, .cls-4, .cls-5 {
        stroke-width: 0px;
      }

      .cls-2 {
        fill: none;
      }

      .cls-3 {
        fill: #145ac8;
      }

      .cls-4 {
        fill: #1159c7;
      }

      .cls-4, .cls-5 {
        fill-rule: evenodd;
      }

      .cls-5 {
        fill: #de1414;
      }
    </style>
  </defs>
  <g id="_レイヤー_1-2" data-name="レイヤー 1">
    <g>
      <path class="cls-4" d="M132.65,106.66v-29.17l19.13,12.33v2.03h.04v18.56c-6.68-.27-13.06-1.52-19.17-3.75M116.82,82.28l15.83-9.65v-7.89l19.13,12.29v2.03h.04v4.96l3.87,2.77v2.65l-23.03-14.53-15.83,9.65v-2.28M161.79,110.16v-11.64l8.75,5.62v.44l1.79-1.05-10.54-6.68v-6.63l8.75,5.66v.45l1.79-1.1-10.54-6.63v-6.63l8.75,5.61v.49l1.79-1.1-10.54-6.63v-6.64l8.75,5.62v.49l1.79-1.1-10.54-6.64v-6.67l-9.93,5.86,3.83,2.73v2.69l-3.87-2.44-19.17-12.05v-.04l-15.83,9.65v-2.28l15.83-9.65v-8.14l19.13,12.29v2.08l3.94-2.36-23.07-14.57-15.83,9.64v-2.28l15.83-9.65v-8.02l19.13,12.29v2.08l3.94-2.36-23.07-14.57-15.83,9.6v-2.24l15.83-9.69v-7.85l-21.32,13.84v52.29c-8.93-10.42-12.91-22.44-11.97-36.06.95-13.62,6.88-26.37,17.78-38.25,5.45-5.64,11.49-10.29,18.11-13.96-10.58,3.96-19.98,10.19-28.2,18.68-8.19,8.76-13.58,18.19-16.16,28.28-2.58,10.07-2.37,19.76.61,29.1,2.96,9.33,8.68,17.27,17.17,23.81,10.25,7.38,21.88,11.16,34.87,11.35,13,.16,25.53-3.04,37.6-9.6-6.34,2.39-12.8,3.91-19.37,4.56"/>
      <path class="cls-5" d="M111.33,111.62c-9.74-5.48-16.96-12.7-21.65-21.65-4.69-8.95-6.65-18.61-5.86-28.97.76-10.39,4.45-20.46,11.07-30.2,4.7-6.62,10.23-12.22,16.61-16.8-8.95,5.15-16.52,12.08-22.71,20.79-6.64,9.74-10.35,19.79-11.11,30.15-.76,10.39,1.21,20.06,5.9,29.02,4.69,8.95,11.9,16.17,21.61,21.65,11.47,6.05,23.68,8.44,36.62,7.16,12.91-1.3,24.81-5.81,35.69-13.51-10.41,5.97-21.46,9.23-33.12,9.77-11.66.57-22.68-1.9-33.04-7.4"/>
      <path class="cls-3" d="M26.13,161.27v-34.2h12.44c3.81,0,6.75.7,8.8,2.1,2.05,1.4,3.08,3.37,3.08,5.91,0,1.85-.62,3.47-1.87,4.84-1.25,1.38-2.84,2.35-4.78,2.89v.09c2.43.31,4.37,1.21,5.82,2.7,1.46,1.49,2.19,3.31,2.19,5.46,0,3.14-1.13,5.63-3.37,7.46-2.24,1.83-5.3,2.75-9.17,2.75h-13.14ZM33.82,132.74v8.11h3.38c1.59,0,2.85-.38,3.76-1.16.92-.77,1.37-1.83,1.37-3.18,0-2.52-1.88-3.78-5.63-3.78h-2.89ZM33.82,146.58v9.02h4.17c1.78,0,3.17-.41,4.18-1.23,1.01-.83,1.51-1.96,1.51-3.39s-.5-2.44-1.49-3.22c-.99-.78-2.38-1.17-4.16-1.17h-4.22ZM67.97,127.07v5.96h-2.86v22.27h2.86v5.96h-13.42v-5.96h2.86v-22.27h-2.86v-5.96h13.42ZM106.17,133.34h-12.07v8.39h11.09v6.26h-11.09v13.28h-7.69v-34.2h19.76v6.27ZM122.76,161.87c-4.07,0-7.27-1.14-9.6-3.42-2.32-2.28-3.48-5.38-3.48-9.3s1.21-7.19,3.62-9.47c2.42-2.28,5.68-3.42,9.8-3.42s7.23,1.14,9.54,3.42c2.3,2.28,3.46,5.3,3.46,9.05,0,4.05-1.19,7.26-3.57,9.61-2.37,2.35-5.63,3.52-9.77,3.52h0ZM122.95,142.03c-1.78,0-3.16.62-4.15,1.84-.98,1.22-1.47,2.95-1.47,5.19,0,4.69,1.89,7.03,5.67,7.03s5.42-2.41,5.42-7.22c0-4.56-1.82-6.84-5.47-6.84h0ZM156.91,143.64c-.91-.49-1.96-.74-3.17-.74-1.65,0-2.93.6-3.85,1.81-.92,1.2-1.37,2.83-1.37,4.9v11.66h-7.54v-24.42h7.54v4.53h.09c1.19-3.31,3.34-4.96,6.45-4.96.79,0,1.4.1,1.86.29v6.93ZM204.69,161.27h-8.39l-2.43-7.6h-12.17l-2.4,7.6h-8.34l12.45-34.2h9.13l12.16,34.2ZM192.1,147.75l-3.68-11.5c-.27-.85-.46-1.88-.57-3.08h-.19c-.08,1-.28,2-.6,2.99l-3.71,11.58h8.75ZM232.8,160.05c-2.49,1.21-5.75,1.82-9.78,1.82-5.24,0-9.37-1.54-12.37-4.63-3-3.08-4.5-7.19-4.5-12.32,0-5.47,1.68-9.9,5.06-13.3,3.38-3.41,7.76-5.11,13.15-5.11,3.34,0,6.15.43,8.44,1.27v7.41c-2.29-1.37-4.9-2.06-7.82-2.06-3.21,0-5.81,1.01-7.78,3.04-1.97,2.02-2.95,4.75-2.95,8.2s.93,5.95,2.79,7.91c1.86,1.96,4.37,2.94,7.52,2.94s5.76-.73,8.25-2.2v7.03Z"/>
      <path class="cls-1" d="M34.89,189.97v-3.93c1.37,1,2.98,1.5,4.81,1.5,1.16,0,2.06-.24,2.7-.74.64-.5.97-1.2.97-2.09s-.4-1.62-1.2-2.11c-.79-.5-1.88-.75-3.28-.75h-1.84v-3.46h1.7c2.67,0,4.01-.88,4.01-2.66,0-1.67-1.03-2.51-3.08-2.51-1.37,0-2.71.44-4.01,1.32v-3.69c1.44-.72,3.12-1.08,5.04-1.08,2.1,0,3.73.47,4.9,1.41,1.17.94,1.75,2.17,1.75,3.67,0,2.68-1.36,4.36-4.07,5.04v.08c1.45.18,2.59.71,3.43,1.58.84.87,1.26,1.95,1.26,3.22,0,1.92-.71,3.43-2.11,4.55-1.4,1.11-3.33,1.67-5.8,1.67-2.12,0-3.85-.34-5.18-1.03h0ZM51.97,190.65v-20.51h7.26c7.29,0,10.94,3.33,10.94,10,0,3.2-1,5.75-2.99,7.66-1.99,1.91-4.64,2.86-7.95,2.86h-7.26ZM56.58,173.9v13h2.29c2,0,3.57-.6,4.71-1.79,1.14-1.2,1.72-2.84,1.72-4.91,0-1.96-.57-3.5-1.7-4.62-1.13-1.12-2.71-1.68-4.74-1.68h-2.26ZM93.97,190.65h-12.3v-20.51h11.83v3.76h-7.21v4.55h6.71v3.75h-6.71v4.69h7.68v3.75ZM95.88,190.27v-3.66c.74.44,1.49.77,2.23.99.74.22,1.44.33,2.1.33.8,0,1.44-.11,1.89-.33.46-.22.7-.55.7-.99,0-.29-.11-.52-.32-.71-.21-.19-.48-.36-.81-.51-.32-.14-.68-.27-1.08-.38-.39-.12-.76-.25-1.12-.39-.58-.22-1.1-.45-1.55-.7-.44-.25-.81-.55-1.12-.88-.3-.34-.53-.73-.69-1.17-.15-.44-.23-.96-.23-1.55,0-.82.18-1.53.53-2.12.36-.59.84-1.07,1.44-1.45.59-.38,1.27-.66,2.03-.83.77-.18,1.57-.27,2.4-.27.65,0,1.31.05,1.97.15.67.1,1.33.24,1.98.43v3.48c-.58-.33-1.19-.58-1.84-.74-.66-.17-1.29-.25-1.92-.25-.3,0-.58.03-.84.08-.26.05-.5.13-.7.23-.2.1-.35.24-.47.39-.11.15-.17.33-.17.52,0,.27.08.51.25.7.17.19.39.35.67.5.28.14.59.26.93.37.34.1.67.21,1,.33.6.21,1.15.44,1.63.69.49.25.91.54,1.26.88.35.33.61.72.8,1.17.18.45.28.99.28,1.6,0,.87-.19,1.61-.57,2.23-.38.61-.87,1.11-1.5,1.5-.63.38-1.35.66-2.16.84-.81.18-1.66.27-2.54.27-1.61,0-3.1-.25-4.48-.74h0ZM118.57,190.47c-.67.36-1.68.53-3.01.53-3.19,0-4.78-1.65-4.78-4.96v-6.71h-2.38v-3.33h2.38v-3.17l4.5-1.28v4.45h3.29v3.33h-3.29v5.93c0,1.53.6,2.29,1.82,2.29.47,0,.97-.14,1.47-.42v3.34ZM123.4,173.68c-.76,0-1.39-.22-1.88-.67-.48-.46-.72-1.02-.72-1.68s.24-1.23.72-1.65c.49-.43,1.12-.65,1.88-.65s1.39.22,1.87.65c.48.43.72.98.72,1.65s-.24,1.25-.72,1.69c-.48.44-1.1.66-1.87.66h0ZM125.62,190.65h-4.51v-14.65h4.51v14.65ZM152.72,190.65h-4.5v-8.35c0-2.13-.79-3.19-2.35-3.19-.75,0-1.35.32-1.82.97-.47.64-.7,1.43-.7,2.38v8.2h-4.51v-8.44c0-2.07-.77-3.1-2.31-3.1-.77,0-1.39.31-1.86.92-.46.61-.69,1.44-.69,2.49v8.14h-4.51v-14.65h4.51v2.29h.06c.46-.78,1.12-1.41,1.96-1.91.85-.49,1.77-.74,2.77-.74,2.07,0,3.48.91,4.25,2.73,1.12-1.82,2.76-2.73,4.92-2.73,3.19,0,4.78,1.96,4.78,5.89v9.12ZM168.49,190.65h-4.27v-2.1h-.06c-.99,1.64-2.44,2.45-4.36,2.45-1.42,0-2.54-.4-3.36-1.21-.81-.8-1.22-1.88-1.22-3.23,0-2.84,1.68-4.48,5.05-4.92l3.98-.52c0-1.6-.87-2.4-2.61-2.4s-3.4.52-4.97,1.55v-3.39c.63-.33,1.49-.62,2.58-.87,1.09-.24,2.09-.37,2.98-.37,4.18,0,6.27,2.08,6.27,6.24v8.76ZM164.24,184.7v-.99l-2.66.34c-1.47.2-2.2.86-2.2,2,0,.51.18.93.53,1.26.36.33.84.5,1.45.5.85,0,1.54-.29,2.07-.88.53-.58.8-1.33.8-2.23h0ZM180.89,190.47c-.67.36-1.67.53-3.01.53-3.19,0-4.78-1.65-4.78-4.96v-6.71h-2.38v-3.33h2.38v-3.17l4.5-1.28v4.45h3.29v3.33h-3.29v5.93c0,1.53.6,2.29,1.82,2.29.47,0,.97-.14,1.47-.42v3.34ZM185.72,173.68c-.76,0-1.39-.22-1.88-.67-.48-.46-.73-1.02-.73-1.68s.24-1.23.73-1.65c.49-.43,1.12-.65,1.88-.65s1.39.22,1.87.65c.48.43.73.98.73,1.65s-.24,1.25-.73,1.69c-.48.44-1.1.66-1.87.66h0ZM187.94,190.65h-4.51v-14.65h4.51v14.65ZM198.76,191c-2.44,0-4.36-.68-5.76-2.05-1.4-1.37-2.1-3.23-2.1-5.58s.73-4.3,2.17-5.67c1.45-1.37,3.41-2.06,5.88-2.06s4.34.69,5.72,2.06c1.39,1.37,2.09,3.17,2.09,5.42,0,2.44-.72,4.36-2.15,5.77-1.42,1.41-3.38,2.11-5.85,2.11h0ZM198.88,179.1c-1.07,0-1.9.37-2.49,1.11-.59.73-.89,1.77-.89,3.12,0,2.82,1.13,4.22,3.41,4.22s3.24-1.44,3.24-4.34c0-2.74-1.09-4.11-3.27-4.11h0ZM223.84,190.65h-4.5v-8.14c0-2.27-.81-3.41-2.43-3.41-.79,0-1.44.3-1.95.9-.5.6-.75,1.37-.75,2.29v8.35h-4.51v-14.65h4.51v2.31h.06c1.07-1.78,2.65-2.67,4.7-2.67,3.24,0,4.86,2.02,4.86,6.04v8.96Z"/>
    </g>
    <rect class="cls-2" width="257.43" height="196.1"/>
  </g>
</svg>