<?xml version="1.0"?>
<svg width="506" height="83" viewBox="0 0 506 83" fill="none" xmlns="http://www.w3.org/2000/svg">
	<g clip-path="url(#clip0_128_26)">
		<path d="M42.6101 46.21V80.93C61.0101 79.17 75.6701 64.59 77.5301 46.21H42.6101Z" fill="#D93924" />
		<path d="M35.12 33.91V0H0V0.38L35.12 33.91Z" fill="#0068B6" />
		<path d="M45.29 38.72H77.73V5.97C58.38 11.74 47.93 30.25 45.29 38.72Z" fill="#0068B6" />
		<path d="M72.0301 0H42.6101V26.49C48.2001 16.6 58.0401 5.41 72.0301 0Z" fill="#0068B6" />
		<path d="M0 10.74V38.72H29.3L0 10.74Z" fill="#0068B6" />
		<path d="M35.1199 46.21H0.199951C2.05995 64.59 16.7199 79.17 35.1199 80.93V46.21Z" fill="#0068B6" />
		<path d="M99.8601 11.84H110.9V41.46C110.9 46.16 111.04 49.21 111.31 50.6C111.79 52.84 112.91 54.64 114.69 55.99C116.47 57.35 118.9 58.02 121.98 58.02C125.06 58.02 127.48 57.38 129.07 56.1C130.66 54.82 131.62 53.25 131.94 51.38C132.26 49.51 132.43 46.42 132.43 42.09V11.84H143.47V40.56C143.47 47.12 143.17 51.76 142.57 54.47C141.98 57.18 140.87 59.47 139.27 61.33C137.67 63.19 135.52 64.68 132.84 65.79C130.15 66.9 126.65 67.45 122.32 67.45C117.1 67.45 113.14 66.85 110.44 65.64C107.74 64.43 105.61 62.87 104.05 60.94C102.49 59.01 101.45 56.99 100.95 54.88C100.23 51.75 99.8701 47.12 99.8701 41V11.84H99.8601Z" fill="#231815" />
		<path d="M153.89 13.15H162.28V19.15C162.28 21.58 162.07 23.49 161.65 24.89C161.23 26.29 160.44 27.55 159.28 28.67C158.12 29.78 156.64 30.66 154.85 31.3L153.21 27.84C154.9 27.28 156.11 26.52 156.82 25.54C157.54 24.56 157.91 23.23 157.95 21.54H153.89V13.16V13.15Z" fill="#231815" />
		<path d="M166.04 55.22L176.56 53.62C177.01 55.66 177.92 57.21 179.28 58.27C180.65 59.33 182.56 59.85 185.02 59.85C187.73 59.85 189.77 59.35 191.14 58.36C192.06 57.66 192.52 56.73 192.52 55.56C192.52 54.77 192.27 54.11 191.77 53.58C191.25 53.08 190.08 52.62 188.26 52.2C179.8 50.34 174.45 48.63 172.18 47.09C169.05 44.95 167.48 41.98 167.48 38.18C167.48 34.75 168.84 31.86 171.54 29.53C174.25 27.19 178.46 26.02 184.15 26.02C189.84 26.02 193.6 26.9 196.24 28.67C198.87 30.44 200.69 33.05 201.68 36.5L191.79 38.33C191.37 36.79 190.57 35.61 189.39 34.79C188.21 33.97 186.52 33.56 184.33 33.56C181.57 33.56 179.59 33.95 178.4 34.72C177.6 35.27 177.2 35.98 177.2 36.85C177.2 37.6 177.55 38.23 178.24 38.75C179.19 39.45 182.45 40.43 188.03 41.7C193.61 42.97 197.51 44.52 199.73 46.36C201.92 48.22 203.01 50.82 203.01 54.15C203.01 57.78 201.49 60.9 198.46 63.51C195.42 66.12 190.94 67.43 184.99 67.43C179.59 67.43 175.32 66.34 172.18 64.15C169.03 61.96 166.98 58.99 166.01 55.23L166.04 55.22Z" fill="#231815" />
		<path d="M236.48 66.52V11.84H273.97V21.09H247.53V34.03H270.36V43.28H247.53V66.52H236.49H236.48Z" fill="#231815" />
		<path d="M288.24 39L278.73 37.29C279.8 33.46 281.64 30.62 284.25 28.79C286.86 26.96 290.74 26.03 295.89 26.03C300.56 26.03 304.05 26.59 306.33 27.69C308.62 28.8 310.23 30.2 311.16 31.9C312.09 33.6 312.56 36.73 312.56 41.28L312.45 53.51C312.45 56.99 312.62 59.56 312.95 61.21C313.29 62.87 313.91 64.64 314.83 66.53H304.46C304.19 65.83 303.85 64.8 303.45 63.43C303.27 62.81 303.15 62.4 303.08 62.2C301.29 63.94 299.37 65.25 297.34 66.12C295.3 66.99 293.12 67.42 290.81 67.42C286.73 67.42 283.52 66.31 281.17 64.1C278.82 61.89 277.64 59.09 277.64 55.71C277.64 53.47 278.18 51.48 279.25 49.72C280.32 47.97 281.82 46.62 283.74 45.69C285.67 44.76 288.45 43.94 292.08 43.25C296.98 42.33 300.37 41.47 302.26 40.68V39.64C302.26 37.62 301.76 36.19 300.76 35.33C299.77 34.47 297.89 34.04 295.13 34.04C293.26 34.04 291.81 34.41 290.76 35.14C289.72 35.87 288.87 37.16 288.22 39H288.24ZM302.26 47.5C300.92 47.95 298.79 48.48 295.88 49.1C292.97 49.72 291.07 50.33 290.17 50.93C288.8 51.9 288.12 53.13 288.12 54.62C288.12 56.11 288.66 57.36 289.76 58.42C290.86 59.49 292.25 60.03 293.94 60.03C295.83 60.03 297.64 59.41 299.35 58.16C300.62 57.22 301.45 56.06 301.85 54.69C302.12 53.79 302.26 52.09 302.26 49.58V47.49V47.5Z" fill="#231815" />
		<path d="M357.1 38.62L346.77 40.49C346.42 38.43 345.63 36.87 344.4 35.83C343.17 34.79 341.57 34.27 339.61 34.27C337 34.27 334.92 35.17 333.36 36.97C331.8 38.77 331.02 41.79 331.02 46.02C331.02 50.72 331.81 54.04 333.39 55.98C334.97 57.92 337.09 58.89 339.75 58.89C341.74 58.89 343.37 58.32 344.64 57.19C345.91 56.06 346.8 54.11 347.32 51.35L357.62 53.1C356.55 57.83 354.5 61.39 351.47 63.81C348.43 66.22 344.37 67.43 339.27 67.43C333.47 67.43 328.86 65.6 325.41 61.95C321.96 58.3 320.24 53.23 320.24 46.77C320.24 40.31 321.97 35.14 325.43 31.5C328.88 27.86 333.56 26.03 339.45 26.03C344.28 26.03 348.11 27.07 350.96 29.15C353.81 31.23 355.85 34.39 357.1 38.64V38.62Z" fill="#231815" />
		<path d="M383.81 26.91V35.27H376.65V51.24C376.65 54.47 376.72 56.36 376.85 56.89C376.99 57.42 377.3 57.87 377.78 58.21C378.27 58.56 378.86 58.73 379.55 58.73C380.52 58.73 381.92 58.39 383.77 57.72L384.66 65.85C382.22 66.89 379.46 67.42 376.38 67.42C374.49 67.42 372.79 67.1 371.27 66.47C369.75 65.83 368.64 65.02 367.94 64.01C367.23 63 366.74 61.64 366.47 59.93C366.24 58.71 366.13 56.25 366.13 52.54V35.27H361.32V26.91H366.13V19.04L376.65 12.92V26.91H383.81Z" fill="#231815" />
		<path d="M388.35 46.16C388.35 42.68 389.21 39.31 390.92 36.05C392.64 32.79 395.07 30.3 398.21 28.59C401.36 26.87 404.87 26.02 408.75 26.02C414.74 26.02 419.66 27.97 423.49 31.86C427.32 35.75 429.23 40.67 429.23 46.61C429.23 52.55 427.3 57.57 423.43 61.51C419.56 65.45 414.7 67.42 408.83 67.42C405.2 67.42 401.74 66.6 398.44 64.96C395.14 63.32 392.64 60.91 390.92 57.74C389.2 54.57 388.35 50.71 388.35 46.16ZM399.09 46.72C399.09 50.65 400.02 53.66 401.89 55.75C403.75 57.84 406.06 58.88 408.79 58.88C411.52 58.88 413.82 57.84 415.67 55.75C417.52 53.66 418.45 50.63 418.45 46.65C418.45 42.67 417.52 39.79 415.67 37.7C413.82 35.61 411.52 34.57 408.79 34.57C406.06 34.57 403.76 35.61 401.89 37.7C400.03 39.79 399.09 42.8 399.09 46.73V46.72Z" fill="#231815" />
		<path d="M447.47 66.52H436.99V26.91H446.73V32.54C448.39 29.88 449.89 28.13 451.22 27.28C452.55 26.44 454.06 26.01 455.75 26.01C458.14 26.01 460.44 26.67 462.65 27.99L459.4 37.13C457.63 35.98 456 35.41 454.48 35.41C452.96 35.41 451.77 35.82 450.75 36.62C449.73 37.43 448.93 38.89 448.35 41C447.76 43.11 447.47 47.54 447.47 54.28V66.51V66.52Z" fill="#231815" />
		<path d="M465.04 26.91H476.19L485.67 55.03L494.92 26.91H505.77L491.78 65.03L489.28 71.93C488.36 74.24 487.48 76.01 486.65 77.23C485.82 78.45 484.86 79.44 483.78 80.2C482.7 80.96 481.37 81.55 479.79 81.97C478.21 82.39 476.43 82.6 474.44 82.6C472.45 82.6 470.45 82.39 468.51 81.97L467.58 73.76C469.22 74.08 470.7 74.24 472.02 74.24C474.46 74.24 476.26 73.53 477.43 72.1C478.6 70.67 479.49 68.85 480.11 66.64L465.04 26.91Z" fill="#231815" />
	</g>
	<defs>
		<clipPath id="clip0_128_26">
			<rect width="505.77" height="82.6" fill="white" />
		</clipPath>
	</defs>
</svg>
