<?xml version="1.0" encoding="UTF-8"?>
<svg id="_レイヤー_2" data-name="レイヤー 2" xmlns="http://www.w3.org/2000/svg" viewBox="0 0 257.43 243.83">
  <defs>
    <style>
      .cls-1 {
        fill: none;
      }

      .cls-1, .cls-2, .cls-3 {
        stroke-width: 0px;
      }

      .cls-2 {
        fill: #404040;
      }

      .cls-3 {
        fill: #000;
      }

      .cls-4 {
        opacity: .96;
      }
    </style>
  </defs>
  <g id="_レイヤー_1-2" data-name="レイヤー 1">
    <g>
      <path class="cls-3" d="M11.14,226.5c1.72,2.49,4.03,4.26,6.91,5.32-.17.16-.29.32-.36.48-.05.12-.1.18-.14.18-.03,0-.1-.02-.21-.07-2.76-1.17-4.94-2.96-6.56-5.36-.86,1.28-1.86,2.39-3,3.33-.94.77-2.04,1.48-3.31,2.13-.08.04-.14.07-.18.07-.05,0-.12-.06-.19-.17-.08-.14-.21-.26-.38-.36,1.51-.68,2.85-1.54,4.03-2.58.98-.86,1.76-1.76,2.34-2.72.18-.3.3-.57.36-.82.32.06.56.11.73.16.12.04.19.1.19.17,0,.05-.03.1-.09.13-.04.02-.09.06-.14.11ZM10.35,234.87v-2.45h-1.4l-2.03.03c-.07,0-.1-.03-.1-.1v-.49c0-.07.03-.1.1-.1l2.03.03h3.62l2.04-.03c.06,0,.1.03.1.1v.49c0,.07-.03.1-.1.1l-2.04-.03h-1.52v2.45h1.9l2.09-.03c.07,0,.1.03.1.1v.49c0,.07-.03.1-.1.1l-2.09-.03h-1.9v2.76h3.99l2.05-.03c.07,0,.1.03.1.1v.51c0,.07-.03.1-.1.1l-2.05-.03H6.63l-2.06.03c-.07,0-.11-.03-.11-.1v-.51c0-.07.04-.1.11-.1l2.06.03h3.71v-2.76h-1.64l-2.09.03c-.07,0-.1-.03-.1-.1v-.49c0-.07.03-.1.1-.1l2.09.03h1.64Z"/>
      <path class="cls-3" d="M25.22,238.6v.91c0,.06-.03.09-.1.09h-.53c-.07,0-.1-.03-.1-.09l.03-4.78v-2.82l-.03-3.59c0-.07.03-.1.1-.1l2.15.03h.85c.22-.46.43-1.02.62-1.67.06-.2.09-.42.09-.65.3.04.55.1.76.16.11.04.17.1.17.17,0,.05-.02.1-.07.15-.1.1-.18.23-.23.38-.23.59-.43,1.08-.59,1.46h3.1l2.15-.03c.07,0,.1.03.1.1l-.03,3.26v3.13l.03,4.78c0,.06-.03.09-.1.09h-.53c-.07,0-.1-.03-.1-.09v-.9h-7.72ZM25.22,231.37h7.72v-2.47h-7.72v2.47ZM25.22,232.01v2.5h7.72v-2.5h-7.72ZM25.22,235.14v2.8h7.72v-2.8h-7.72Z"/>
      <path class="cls-3" d="M44.72,234.78v1.09h.88l1.86-.03c.07,0,.1.03.1.1v.43c0,.07-.03.1-.1.1l-1.86-.03h-.88v1.23c1.04-.15,2-.31,2.86-.49-.04.09-.07.21-.09.35-.01.13-.03.21-.06.24s-.1.05-.22.07c-1.45.3-3.27.58-5.46.84-.36.05-.56.09-.61.13-.07.05-.13.07-.17.07-.07,0-.13-.06-.16-.17-.07-.19-.14-.42-.2-.68.14,0,.26,0,.37,0,.36,0,.77-.02,1.23-.07.48-.04,1.1-.11,1.87-.22v-1.31h-1.13l-1.85.03c-.07,0-.11-.03-.11-.1v-.43c0-.07.04-.1.11-.1l1.85.03h1.13v-1.09h-.81l-1.79.03c-.07,0-.1-.03-.1-.1l.02-1.25v-1.42l-.02-1.26c0-.07.03-.1.1-.1l1.79.03h.81v-1.08h-1.35l-1.93.03c-.07,0-.11-.03-.11-.1v-.42c0-.07.04-.11.11-.11l1.93.04h1.35v-1.16c-.83.13-1.64.24-2.45.32-.07,0-.12.01-.15.01-.07,0-.14-.06-.2-.19-.06-.14-.16-.27-.29-.38,1.99-.15,3.72-.44,5.19-.87.3-.09.51-.19.65-.28.21.13.38.26.5.36.08.06.13.13.13.19,0,.08-.08.13-.25.13-.07,0-.26.04-.56.12-.74.2-1.38.35-1.93.45v1.28h1.13l1.93-.04c.06,0,.09.04.09.11v.42c0,.07-.02.1-.07.1l-1.95-.03h-1.13v1.08h.87l1.8-.03c.07,0,.11.03.11.1l-.03,1.25v1.43l.03,1.25c0,.07-.04.1-.11.1l-1.8-.03h-.87ZM44.08,231.21h-2.06v1.22h2.06v-1.22ZM42.03,232.95v1.31h2.06v-1.31h-2.06ZM46.86,232.43v-1.22h-2.13v1.22h2.13ZM44.72,234.26h2.13v-1.31h-2.13v1.31ZM50.84,229.8h.91l1.67-.03c.08,0,.13.04.13.12-.02.31-.03.75-.03,1.33-.04,2.87-.19,5.11-.45,6.7-.17.99-.69,1.48-1.55,1.48-.43,0-.81-.01-1.16-.04-.11,0-.18-.03-.21-.06-.01-.02-.02-.08-.03-.17-.01-.21-.07-.4-.17-.56.5.09,1.02.13,1.55.13.28,0,.49-.09.62-.28.12-.16.22-.43.27-.79.27-1.6.41-3.99.41-7.18h-2.01c-.07,1.71-.26,3.12-.56,4.23-.32,1.15-.73,2.1-1.21,2.84-.49.75-1.12,1.41-1.91,1.99-.1.07-.16.11-.19.11-.03,0-.09-.04-.17-.13-.1-.12-.27-.23-.49-.31.96-.54,1.71-1.27,2.27-2.18.43-.68.78-1.55,1.06-2.59.26-.93.43-2.24.52-3.95h-.32l-1.65.03c-.07,0-.1-.03-.1-.1v-.49c0-.07.03-.1.1-.1l1.65.03h.33c.02-.44.03-1.06.03-1.89,0-.72-.04-1.32-.11-1.78.33.02.6.06.81.11.1.01.16.06.16.13,0,.04-.03.14-.08.29-.06.15-.09.61-.09,1.37s0,1.36-.01,1.77Z"/>
      <path class="cls-3" d="M62.03,227.28h3.54c1.36,0,2.33.26,2.92.79.49.44.74,1.08.74,1.91,0,.71-.26,1.29-.77,1.74-.44.39-1.02.63-1.74.74v.08c.97.12,1.71.45,2.21.99.44.47.65,1.06.65,1.76,0,1.04-.38,1.84-1.14,2.38-.66.47-1.54.71-2.64.71h-3.76v-11.09ZM63.02,228.12v3.97h2.16c1.03,0,1.82-.21,2.35-.63.45-.36.67-.83.67-1.42,0-.71-.23-1.22-.68-1.51-.43-.27-1.12-.41-2.07-.41h-2.42ZM63.02,232.92v4.61h2.63c1.92,0,2.88-.76,2.88-2.28,0-.76-.32-1.34-.95-1.76-.58-.38-1.36-.56-2.34-.56h-2.22Z"/>
      <path class="cls-3" d="M84.33,227.28v11.09h-1v-11.09h1Z"/>
      <path class="cls-3" d="M107.34,227.28v11.09h-.96v-10.26s-.16,0-.16,0c-.15.51-.5,1.58-1.05,3.22l-2.5,7.04h-1.29l-2.46-7.04c-.36-1.03-.72-2.1-1.07-3.22h-.16c0,.21,0,.44,0,.67l.02,2.63v6.97h-.91v-11.09h1.69l2.41,6.95c.4,1.13.76,2.21,1.09,3.25h.16c.57-1.7.93-2.77,1.09-3.21l2.44-7h1.67Z"/>
      <path class="cls-3" d="M116.48,231.49c0,1.78.02,3.73.06,5.84,0,.49.02,1.08.04,1.78,0,.33,0,.51,0,.54,0,.06-.03.09-.1.09h-.56c-.07,0-.1-.03-.1-.09,0,0,0-.44.03-1.31.06-2.54.1-4.82.1-6.84-.53,1.95-1.21,3.55-2.05,4.81-.06.09-.12.14-.16.14-.03,0-.07-.05-.12-.14-.07-.17-.18-.3-.3-.4.95-1.29,1.73-2.94,2.35-4.94h-.47l-1.43.03c-.07,0-.1-.04-.1-.11v-.44c0-.07.03-.1.1-.1l1.43.03h.67v-2.64c-.52.16-1.01.29-1.46.39-.09.02-.15.04-.18.04-.05,0-.11-.07-.19-.2-.06-.13-.17-.26-.3-.38,1.36-.21,2.46-.53,3.32-.97.18-.1.35-.22.51-.36.19.12.36.25.52.39.07.05.1.11.1.16,0,.09-.07.14-.22.16-.09.01-.22.06-.39.13-.25.12-.59.26-1.03.43v2.84l1.32-.03c.07,0,.1.03.1.1v.44c0,.07-.03.11-.1.11l-1.22-.03c.45,1.04.98,1.94,1.6,2.69-.11.09-.22.24-.3.45-.04.1-.08.15-.1.15-.02,0-.06-.04-.12-.13-.53-.83-.95-1.71-1.25-2.62ZM120.6,237.62c.23.1.43.21.58.33.07.05.1.1.1.15,0,.05-.04.09-.13.13-.1.02-.23.09-.4.19-.93.58-1.89,1-2.9,1.25-.08.02-.14.04-.18.04-.06,0-.12-.06-.19-.19-.07-.14-.17-.26-.3-.36,1.27-.27,2.26-.63,2.97-1.09.17-.11.32-.26.45-.45ZM122.06,230.59v-1.11h-.85l-1.84.03c-.07,0-.1-.04-.1-.11v-.36c0-.07.03-.1.1-.1l1.84.03h.85v-.99h-1.26l-2.03.03c-.07,0-.1-.03-.1-.1v-.39c0-.07.03-.1.1-.1l2.03.03h1.26c0-.67-.04-1.14-.11-1.4.3.01.55.04.77.07.1.02.15.06.15.13,0,.04-.03.13-.09.27-.04.1-.06.41-.06.92h1.66l2.02-.03c.07,0,.11.03.11.1v.39c0,.07-.04.1-.11.1l-2.02-.03h-1.66v.99h1.14l1.86-.03c.07,0,.1.03.1.1v.36c0,.07-.03.11-.1.11l-1.86-.03h-1.14v1.11h2.14l2.12-.03c.07,0,.1.04.1.11v.38c0,.07-.03.1-.1.1l-2.12-.03h-4.29l-2.12.03c-.07,0-.1-.03-.1-.1v-.38c0-.07.03-.11.1-.11l2.12.03h1.49ZM121.13,232.13h2.61l1.86-.03c.07,0,.1.03.1.1l-.03,1.45v2.13l.03,1.45c0,.07-.03.1-.1.1l-1.86-.03h-2.61l-1.86.03c-.07,0-.1-.03-.1-.1l.03-1.45v-2.13l-.03-1.45c0-.07.03-.1.1-.1l1.86.03ZM119.86,233.66h5.17v-.99h-5.17v.99ZM119.86,234.17v.98h5.17v-.98h-5.17ZM119.86,235.65v1.1h5.17v-1.1h-5.17ZM127.36,239.11c-.13.1-.24.22-.3.36-.05.12-.11.19-.16.19-.03,0-.11-.02-.22-.06-1.08-.38-2.04-.88-2.87-1.52-.03-.02-.05-.04-.05-.06,0-.02.05-.08.14-.16l.2-.16s.09-.07.11-.07c.02,0,.05.01.09.04.78.6,1.8,1.08,3.07,1.44Z"/>
      <path class="cls-3" d="M134.39,227.42h2.39l1.55-.03c.07,0,.1.03.1.1v.43c0,.07-.03.1-.1.1l-1.55-.03h-.62c.23.4.43.82.62,1.26,0,.02.01.04.01.06,0,.04-.05.08-.16.12l-.25.08c-.1.03-.17.05-.19.05-.03,0-.05-.03-.07-.08-.18-.58-.4-1.08-.65-1.49h-1.39c-.41.68-.93,1.32-1.55,1.93-.1.09-.16.14-.19.14-.04,0-.1-.04-.19-.13-.1-.1-.23-.18-.38-.23,1.04-.94,1.79-1.95,2.24-3.05.08-.21.14-.42.17-.61.27.05.5.11.68.19.08.04.12.08.12.13s-.04.12-.12.2c-.08.08-.16.19-.22.33-.03.07-.07.16-.13.27l-.12.24ZM140.82,236.83h2.33l2.01-.03c.07,0,.1.03.1.1v.45c0,.07-.03.1-.1.1l-2.01-.03h-2.33v.84l.04,1.37c0,.07-.04.1-.11.1h-.51c-.07,0-.11-.03-.11-.1l.03-1.37v-.84h-3.48c-.55,1.16-1.74,1.93-3.58,2.3-.09.02-.15.04-.18.04-.05,0-.12-.06-.2-.17-.09-.15-.22-.27-.39-.36,1.86-.29,3.05-.89,3.59-1.8h-1.75l-2.01.03c-.07,0-.1-.03-.1-.1v-.45c0-.07.03-.1.1-.1l2.01.03h2.02c.11-.39.18-.81.2-1.25l-2.04.03c-.07,0-.1-.03-.1-.1l.03-1.52v-2.43l-.03-1.54c0-.07.03-.1.1-.1l2.12.03h4.24l2.12-.03c.07,0,.1.03.1.1l-.03,1.54v2.43l.03,1.52c0,.07-.03.1-.1.1l-2-.03v1.25ZM134.92,231.63h7.32v-1.13h-7.32v1.13ZM134.92,232.18v1.14h7.32v-1.14h-7.32ZM134.92,233.85v1.18h7.32v-1.18h-7.32ZM140.15,236.83v-1.25h-3.07c-.03.45-.1.86-.2,1.25h3.27ZM139.97,227.42h3.3l1.77-.03c.07,0,.1.03.1.1v.43c0,.07-.03.1-.1.1l-1.77-.03h-1.44c.2.29.41.68.62,1.19.01.02.02.04.02.06,0,.04-.05.08-.16.12l-.29.1c-.08.02-.13.04-.15.04-.02,0-.05-.03-.07-.1-.18-.52-.4-.99-.67-1.4h-1.43c-.27.49-.59.96-.97,1.4-.09.1-.15.16-.17.16-.03,0-.09-.04-.19-.11-.12-.07-.25-.13-.38-.16.71-.75,1.24-1.6,1.58-2.56.07-.2.12-.43.15-.67.23.03.45.08.67.16.09.03.14.07.14.12s-.04.12-.12.2c-.07.07-.14.19-.2.36-.09.22-.17.4-.23.53Z"/>
      <path class="cls-3" d="M157.28,232.16v1.34h3l2.15-.03c.07,0,.11.03.11.09v.43c0,.07-.04.1-.11.1l-2.15-.03h-5.88l-2.21.03c-.07,0-.1-.03-.1-.1l.03-1.67v-1.79c0-.46,0-.98.03-1.56-.49.53-1,1.03-1.54,1.49-.09.07-.15.11-.19.11-.04,0-.09-.05-.15-.14-.08-.14-.2-.26-.33-.35.67-.44,1.31-1.01,1.92-1.69.43-.49.78-.97,1.06-1.44.21-.35.36-.65.43-.91.3.09.52.18.68.26.08.04.12.09.12.15,0,.05-.05.11-.16.19-.04.03-.2.22-.47.58-.18.27-.34.5-.47.67h3.56c.26-.37.46-.71.59-1,.16-.33.25-.61.27-.82.27.07.5.15.7.25.09.04.14.09.14.16,0,.05-.05.11-.16.17-.05.03-.14.15-.26.36-.24.4-.43.7-.56.88h2.83l2.15-.03c.07,0,.1.03.1.1v.42c0,.08-.03.12-.1.12l-2.15-.03h-2.9v1.28h2.21l2.13-.03c.08,0,.12.03.12.1v.42c0,.07-.04.1-.12.1l-2.13-.03h-2.21v1.31h2.21l2.13-.03c.08,0,.12.03.12.1v.42c0,.07-.04.1-.12.1l-2.13-.03h-2.21ZM157.11,236.17l.08,3.5c0,.06-.04.09-.11.09h-.54c-.07,0-.11-.03-.11-.09l.08-3.51c-1.3,1.3-3.21,2.31-5.72,3.04-.09.02-.15.04-.18.04-.05,0-.12-.07-.19-.2-.08-.15-.18-.27-.29-.37,2.45-.62,4.36-1.51,5.76-2.67h-3.22l-2.05.03c-.07,0-.1-.03-.1-.1v-.48c0-.07.03-.1.1-.1l2.05.03h3.8v-.06c0-.52-.02-.88-.06-1.07.37.04.6.08.71.1.1.02.16.06.16.12,0,.03-.03.1-.09.2-.03.05-.04.26-.04.62v.09h3.98l2.06-.03c.07,0,.1.03.1.1v.48c0,.07-.03.1-.1.1l-2.06-.03h-3.45c.92.72,1.85,1.29,2.8,1.72.89.39,1.95.73,3.18,1.01-.11.09-.23.23-.33.41-.07.14-.14.21-.2.21-.03,0-.09-.01-.18-.04-2.45-.67-4.39-1.71-5.83-3.11ZM156.65,229.73v-1.28h-3.85v1.28h3.85ZM156.65,230.29h-3.85v1.31h3.85v-1.31ZM156.65,232.16h-3.85v1.34h3.85v-1.34Z"/>
      <path class="cls-3" d="M172.66,229.68h-2.38l-1.75.03c-.06,0-.09-.04-.09-.12v-.48c0-.06.03-.09.09-.09l1.75.03h2.38l1.75-.03c.07,0,.1.03.1.09v.48c0,.08-.03.12-.1.12l-1.75-.03ZM172.39,227.58h-1.53l-1.45.03c-.07,0-.1-.03-.1-.1v-.46c0-.07.03-.1.1-.1l1.45.03h1.53l1.43-.03c.08,0,.12.03.12.1v.46c0,.07-.04.1-.12.1l-1.43-.03ZM170.03,238.74v.91c0,.06-.03.09-.1.09h-.49c-.07,0-.1-.03-.1-.09l.03-2.22v-.9l-.03-1.29c0-.07.03-.1.1-.1l1.42.03h1.4l1.42-.03c.07,0,.1.03.1.1l-.03,1.07v.94l.03,2.12c0,.07-.03.1-.1.1h-.49c-.07,0-.1-.03-.1-.1v-.62h-3.05ZM172.2,231.7h-1.31l-1.32.03c-.07,0-.11-.03-.11-.1v-.45c0-.07.04-.1.11-.1l1.32.03h1.31l1.31-.03c.08,0,.12.03.12.1v.45c0,.07-.04.1-.12.1l-1.31-.03ZM169.45,233.69v-.45c0-.07.04-.11.11-.11l1.32.04h1.31l1.31-.04c.08,0,.12.04.12.11v.45c0,.06-.04.09-.12.09h-1.31s-1.31-.01-1.31-.01h-1.32c-.07.01-.11-.01-.11-.07ZM170.03,238.16h3.05v-2.41h-3.05v2.41ZM177.89,231.34v-3.22c0-.93-.03-1.6-.1-2.01.25.01.52.04.82.07.1.02.15.06.15.13,0,.03-.02.12-.06.26-.06.22-.09.72-.09,1.52v3.26h1.38l2.01-.03c.07,0,.1.04.1.12v.51c0,.07-.03.1-.1.1l-2.01-.03h-1.38v4.91l.03,2.7c0,.07-.03.1-.1.1h-.56c-.07,0-.1-.03-.1-.1l.03-2.68v-4.92h-1.28l-2.01.03c-.07,0-.11-.03-.11-.1v-.51c0-.08.04-.12.11-.12l2.01.03h1.28Z"/>
      <path class="cls-3" d="M187.74,231.73l.38-.55c.04-.06.1-.1.16-.1.02,0,.05,0,.09.02.98.35,1.84.79,2.58,1.34.08.05.12.11.12.16,0,.03-.01.08-.04.13-.02.04-.12.2-.3.47-.04.06-.08.1-.13.1-.04,0-.09-.03-.15-.08-.74-.59-1.64-1.08-2.7-1.49ZM189.02,237.54c.53-.13,1.01-.3,1.45-.51,1.66-.89,3.06-1.75,4.18-2.6,1.77-1.39,3.21-2.79,4.32-4.22.05.31.14.57.26.79.02.03.03.07.03.1,0,.06-.03.13-.1.22-1.1,1.31-2.45,2.58-4.06,3.8-1.09.85-2.56,1.78-4.41,2.8-.23.12-.46.29-.67.51-.05.05-.1.08-.16.08-.06,0-.13-.03-.19-.1-.22-.24-.44-.53-.64-.87ZM189.54,228.23c.11-.15.24-.33.39-.53.05-.07.1-.11.13-.11.02,0,.06.01.11.04,1.02.45,1.88.97,2.56,1.55.07.05.1.09.1.13,0,.03-.02.08-.06.14-.13.19-.24.34-.33.47-.03.04-.06.07-.1.07s-.09-.03-.16-.08c-.73-.65-1.61-1.21-2.64-1.67Z"/>
      <path class="cls-3" d="M212.62,233.23c1.72,1.26,3.18,2.55,4.39,3.85.06.06.1.11.1.15,0,.03-.02.07-.07.13-.07.08-.21.23-.42.43-.03.03-.06.05-.09.05-.03,0-.08-.03-.13-.08-1.25-1.43-2.67-2.73-4.28-3.91-1.77,1.86-3.6,3.29-5.49,4.31-.06.03-.12.05-.16.05-.05,0-.1-.03-.15-.08-.16-.18-.37-.33-.64-.45,2.14-1.09,4.01-2.48,5.6-4.17,1.11-1.2,2.08-2.59,2.9-4.17h-4.75c-.89,0-1.6.03-2.13.08h-.04c-.08,0-.12-.04-.13-.13-.04-.24-.07-.49-.07-.74.49.03,1.25.04,2.29.04h4.47c.38,0,.64-.04.77-.13.03-.01.06-.02.1-.02.08,0,.15.02.2.07.15.11.31.26.47.44.04.05.07.11.07.17,0,.09-.04.15-.11.19-.11.06-.25.22-.39.47-.71,1.27-1.48,2.41-2.31,3.42Z"/>
      <path class="cls-3" d="M230.5,232.01c-.07,1.74-.37,3.11-.9,4.09-.65,1.19-1.54,2.13-2.68,2.82-.1.06-.18.09-.25.09-.04,0-.08-.01-.12-.04-.21-.18-.45-.31-.71-.39.8-.41,1.44-.84,1.91-1.31.4-.4.75-.88,1.05-1.46.51-.98.77-2.24.79-3.79h-3.16c-.68,0-1.4.02-2.18.07-.09,0-.15-.01-.18-.04-.02-.02-.04-.07-.05-.16,0-.03-.02-.26-.06-.68.8.04,1.62.06,2.47.06h6.49c.94,0,1.84-.02,2.69-.06.11,0,.17.07.17.22v.48c0,.1-.06.15-.19.15-.92-.03-1.81-.04-2.66-.04h-2.44ZM225.83,227.85c.74.04,1.51.06,2.3.06h3.05c1.07,0,1.89-.02,2.44-.05h.04c.08,0,.12.06.12.19v.44c0,.13-.06.2-.19.2-.54-.02-1.35-.03-2.41-.03h-3.05c-.91,0-1.6.01-2.06.04-.01,0-.03,0-.05,0-.08,0-.12-.06-.13-.17l-.04-.68Z"/>
      <path class="cls-3" d="M247.37,227.23c.47.12.85.27,1.14.45.06.04.09.09.09.16,0,.07-.04.15-.12.24-.21.21-.4.57-.56,1.08-.85,2.64-1.82,5.17-2.9,7.59,2.52-.17,4.81-.42,6.89-.74-.53-.97-1.16-1.88-1.9-2.74.28-.18.45-.28.52-.32.05-.03.09-.04.13-.04.05,0,.1.03.15.1,1.02,1.19,1.98,2.73,2.89,4.61.02.03.03.07.03.1,0,.05-.03.1-.09.14-.15.1-.33.2-.52.29-.03.01-.05.02-.07.02-.06,0-.11-.05-.16-.14-.19-.48-.41-.92-.64-1.32-2.27.35-4.8.65-7.59.91-.82.07-1.33.18-1.55.32-.07.05-.14.07-.21.07-.09,0-.15-.04-.19-.12-.1-.25-.21-.6-.32-1.05.24.02.49.04.77.04s.61-.01,1-.04c1.18-2.7,2.13-5.25,2.86-7.64.23-.79.35-1.45.36-1.98Z"/>
    </g>
    <g>
      <g class="cls-4">
        <path class="cls-2" d="M74.99,69.7v-2.13c0-10.01-.16-16.12-.48-18.32,3.84.46,6.28.86,7.33,1.21.83.24,1.25.6,1.25,1.09,0,.72-.97,1.48-2.9,2.26v15.91h23.08c2.44-3.03,3.91-4.55,4.39-4.55.4,0,2,1.18,4.79,3.54,1.26.99,1.89,1.77,1.89,2.34,0,.48-.36.72-1.09.72h-32.34c3.14,7.92,8.04,15.29,14.7,22.11,5.66,5.8,12.78,10.39,21.34,13.77.19.05.28.16.28.32,0,.32-.17.51-.52.56-1.05.27-1.83.67-2.34,1.21-.48.48-.97,1.32-1.45,2.5-.24.72-.68,1.09-1.33,1.09-.4,0-1.48-.52-3.22-1.57-6.07-3.68-11.79-9.11-17.16-16.31-4.97-6.74-8.81-14-11.52-21.79.54,25.24.81,41.28.81,48.12,0,1.64-1.15,2.46-3.46,2.46-1.58,0-2.38-.66-2.38-1.97,0-.4.04-2.12.12-5.15.21-10.55.42-23.36.6-38.42-7.54,14.82-18.91,26.49-34.11,35-.03.03-.08.04-.16.04-.46,0-.68-.26-.68-.77,0-.11.04-.2.12-.28,14.9-11.14,25.64-24.78,32.22-40.92h-22.43c-2.07,0-4.05.16-5.96.48l-.81-3.02c2.17.32,4.43.48,6.77.48h24.65Z"/>
        <path class="cls-2" d="M205.94,114.8c.27-.05.4.08.4.4,0,.27-.11.47-.32.6-1.5.81-2.35,1.84-2.54,3.1-.08.81-.27,1.32-.56,1.53-.24.21-.71.34-1.41.36-7.17.56-14.27.85-21.3.85-13.42,0-22.44-1.52-27.06-4.55-3.44-2.23-6.05-5.72-7.85-10.47-2.36,3.52-5.5,7.18-9.42,10.99v.64c0,2.04-.39,3.06-1.17,3.06-.43,0-.98-.54-1.65-1.61-.62-.99-1.68-3.02-3.18-6.08,1.48-.35,3.07-.95,4.79-1.81,2.44-1.21,4.86-2.86,7.25-4.95v-21.34h-5.68c-2.39,0-4.38.21-5.96.64l-.81-3.22c2.09.32,4.35.48,6.77.48h5.11c1.8-1.85,2.86-2.78,3.18-2.78.3,0,1.42.79,3.38,2.38.89.83,1.33,1.46,1.33,1.89,0,.46-.77,1.21-2.3,2.26v19.45c1.83,3.49,4.36,5.93,7.61,7.33,4.35,1.93,11.99,2.9,22.91,2.9,8.99,0,18.48-.68,28.47-2.05ZM134.82,52.71c-.05-.05-.08-.12-.08-.2,0-.3.17-.44.52-.44.05,0,.11.01.16.04,4.11,1.53,7.26,3.44,9.46,5.72,1.83,1.88,2.74,3.75,2.74,5.6,0,2.36-1.02,3.54-3.06,3.54-.7,0-1.25-.27-1.65-.81-.32-.48-.68-1.37-1.09-2.66-1.21-3.92-3.54-7.52-7.01-10.79ZM174.81,78.04v-12.81h-13.05c-2.09,3.01-5.03,6.07-8.82,9.18-.05.05-.13.08-.24.08-.48,0-.72-.23-.72-.68,0-.08.03-.16.08-.24,3.52-4.19,6.3-8.97,8.34-14.34,1.02-2.68,1.7-5.36,2.05-8.01,4.94,1.34,7.41,2.42,7.41,3.22,0,.67-1.02,1.17-3.06,1.49-1.18,2.77-2.42,5.18-3.7,7.25h11.72v-3.22c0-4.51-.16-8.05-.48-10.63,3.6.46,5.95.86,7.05,1.21.81.27,1.21.6,1.21,1.01,0,.62-.91,1.33-2.74,2.13v9.5h11.03c2.17-2.58,3.48-3.87,3.91-3.87.56,0,2.04.99,4.43,2.98,1.15.89,1.73,1.62,1.73,2.21,0,.48-.38.72-1.13.72h-19.97v12.81h14.86c2.34-2.77,3.7-4.15,4.11-4.15.54,0,2.08,1.05,4.63,3.14,1.21.97,1.81,1.7,1.81,2.21,0,.56-.36.85-1.09.85h-46.59c-1.85,0-3.64.16-5.36.48l-.77-3.1c2.26.38,4.3.56,6.12.56h17.24ZM190.07,106.91h-25.89v2.05c0,1.26-1.02,1.89-3.06,1.89-1.42,0-2.13-.55-2.13-1.65l.24-12.2c0-5.24-.11-9.09-.32-11.56,1.07.46,3.02,1.42,5.84,2.9h24.85c1.72-1.58,2.77-2.38,3.14-2.38.32,0,1.33.66,3.02,1.97.94.81,1.41,1.44,1.41,1.89,0,.38-.68,1.06-2.05,2.05v4.47l.32,12.12c0,1.42-1.07,2.13-3.22,2.13-1.42,0-2.13-.52-2.13-1.57v-2.13ZM190.07,104.86v-14.46h-25.89v14.46h25.89Z"/>
        <path class="cls-2" d="M53.17,156.97c2.34.38,3.83.7,4.47.97.54.24.81.58.81,1.01,0,.67-.85,1.36-2.54,2.05v14.18l.08,29.08c0,1.64-1.05,2.46-3.14,2.46-1.53,0-2.3-.68-2.3-2.05,0-.99.13-10.73.4-29.2l.16-15.26c-3.06,4.43-6.75,8.71-11.07,12.85-.05.05-.13.08-.24.08-.48,0-.72-.23-.72-.68,0-.08.03-.15.08-.2,3.6-4.38,7.01-9.83,10.23-16.35,2.68-5.37,4.78-10.56,6.28-15.58,1.07-3.6,1.7-6.43,1.89-8.5,5.4,1.61,8.09,2.85,8.09,3.7,0,.75-1.07,1.28-3.22,1.57-3.01,8.11-6.09,14.74-9.26,19.89ZM82.97,200.5v-24.48h-12.12c-1.75,0-3.61.19-5.6.56l-.85-3.18c1.99.38,4.13.56,6.44.56h12.12v-19.89h-14.18c-2.01,0-3.92.16-5.72.48l-.81-3.02c2.04.32,4.22.48,6.52.48h33.95c2.42-2.85,3.85-4.27,4.31-4.27s2.03,1.1,4.71,3.3c1.32,1.05,1.97,1.81,1.97,2.3s-.36.72-1.09.72h-24.4v19.89h12.28c2.39-2.98,3.79-4.47,4.19-4.47.48,0,1.97,1.1,4.47,3.3,1.26,1.1,1.89,1.93,1.89,2.5,0,.48-.35.72-1.05.72h-21.79v24.48h16.35c2.52-3.25,4-4.87,4.43-4.87.46,0,2.08,1.21,4.87,3.62,1.37,1.21,2.05,2.04,2.05,2.5,0,.54-.35.81-1.05.81h-49.01c-1.75,0-3.72.16-5.92.48l-.85-3.1c2.55.38,4.81.56,6.77.56h17.08ZM77.17,134.09c-.11-.05-.16-.13-.16-.24,0-.4.2-.56.6-.48,4.35,1.07,7.79,2.68,10.31,4.83,2.12,1.77,3.18,3.6,3.18,5.48,0,1.05-.28,1.88-.85,2.5-.51.54-1.15.81-1.93.81s-1.42-.21-1.85-.64c-.38-.4-.78-1.13-1.21-2.17-1.75-3.87-4.44-7.22-8.09-10.07Z"/>
        <path class="cls-2" d="M141.75,143.52h22.35v-5.24c0-2.26-.13-4.34-.4-6.24,3.81.4,6.27.79,7.37,1.17.81.27,1.21.64,1.21,1.13,0,.67-.99,1.41-2.98,2.21v6.97h23.84c1.91-2.09,3.06-3.14,3.46-3.14.46,0,1.96,1.15,4.51,3.46,1.26,1.21,1.89,2.05,1.89,2.54,0,.91-1.05,1.41-3.14,1.49-.99,0-1.93.44-2.82,1.33-2.04,1.93-4.01,3.62-5.92,5.07-.08.08-.19.12-.32.12-.38,0-.56-.16-.56-.48,0-.08.01-.15.04-.2,1.32-2.66,2.43-5.37,3.34-8.13h-51.79c-.05,3.41-.86,6.12-2.42,8.13-1.29,1.66-2.82,2.5-4.59,2.5-.91,0-1.65-.31-2.21-.93-.51-.59-.77-1.33-.77-2.21,0-1.26.79-2.31,2.38-3.14,3.81-1.99,5.8-5.41,5.96-10.27,0-.24.15-.36.44-.36.32,0,.5.12.52.36.3,1.21.5,2.5.6,3.87ZM159.47,162.89c-7.22,1.75-15.07,2.9-23.56,3.46-.3,0-.44-.24-.44-.72,0-.32.09-.5.28-.52,12.56-1.96,23.93-5.3,34.11-10.03,4.08-1.91,7.41-4,9.99-6.28,4.11,2.82,6.16,4.63,6.16,5.44,0,.51-.54.77-1.61.77-.7,0-1.56-.12-2.58-.36-5.53,2.77-11.28,5.05-17.24,6.85v14.22l25.41-3.58c2.36-3.79,3.73-5.68,4.11-5.68.56,0,2.58,1.05,6.04,3.14,1.53.91,2.3,1.65,2.3,2.21,0,.43-.39.68-1.17.77l-36.69,5.11v15.83c0,1.69.21,2.86.64,3.5.56.83,1.73,1.41,3.5,1.73,1.72.3,4.62.44,8.7.44,8.11,0,12.95-.63,14.54-1.89,1.83-1.42,3.46-5.02,4.91-10.79.08-.21.27-.32.56-.32.35,0,.52.13.52.4-.16,5.02-.24,7.69-.24,8.01,0,.91.42,1.52,1.25,1.81.94.3,1.41.98,1.41,2.05,0,1.72-1.54,3.06-4.63,4.03-3.41.99-9.42,1.49-18.04,1.49-8.16,0-13.36-.75-15.58-2.26-1.93-1.29-2.9-3.89-2.9-7.81l.24-13.21v-2.3l-20.46,2.9c-1.58.19-3.37.6-5.36,1.25l-1.33-2.98h1.33c1.75,0,3.42-.11,5.03-.32l20.78-2.9v-13.45Z"/>
      </g>
      <g>
        <path class="cls-2" d="M19.5,73.45c-.23,0-.46-.12-.59-.33-.19-.33-.09-.75.23-.94L129.11,6.1c.33-.19.75-.09.94.23.19.33.09.75-.23.94L19.85,73.35c-.11.07-.23.1-.35.1Z"/>
        <path class="cls-2" d="M239.43,73.45c-.12,0-.24-.03-.35-.1L129.11,7.27c-.32-.2-.43-.62-.23-.94.2-.33.62-.43.94-.23l109.97,66.08c.32.2.43.62.23.94-.13.21-.36.33-.59.33Z"/>
      </g>
    </g>
    <rect class="cls-1" width="257.43" height="243.83"/>
  </g>
</svg>